<svg width="151" height="106" viewBox="0 0 151 106" fill="none" xmlns="http://www.w3.org/2000/svg">
<path d="M15.1409 96.8119H15.9574C15.9202 97.2601 15.8831 97.783 15.8831 98.3059V102.302C15.8831 103.647 15.9574 105.029 14.473 105.701C13.9534 105.963 13.5823 106 12.9515 106C11.7639 106 10.3167 105.589 10.3167 104.207H11.1702C11.2444 104.992 12.2093 105.253 13.0628 105.253C14.1019 105.253 15.0296 104.506 15.0667 103.423V102.19H15.0296C14.6585 102.975 13.7308 103.423 12.8772 103.423C10.8733 103.423 10.0198 101.891 10.0198 100.061C10.0198 98.2685 10.8362 96.5878 12.8401 96.5878C13.805 96.5878 14.473 97.036 15.0296 97.8203L15.0667 97.783L15.1409 96.8119ZM12.9886 97.3348C11.5413 97.3348 10.9475 98.7914 10.9475 100.024C10.9475 101.257 11.5784 102.713 13.0257 102.713C14.5472 102.713 15.1409 101.294 15.1409 99.9866C15.1038 98.7167 14.3987 97.3348 12.9886 97.3348Z" fill="white"/>
<path d="M18.3323 100.323C18.3694 101.742 19.0003 102.937 20.6331 102.937C21.5608 102.937 22.3401 102.265 22.5628 101.331H23.3792C22.971 102.937 21.9691 103.647 20.3733 103.647C18.4065 103.647 17.4788 101.929 17.4788 100.099C17.4788 98.3058 18.4807 96.5504 20.4475 96.5504C22.6741 96.5504 23.4534 98.1938 23.4534 100.285H18.3323V100.323ZM22.5999 99.5758C22.5257 98.2685 21.8206 97.3347 20.4475 97.3347C19.1487 97.3347 18.4807 98.4179 18.3694 99.5758H22.5999ZM20.0022 94.0853H20.9671L22.2659 95.9901H21.6351L20.4475 94.5708L19.2971 95.9901H18.7034L20.0022 94.0853Z" fill="white"/>
<path d="M26.0142 103.46H25.2349V98.3059C25.2349 97.783 25.1978 97.2601 25.1606 96.8119H25.9771L26.0142 97.783L26.0513 97.8203C26.4966 96.9986 27.2759 96.6251 28.1294 96.6251C30.2818 96.6251 30.4674 98.5673 30.4674 99.3143V103.46H29.688V99.1649C29.688 98.0071 29.0201 97.3348 27.9439 97.3348C26.645 97.3348 26.0513 98.4553 26.0513 99.6505V103.46H26.0142Z" fill="white"/>
<path d="M36.7388 98.8287C36.6646 97.8203 36.0337 97.2974 34.9204 97.2974C33.6958 97.2974 32.9536 98.5673 32.9536 100.099C32.9536 101.63 33.6958 102.9 34.9204 102.9C35.9595 102.9 36.6646 102.265 36.7388 101.331H37.5924C37.3697 102.863 36.5162 103.61 34.9947 103.61C33.0278 103.61 32.1001 101.891 32.1001 100.061C32.1001 98.2685 33.1021 96.513 35.0689 96.513C36.442 96.513 37.5552 97.3347 37.5924 98.754H36.7388V98.8287Z" fill="white"/>
<path d="M40.0415 94.8697H39.1138V93.8612H40.0415V94.8697ZM39.9673 103.46H39.188V96.7745H39.9673V103.46Z" fill="white"/>
<path d="M45.8306 98.7541C45.7564 97.6709 45.1998 97.3348 44.272 97.3348C43.4556 97.3348 42.7505 97.5962 42.6392 98.4926H41.7856C41.9712 97.1107 43.0103 96.5878 44.272 96.5878C45.7193 96.5878 46.647 97.2601 46.6099 98.7914V101.966C46.6099 102.489 46.647 103.012 46.6841 103.46H45.8677L45.8306 102.489H45.7935L45.7564 102.564C45.4595 103.124 44.5689 103.647 43.6782 103.647C42.4536 103.647 41.4888 102.9 41.4888 101.593C41.4888 100.696 42.0454 99.9866 42.8247 99.6505C43.7154 99.277 44.8658 99.389 45.8306 99.3517V98.7541ZM43.8638 102.937C45.608 102.937 45.9048 101.518 45.8306 100.099C44.7173 100.136 42.3423 99.9119 42.3423 101.593C42.3423 102.489 43.0474 102.937 43.8638 102.937Z" fill="white"/>
<path d="M53.4382 93.8612V100.061C53.5125 101.817 54.4773 102.863 56.073 102.863C57.6317 102.863 58.6336 101.817 58.7078 100.061V93.8612H59.5614V100.099C59.5243 102.153 58.3739 103.684 56.073 103.684C53.7722 103.684 52.6218 102.153 52.5847 100.099V93.8986H53.4382V93.8612Z" fill="white"/>
<path d="M64.4229 103.647C62.9014 103.647 61.6396 102.526 61.6025 100.958H62.5303C62.5674 102.414 63.6436 102.863 64.9053 102.863C65.9815 102.863 67.2061 102.228 67.2061 101.032C67.2061 100.061 66.501 99.6131 65.7217 99.3517C64.1631 98.8288 61.8252 98.3432 61.8252 96.2516C61.8252 94.5708 63.3467 93.6744 64.8682 93.6744C66.1299 93.6744 67.7628 94.1226 67.9854 95.9528H67.0577C67.0206 94.7576 65.9444 94.4588 64.9795 94.4588C63.9776 94.4588 62.7529 94.9817 62.7529 96.1395C62.7529 98.8661 68.1339 97.6336 68.1339 100.92C68.1339 103.012 66.3526 103.647 64.4229 103.647Z" fill="white"/>
<path d="M70.2119 103.46V93.8612H72.5869C74.4053 93.8239 76.4835 94.2721 76.4835 96.5878C76.4835 98.8661 74.4424 99.3517 72.5869 99.3143H71.0654V103.46H70.2119ZM71.0654 98.4926H73.1436C74.4424 98.4926 75.5557 98.0818 75.5557 96.5878C75.5557 95.0938 74.4053 94.6829 73.1436 94.6829H71.0654V98.4926Z" fill="white"/>
<path d="M86.2435 102.489L86.2064 102.452C85.6497 103.236 84.8704 103.684 83.9427 103.684C81.9758 103.684 81.2336 101.779 81.2336 100.136C81.2336 98.4179 81.9758 96.6251 83.9427 96.6251C84.8333 96.6251 85.7611 97.036 86.2064 97.8203L86.2435 97.783V93.8612H87.0228V101.966C87.0228 102.489 87.0599 103.012 87.097 103.46H86.2806L86.2435 102.489ZM84.0911 97.3348C82.5696 97.3348 82.0872 98.7541 82.0872 100.024C82.0872 101.257 82.4583 102.937 83.9798 102.937C85.7239 102.937 86.2435 101.481 86.2435 99.9866C86.2064 98.6047 85.6126 97.3348 84.0911 97.3348Z" fill="white"/>
<path d="M89.4719 100.323C89.509 101.742 90.1399 102.937 91.7728 102.937C92.7005 102.937 93.4798 102.265 93.7025 101.331H94.5189C94.1107 102.937 93.1087 103.647 91.513 103.647C89.5462 103.647 88.6184 101.929 88.6184 100.099C88.6184 98.3059 89.6204 96.5504 91.5872 96.5504C93.8138 96.5504 94.5931 98.1938 94.5931 100.285H89.4719V100.323ZM93.7396 99.5758C93.6654 98.2685 92.9603 97.3348 91.5872 97.3348C90.2884 97.3348 89.6204 98.4179 89.509 99.5758H93.7396Z" fill="white"/>
<path d="M101.236 93.8238H100.382V103.46H101.236V93.8238Z" fill="white"/>
<path d="M104.501 103.46H103.722V98.3059C103.722 97.783 103.685 97.2601 103.648 96.8119H104.464L104.501 97.783L104.539 97.8203C104.984 96.9986 105.763 96.6251 106.617 96.6251C108.769 96.6251 108.955 98.5673 108.955 99.3143V103.46H108.175V99.1649C108.175 98.0071 107.507 97.3348 106.431 97.3348C105.132 97.3348 104.539 98.4553 104.539 99.6505V103.46H104.501Z" fill="white"/>
<path d="M116.748 100.136C116.748 101.891 115.783 103.684 113.668 103.684C111.552 103.684 110.587 101.891 110.587 100.136C110.587 98.3806 111.552 96.5878 113.668 96.5878C115.746 96.5878 116.748 98.3806 116.748 100.136ZM113.63 97.3348C112.035 97.3348 111.404 98.9035 111.404 100.136C111.404 101.369 112.035 102.937 113.63 102.937C115.226 102.937 115.857 101.369 115.857 100.136C115.894 98.9035 115.226 97.3348 113.63 97.3348Z" fill="white"/>
<path d="M118.38 96.8118L120.644 102.377L122.871 96.8118H123.724L121.089 103.46H120.199L117.49 96.8118H118.38Z" fill="white"/>
<path d="M128.734 98.7541C128.66 97.6709 128.103 97.3348 127.176 97.3348C126.359 97.3348 125.654 97.5962 125.543 98.4926H124.689C124.875 97.1107 125.914 96.5878 127.176 96.5878C128.623 96.5878 129.551 97.2601 129.513 98.7914V101.966C129.513 102.489 129.551 103.012 129.588 103.46H128.771L128.734 102.489H128.697L128.66 102.564C128.363 103.124 127.472 103.647 126.582 103.647C125.357 103.647 124.392 102.9 124.392 101.593C124.392 100.696 124.949 99.9866 125.728 99.6505C126.619 99.277 127.769 99.389 128.734 99.3517V98.7541ZM126.73 102.937C128.474 102.937 128.771 101.518 128.697 100.099C127.584 100.136 125.209 99.9119 125.209 101.593C125.246 102.489 125.951 102.937 126.73 102.937Z" fill="white"/>
<path d="M132.705 105.216C133.076 105.365 133.484 105.477 133.893 105.552C134.004 105.552 134.338 105.514 134.449 105.402C134.598 105.253 134.598 105.178 134.598 104.992C134.598 104.618 134.264 104.506 133.967 104.506C133.818 104.506 133.67 104.543 133.522 104.543L133.818 103.647C132 103.535 131.146 101.854 131.146 100.136C131.146 98.3432 132.148 96.5878 134.115 96.5878C135.488 96.5878 136.602 97.4095 136.639 98.8288H135.785C135.711 97.8203 135.08 97.2974 133.967 97.2974C132.742 97.2974 132 98.5673 132 100.099C132 101.63 132.742 102.9 133.967 102.9C135.006 102.9 135.711 102.265 135.785 101.331H136.639C136.416 102.825 135.6 103.572 134.152 103.61L134.004 104.095C134.672 104.095 135.34 104.17 135.34 104.992C135.34 105.627 134.635 105.851 134.115 105.851C133.447 105.851 133.262 105.739 132.631 105.552L132.705 105.216Z" fill="white"/>
<path d="M141.908 98.7541C141.834 97.6709 141.277 97.3347 140.35 97.3347C139.533 97.3347 138.828 97.5962 138.717 98.4926H137.863C138.049 97.1106 139.088 96.5877 140.35 96.5877C141.797 96.5877 142.725 97.26 142.688 98.7914V101.966C142.688 102.489 142.725 103.012 142.762 103.46H141.945L141.908 102.489H141.871L141.834 102.564C141.537 103.124 140.647 103.647 139.756 103.647C138.531 103.647 137.566 102.9 137.566 101.593C137.566 100.696 138.123 99.9866 138.902 99.6505C139.793 99.277 140.943 99.389 141.908 99.3517V98.7541ZM139.941 102.937C141.686 102.937 141.982 101.518 141.908 100.099C140.795 100.136 138.42 99.9119 138.42 101.593C138.457 102.489 139.125 102.937 139.941 102.937ZM142.242 94.2347C142.094 94.8323 141.723 95.3552 141.055 95.3552C140.869 95.3552 140.684 95.2805 140.461 95.2058C140.275 95.1311 140.016 95.0564 139.756 95.0564C139.496 95.0564 139.199 95.1684 139.125 95.4299H138.605C138.754 94.7202 139.273 94.2347 140.016 94.3841C140.127 94.3841 140.35 94.4588 140.535 94.5335C140.721 94.5708 140.943 94.6455 141.055 94.6455C141.352 94.6455 141.611 94.4961 141.723 94.1973H142.242V94.2347Z" fill="white"/>
<path d="M150.481 100.136C150.481 101.891 149.516 103.684 147.4 103.684C145.285 103.684 144.32 101.891 144.32 100.136C144.32 98.3806 145.285 96.5878 147.4 96.5878C149.516 96.5878 150.481 98.3806 150.481 100.136ZM147.4 97.3348C145.805 97.3348 145.174 98.9035 145.174 100.136C145.174 101.369 145.805 102.937 147.4 102.937C148.996 102.937 149.627 101.369 149.627 100.136C149.627 98.9035 148.996 97.3348 147.4 97.3348Z" fill="white"/>
<path d="M112.666 2.12896C111.626 1.34461 110.55 0.634954 109.4 0C108.064 0.672304 106.728 1.38196 105.503 2.24101C102.609 4.25793 100.197 6.7604 98.1185 9.59901C97.0794 11.0183 96.2259 12.5123 95.4466 14.081C95.1126 14.716 93.7766 17.7414 93.7024 18.7125C95.0755 16.098 96.7454 13.8196 98.6009 11.8027C102.386 7.5821 107.21 4.51938 112.666 2.12896Z" fill="white"/>
<path d="M109.177 43.6251C110.847 41.3468 112.888 39.4419 115.115 37.7238C122.945 31.6357 131.517 26.8922 140.498 22.821C140.498 22.5969 140.498 22.4102 140.498 22.1861C140.498 19.6836 140.201 17.2558 139.607 14.9401C139.533 14.9775 139.422 15.0148 139.273 15.0895C137.158 16.1353 135.006 17.1438 132.927 18.227C126.582 21.4764 120.347 24.9126 114.484 29.0212C111.367 31.2622 108.361 33.6153 105.763 36.4912C104.316 38.0973 103.017 39.8527 102.238 41.907C101.31 44.3721 101.495 46.9493 103.202 49.4144L103.24 49.7506L103.017 49.6012C101.013 48.2192 99.4543 46.4637 98.8235 44.0733C98.2297 41.9444 98.6008 39.8901 99.4543 37.9105C100.308 35.9683 101.532 34.2502 102.906 32.6442C105.726 29.3573 109.029 26.5934 112.517 24.0536C119.828 18.7125 127.695 14.3052 135.822 10.3834C136.453 10.0846 137.084 9.7858 137.678 9.52435C136.713 7.50743 135.562 5.63992 134.189 3.92181C131.629 5.11702 129.328 6.16282 126.804 7.39538C120.57 10.4581 114.521 13.8196 108.843 17.8161C105.206 20.3933 101.755 23.2319 98.8606 26.7055C96.7824 29.2453 95.0754 31.9718 94.4816 35.2587C94.2961 36.3792 94.259 37.4997 94.3703 38.4708C93.9621 36.5659 93.8137 35.3334 93.9992 33.2791C94.4816 28.7224 95.632 23.6054 105.466 15.7245C111.441 10.9437 125.802 3.47361 125.988 3.39891C125.134 2.39045 123.205 1.08319 123.168 1.08319C118.083 2.8013 97.8586 10.234 93.8879 25.0994C91.6984 33.2791 94.5558 40.1516 94.6301 40.413C95.5578 43.5504 97.4875 45.9782 99.8626 48.0698C100.939 49.0036 102.052 49.8253 103.24 50.5723C104.242 51.2072 105.281 51.8048 106.357 52.3277C108.027 53.0374 109.66 53.8591 111.404 54.4567C113.63 55.2037 115.931 55.8013 118.306 56.0628C118.529 56.1001 119.048 56.1375 119.085 56.1375C118.937 56.0254 118.826 55.9134 118.751 55.8387C118.121 55.764 116.748 55.4652 116.673 55.4652C116.302 55.3905 115.968 55.2784 115.634 55.129C114.966 54.8676 114.335 54.5314 113.816 54.0085C113.222 53.4109 112.962 52.7012 113.074 51.8795C113.185 51.1325 113.556 50.4976 114.001 49.9C114.113 49.7506 114.224 49.6012 114.335 49.4518C115.115 48.518 116.005 47.6963 116.97 46.9493C119.531 44.9697 122.24 43.2516 125.097 41.7576C125.134 41.7203 125.134 41.6829 125.171 41.6829L127.361 36.678C127.398 36.6033 127.435 36.5286 127.472 36.4539C126.953 36.7153 126.396 36.9768 125.877 37.2382C122.685 38.8443 119.568 40.5998 116.673 42.654C115.115 43.7745 113.593 44.9324 112.294 46.389C111.552 47.2107 110.958 48.0698 110.513 49.1156C110.253 49.7132 110.253 50.3108 110.328 50.8711C110.662 52.5518 112.035 53.5976 112.406 53.8964C112.443 53.9338 112.591 54.3073 112.591 54.3447C112.48 54.3073 112.406 54.2699 112.294 54.2326C110.958 53.6723 109.697 53 108.658 51.9916C108.546 51.8795 108.435 51.7675 108.361 51.6554C107.396 50.5349 106.951 49.265 107.21 47.6963C107.581 46.0902 108.286 44.8203 109.177 43.6251Z" fill="white"/>
<path d="M0.371166 84.4489L9.98262 62.6364C10.6506 61.1424 11.8752 60.2086 13.5081 60.2086H13.8792C15.5491 60.2086 16.6995 61.105 17.3675 62.6364L26.9789 84.4489C27.1645 84.8971 27.2758 85.2706 27.2758 85.6815C27.2758 87.2875 26.0141 88.5948 24.4184 88.5948C23.0082 88.5948 22.0433 87.7731 21.5238 86.5032L19.6683 82.1332H7.53337L5.60366 86.69C5.08412 87.8852 4.08215 88.5948 2.82042 88.5948C1.2618 88.5948 0.0371773 87.3249 0.0371773 85.7562C6.7424e-05 85.308 0.148507 84.8598 0.371166 84.4489ZM17.4046 76.7548L13.5823 67.604L9.75996 76.7548H17.4046Z" fill="white"/>
<path d="M31.6177 76.456V63.4208C31.6177 61.7026 32.9536 60.358 34.6607 60.358C36.3677 60.358 37.7037 61.7026 37.7037 63.4208V76.3066C37.7037 80.826 39.9303 83.1417 43.6413 83.1417C47.3523 83.1417 49.5788 80.9007 49.5788 76.4933V63.4208C49.5788 61.7026 50.9148 60.358 52.6219 60.358C54.3289 60.358 55.6649 61.7026 55.6649 63.4208V76.2692C55.6649 84.673 50.989 88.7816 43.5671 88.7816C36.1451 88.7816 31.6177 84.6357 31.6177 76.456Z" fill="white"/>
<path d="M61.2686 85.42C60.6006 84.9345 60.1182 84.0754 60.1182 83.1043C60.1182 81.5356 61.3799 80.3031 62.9385 80.3031C63.7178 80.3031 64.2745 80.5645 64.6827 80.8633C66.7608 82.3947 69.0616 83.3658 71.7335 83.3658C74.2199 83.3658 75.7043 82.3573 75.7043 80.7513V80.6766C75.7043 79.1452 74.7765 78.3235 70.1378 77.1656C64.5713 75.7463 61.0088 74.1776 61.0088 68.6871V68.6124C61.0088 63.5701 65.0167 60.246 70.6574 60.246C73.9972 60.246 76.9289 61.105 79.3782 62.7111C80.0461 63.1219 80.7141 63.9436 80.7141 65.1389C80.7141 66.7076 79.4524 67.9401 77.8938 67.9401C77.3 67.9401 76.8176 67.7907 76.3723 67.4919C74.3683 66.2967 72.4757 65.6244 70.5831 65.6244C68.2452 65.6244 67.0577 66.7076 67.0577 68.0522V68.1269C67.0577 69.957 68.2452 70.5546 72.9953 71.7872C78.5989 73.2439 81.7161 75.2608 81.7161 80.1163V80.191C81.7161 85.6815 77.5598 88.7816 71.5851 88.7816C67.9854 88.7442 64.3116 87.6611 61.2686 85.42Z" fill="white"/>
<path d="M86.9856 63.6822C86.9856 61.9641 88.3216 60.6194 90.0286 60.6194H98.267C104.835 60.6194 108.806 64.5412 108.806 70.2185V70.2932C108.806 76.7174 103.833 80.0416 97.6732 80.0416H93.0716V85.5321C93.0716 87.2502 91.7357 88.5948 90.0286 88.5948C88.3216 88.5948 86.9856 87.2502 86.9856 85.5321V63.6822ZM97.8588 74.6258C100.902 74.6258 102.646 72.7956 102.646 70.4426V70.3679C102.646 67.6413 100.753 66.1846 97.7103 66.1846H93.0345V74.6631H97.8588V74.6258Z" fill="white"/>
<path d="M113.556 63.458C113.556 61.7399 114.892 60.3953 116.599 60.3953C118.306 60.3953 119.642 61.7399 119.642 63.458V85.532C119.642 87.2502 118.306 88.5948 116.599 88.5948C114.892 88.5948 113.556 87.2502 113.556 85.532V63.458Z" fill="white"/>
<path d="M126.508 63.5327C126.508 61.8146 127.844 60.47 129.551 60.47H130.181C131.629 60.47 132.519 61.1797 133.336 62.2628L145.025 77.7258V63.4207C145.025 61.7399 146.361 60.3953 148.031 60.3953C149.701 60.3953 151.037 61.7399 151.037 63.4207V85.4947C151.037 87.2128 149.701 88.5574 147.994 88.5574H147.809C146.361 88.5574 145.471 87.8478 144.654 86.7646L132.482 70.7413V85.6067C132.482 87.2875 131.146 88.6321 129.476 88.6321C127.806 88.6321 126.47 87.2875 126.47 85.6067V63.5327H126.508Z" fill="white"/>
<path d="M0.779297 103.46L4.5645 93.8612H5.56647L9.38878 103.46H8.46104L7.45907 100.883H2.6719L1.66993 103.46H0.779297ZM7.12508 100.061L5.08404 94.6456L2.96878 100.061H7.12508Z" fill="white"/>
</svg>
