<svg width="216" height="50" viewBox="0 0 216 50" fill="none" xmlns="http://www.w3.org/2000/svg">
<path d="M28.0211 23.7613C28.0211 26.2388 28.0211 28.8288 28.0211 31.3063C28.0211 34.2342 27.9076 37.1622 28.0211 40.0901C28.1345 44.8198 25.1849 46.9595 22.2353 47.7478C19.0589 48.6487 16.1093 48.4234 13.1597 46.8469C10.6639 45.4955 9.41602 43.3559 9.41602 40.5406C9.41602 34.9099 9.41602 29.2793 9.41602 23.7613C9.41602 22.973 9.41602 22.0721 9.64291 21.2838C9.98324 20.0451 10.7774 19.7072 11.9118 20.2703C13.0463 20.8333 13.9538 21.8469 14.9748 22.7478C15.3152 23.0856 15.5421 23.4234 15.9958 23.6487C15.9958 23.7613 16.1093 23.8739 16.1093 23.9865C16.79 24.6622 17.5841 25.1126 18.4916 25.4505C21.4412 26.464 24.2774 26.0135 26.8866 24.437C27.3404 24.2117 27.6807 23.9865 28.0211 23.7613Z" fill="white"/>
<path d="M120.933 20.0451C120.933 19.8198 120.933 19.7072 120.933 19.482C120.933 16.2162 120.933 12.9505 120.933 9.68471C120.933 9.23426 121.046 9.12164 121.5 9.12164C122.408 9.12164 123.315 9.12164 124.223 9.12164C124.563 9.12164 124.677 9.23426 124.677 9.57209C124.677 9.68471 124.677 9.68471 124.677 9.79732C124.677 18.6937 124.677 27.7027 124.677 36.5991C124.677 37.2748 124.79 37.1622 123.996 37.2748C123.882 37.2748 123.769 37.2748 123.656 37.2748C122.861 37.2748 121.954 37.3874 121.16 37.1622C121.046 36.3739 121.16 35.473 121.16 34.6847C121.16 34.4595 121.16 34.3469 121.16 34.1216C121.046 34.2343 121.046 34.2343 121.046 34.2343C119.571 36.1487 117.529 37.1622 115.147 37.3874C111.857 37.7252 108.794 36.8243 106.525 34.3469C105.05 32.7703 104.256 30.8559 104.029 28.8289C103.689 26.464 104.029 24.2117 105.05 22.1847C106.525 19.2568 109.021 17.6802 112.198 17.2298C114.466 16.8919 116.735 17.1171 118.891 18.2433C119.458 18.8063 120.139 19.3694 120.933 20.0451ZM114.126 34.3469C115.147 34.3469 116.055 34.2343 116.962 33.7838C119.345 32.6577 120.593 30.7433 120.933 28.1532C121.387 24.0991 119.004 20.3829 114.466 20.2703C112.198 20.1577 110.269 20.946 108.908 22.6352C107.66 24.2117 107.319 26.0135 107.433 28.0406C107.66 31.7568 110.382 34.3469 114.126 34.3469Z" fill="white"/>
<path d="M52.979 24.0991C52.979 17.1171 57.7437 11.7117 64.6639 10.6982C68.4076 10.1351 71.9244 10.6982 75.1008 12.7252C75.7815 13.1757 76.4622 13.7388 77.0294 14.3018C77.2563 14.527 77.2563 14.6397 77.0294 14.7523C76.3488 15.4279 75.6681 15.991 74.9874 16.6667C74.7605 16.8919 74.6471 16.8919 74.4202 16.6667C72.9454 15.2027 71.2437 14.3018 69.2017 13.964C63.9832 13.0631 58.9916 15.5406 57.2899 20.4955C55.5882 25.5631 57.6303 31.4189 63.1891 33.446C67.2731 34.9099 71.1303 34.3469 74.4202 31.1937C74.6471 30.9685 74.7605 30.9685 74.9874 31.1937C75.6681 31.8694 76.2353 32.4324 76.916 32.9955C77.1429 33.2207 77.1429 33.3333 76.916 33.5586C74.874 35.5856 72.3782 36.8243 69.542 37.2748C65.9118 37.8378 62.395 37.2748 59.1051 35.3604C55.5882 33.2207 53.5462 29.955 52.979 25.9009C52.979 25.3378 52.979 24.6622 52.979 24.0991Z" fill="white"/>
<path d="M139.651 28.491C137.155 28.491 134.546 28.491 132.05 28.491C131.483 28.491 131.483 28.491 131.597 29.0541C132.164 31.4189 133.525 32.9955 135.794 33.7838C138.517 34.6847 141.126 34.5721 143.622 32.8829C143.962 32.6577 144.189 32.4324 144.416 32.2072C144.643 31.982 144.756 31.982 144.983 32.2072C145.437 32.7703 146.004 33.3333 146.458 33.8964C146.685 34.1216 146.685 34.3469 146.458 34.5721C145.097 36.036 143.395 36.8243 141.353 37.2748C138.517 37.8378 135.681 37.6126 133.071 36.2613C129.895 34.5721 128.193 31.8694 127.853 28.2658C127.626 26.0135 128.08 23.7613 129.214 21.8469C131.256 18.5811 134.319 17.1171 138.063 17.1171C140.332 17.1171 142.374 17.7928 144.076 19.1442C146.231 20.8333 147.365 23.0856 147.706 25.7883C147.819 26.5766 147.819 27.2523 147.819 28.0406C147.819 28.491 147.706 28.6036 147.252 28.6036C144.756 28.491 142.147 28.491 139.651 28.491ZM137.95 25.9009C139.992 25.9009 141.92 25.9009 143.962 25.9009C144.189 25.9009 144.416 25.9009 144.302 25.5631C144.076 24.2117 143.508 22.973 142.487 21.9595C140.899 20.3829 138.971 19.9324 136.815 20.1577C134.092 20.4955 131.823 22.7478 131.483 25.3378C131.483 25.6757 131.483 25.7883 131.937 25.7883C133.865 25.9009 135.907 25.9009 137.95 25.9009Z" fill="white"/>
<path d="M15.2017 49.2117C14.4076 49.7748 13.5 50 12.479 50C8.96218 50 5.55882 47.4099 4.76471 44.0315C4.65126 43.5811 4.53782 43.2432 4.53782 42.6802C4.53782 39.0766 4.53782 35.3604 4.53782 31.7568C4.53782 30.0676 4.19748 28.491 3.40336 27.1396C2.60924 25.9009 1.47479 25 0 24.5495C0.680672 24.0991 1.36134 23.6486 1.92857 23.1982C3.7437 22.0721 4.42437 20.3829 4.53782 18.3559C4.53782 14.8649 4.65126 11.3739 4.53782 7.99549C4.53782 5.29279 5.67227 3.37838 7.71429 1.8018C9.18908 0.788288 10.8908 0.225225 12.7059 0C12.9328 0 13.0462 0 13.3866 0C12.7059 0.337838 12.1387 0.675676 11.5714 1.12613C9.64286 2.81532 8.73529 4.95495 8.39496 7.31982C8.28151 7.99549 8.28151 8.67117 8.28151 9.23423C8.28151 12.5 8.28151 15.7658 8.28151 18.9189C8.28151 19.7072 8.28151 20.3829 8.05462 21.1712C7.71429 22.7477 6.92017 23.6486 5.44538 24.5495V24.6622C7.4874 25.7883 8.16807 27.7027 8.16807 29.8423C8.16807 33.6712 8.16807 37.6126 8.16807 41.4414C8.16807 44.8198 10.6639 47.973 13.9538 48.8739C14.4076 49.0991 14.8613 49.0991 15.2017 49.2117Z" fill="white"/>
<path d="M198.189 33.446C198.189 34.5721 198.189 35.5856 198.189 36.5991C198.189 37.2748 198.189 37.2748 197.508 37.2748C196.941 37.2748 196.487 37.2748 195.92 37.2748C195.693 37.2748 195.58 37.1622 195.58 36.937C195.58 36.8243 195.58 36.8243 195.58 36.7117C195.58 27.7027 195.58 18.8063 195.58 9.79732C195.58 9.34687 195.693 9.23425 196.147 9.23425C196.714 9.23425 197.282 9.23425 197.849 9.23425C198.189 9.23425 198.303 9.34687 198.303 9.6847C198.303 13.2883 198.303 17.0045 198.303 20.6081C198.303 20.7207 198.303 20.8334 198.303 21.0586C198.416 21.1712 198.416 21.0586 198.529 20.946C200.345 18.4685 202.84 17.3424 206.017 17.2297C211.008 17.2297 214.866 20.1577 215.773 25C216.567 28.9415 215.66 32.4325 212.597 35.1352C210.668 36.8243 208.399 37.5 205.903 37.3874C202.84 37.2748 200.231 36.1487 198.529 33.446C198.303 33.5586 198.303 33.5586 198.189 33.446ZM198.303 27.3649C198.303 28.0406 198.303 28.7162 198.529 29.2793C199.21 32.0946 200.798 34.009 203.634 34.7973C206.584 35.5856 209.193 35.0225 211.349 32.7703C213.05 30.8559 213.504 28.6036 213.277 26.1261C212.37 19.5946 205.336 18.1307 201.479 20.946C199.21 22.5225 198.303 24.7748 198.303 27.3649Z" fill="white"/>
<path d="M89.9623 37.5C85.9917 37.3874 82.7018 35.9234 80.7732 32.3198C78.1639 27.7027 79.4118 20.7207 85.1976 18.018C89.1681 16.2162 94.1597 16.7793 97.3362 19.7072C99.0379 21.2838 100.059 23.3108 100.399 25.563C100.74 28.3784 100.286 31.0811 98.4707 33.4459C96.769 35.8108 94.3866 36.9369 91.5505 37.3874C90.9833 37.5 90.4161 37.5 89.9623 37.5ZM89.9623 34.3468C92.9118 34.3468 95.2942 32.7703 96.2018 30.1802C96.6555 28.9414 96.769 27.5901 96.6555 26.2387C96.3152 23.6486 95.0673 21.6216 92.4581 20.7207C89.7354 19.8198 87.2396 20.1576 85.0841 22.0721C83.3824 23.7612 82.9287 25.9009 83.1555 28.1531C83.6093 31.8694 86.332 34.3468 89.9623 34.3468Z" fill="white"/>
<path d="M190.021 34.2342C186.05 38.6261 178.903 38.4009 175.046 34.7973C171.189 31.0811 171.076 24.4369 174.592 20.4955C178.336 16.3288 186.05 16.1036 189.908 20.4955C189.908 19.5946 189.908 18.6937 189.908 17.7928C189.908 17.4549 190.021 17.3423 190.361 17.3423C190.929 17.3423 191.609 17.3423 192.177 17.3423C192.517 17.3423 192.63 17.4549 192.63 17.7928C192.63 21.6216 192.63 25.563 192.63 29.3919C192.63 31.8693 192.63 34.2342 192.63 36.7117C192.63 37.1621 192.517 37.2748 192.063 37.2748C191.496 37.2748 190.929 37.2748 190.361 37.2748C190.021 37.2748 189.908 37.1621 189.908 36.8243C190.021 36.036 190.021 35.1351 190.021 34.2342ZM183.101 19.5946C180.832 19.5946 179.244 19.9324 177.996 20.9459C175.954 22.4099 175.046 24.3243 174.933 26.6892C174.592 31.0811 177.202 34.5721 181.513 35.0225C184.689 35.3603 187.752 33.8964 189.113 30.7432C189.681 29.2793 189.908 27.7027 189.681 26.1261C189.227 22.2973 186.277 19.5946 183.101 19.5946Z" fill="white"/>
<path d="M23.9369 0.337854C27 0.225241 31.1974 2.36488 32.105 5.96848C32.2184 6.41893 32.2184 6.86938 32.2184 7.31983C32.2184 10.2478 32.2184 13.2883 32.2184 16.2162C32.2184 17.6802 32.4453 19.0315 33.126 20.2703C33.9201 21.7342 35.0546 22.8604 36.6428 23.3108C36.6428 23.536 36.4159 23.536 36.3025 23.6487C35.7353 23.9865 35.2815 24.3243 34.7142 24.7748C33.0126 25.9009 32.2184 27.5901 32.2184 29.5045C32.2184 33.5586 32.2184 37.6126 32.2184 41.6667C32.2184 45.1577 29.9495 47.973 26.5462 48.6487C25.5252 48.8739 24.5042 48.8739 23.4832 48.536C23.5966 48.536 23.71 48.4234 23.8235 48.4234C26.5462 47.7478 28.1344 45.946 28.8151 43.2433C29.042 42.3424 29.1554 41.4415 29.1554 40.4279C29.1554 36.4865 29.1554 32.5451 29.1554 28.7162C29.1554 27.8153 29.2689 27.027 29.4958 26.1261C29.9495 24.7748 30.7437 23.7613 31.9916 23.0856C29.8361 21.9595 29.1554 20.0451 29.1554 17.9054C29.1554 14.4144 29.1554 11.036 29.1554 7.54506C29.1554 4.39191 27.7941 2.13965 25.0714 0.675691C24.7311 0.788304 24.3907 0.563079 23.9369 0.337854Z" fill="white"/>
<path d="M155.08 24.0991C155.08 19.8198 155.08 15.5405 155.08 11.3739C155.08 10.9234 155.193 10.8108 155.534 10.9234C156.214 10.9234 156.895 10.9234 157.576 10.9234C157.803 10.9234 157.916 11.036 157.916 11.2613C157.916 11.5991 157.916 12.0496 157.916 12.3874C157.916 19.7072 157.916 27.1396 157.916 34.4595C157.916 34.9099 158.029 35.0225 158.483 35.0225C163.134 35.0225 167.672 35.0225 172.324 35.0225C172.777 35.0225 172.891 35.1351 172.891 35.5856C172.891 36.036 172.891 36.4865 172.891 36.9369C172.891 37.2748 172.777 37.3874 172.437 37.3874C170.395 37.3874 168.353 37.3874 166.424 37.3874C162.908 37.3874 159.277 37.3874 155.761 37.3874C155.307 37.3874 155.193 37.2748 155.193 36.8243C155.08 32.545 155.08 28.2658 155.08 24.0991Z" fill="white"/>
<path opacity="0.8" d="M28.0209 23.7612C27.5671 23.8739 27.3402 24.2117 26.9999 24.4369C24.3906 26.0135 21.5545 26.3513 18.6049 25.4504C17.6974 25.1126 16.9032 24.6621 16.2226 23.9865C16.1091 23.8739 16.1091 23.8739 16.1091 23.6486C17.1301 22.973 18.2646 22.4099 19.399 21.8468C20.9873 21.1712 22.5755 20.6081 24.3906 20.4955C26.4327 20.3829 28.0209 21.3964 28.0209 23.7612Z" fill="white"/>
<path d="M14.6344 13.7388C16.1092 13.7388 17.3571 14.8649 17.3571 16.2162C17.3571 17.5676 16.2226 18.6937 14.7478 18.6937C13.273 18.6937 12.0251 17.5676 12.0251 16.2162C12.0251 14.8649 13.1596 13.7388 14.6344 13.7388Z" fill="white"/>
<path opacity="0.8" d="M23.5967 12.5C22.3488 12.5 21.2144 11.4865 21.2144 10.3603C21.2144 9.23422 22.2354 8.2207 23.4833 8.2207C24.7312 8.2207 25.8656 9.23422 25.8656 10.3603C25.8656 11.4865 24.8446 12.5 23.5967 12.5Z" fill="white"/>
<path opacity="0.8" d="M17.2437 7.20718C16.3361 7.20718 15.542 6.41889 15.542 5.40538C15.542 4.39187 16.3361 3.60358 17.2437 3.60358C18.1512 3.60358 18.9454 4.50448 18.9454 5.40538C18.9454 6.41889 18.1512 7.20718 17.2437 7.20718Z" fill="white"/>
</svg>
