<svg width="732" height="621" viewBox="0 0 732 621" fill="none" xmlns="http://www.w3.org/2000/svg">
<path d="M414.001 134.489C414.001 148.512 414.001 163.171 414.001 177.194C414.001 193.766 413.349 210.338 414.001 226.91C414.653 253.68 397.705 265.791 380.758 270.253C362.507 275.352 345.559 274.076 328.612 265.153C314.272 257.505 307.102 245.394 307.102 229.46C307.102 197.59 307.102 165.721 307.102 134.489C307.102 130.027 307.102 124.928 308.405 120.466C310.361 113.455 314.924 111.543 321.442 114.73C327.96 117.916 333.175 123.653 339.041 128.753C340.997 130.665 342.3 132.576 344.907 133.852C344.907 134.489 345.559 135.126 345.559 135.764C349.471 139.588 354.033 142.137 359.247 144.05C376.195 149.786 392.491 147.236 407.483 138.313C410.09 137.038 412.045 135.764 414.001 134.489Z" fill="white"/>
<path d="M340.345 278.538C335.782 281.725 330.567 283 324.701 283C304.494 283 284.939 268.34 280.377 249.218C279.725 246.669 279.073 244.756 279.073 241.57C279.073 221.174 279.073 200.14 279.073 179.743C279.073 170.183 277.117 161.259 272.555 153.61C267.992 146.599 261.474 141.5 253 138.95C256.911 136.401 260.822 133.851 264.081 131.302C274.51 124.928 278.421 115.367 279.073 103.894C279.073 84.1353 279.725 64.3763 279.073 45.2545C279.073 29.9572 285.591 19.1216 297.324 10.1982C305.798 4.46171 315.575 1.27477 326.004 0C327.308 0 327.96 0 329.915 0C326.004 1.91216 322.745 3.82433 319.486 6.3739C308.405 15.9347 303.19 28.045 301.235 41.4302C300.583 45.2545 300.583 49.0788 300.583 52.2657C300.583 70.75 300.583 89.2344 300.583 107.081C300.583 111.543 300.583 115.367 299.279 119.829C297.324 128.752 292.761 133.851 284.288 138.95V139.588C296.02 145.962 299.931 156.797 299.931 168.907C299.931 190.579 299.931 212.887 299.931 234.558C299.931 253.68 314.272 271.527 333.174 276.626C335.782 277.901 338.389 277.901 340.345 278.538Z" fill="white"/>
<path d="M390.534 1.91216C408.134 1.27477 432.251 13.3851 437.466 33.7815C438.118 36.331 438.118 38.8806 438.118 41.4301C438.118 58.0024 438.118 75.2117 438.118 91.7836C438.118 100.07 439.421 107.718 443.332 114.73C447.895 123.015 454.414 129.39 463.539 131.939C463.539 133.214 462.235 133.214 461.584 133.852C458.325 135.763 455.717 137.675 452.458 140.225C442.681 146.599 438.118 156.16 438.118 166.995C438.118 189.942 438.118 212.887 438.118 235.833C438.118 255.592 425.081 271.527 405.527 275.352C399.66 276.626 393.794 276.626 387.928 274.714C388.579 274.714 389.231 274.076 389.883 274.076C405.527 270.252 414.652 260.054 418.563 244.757C419.867 239.658 420.518 234.559 420.518 228.822C420.518 206.513 420.518 184.205 420.518 162.534C420.518 157.434 421.171 152.973 422.474 147.874C425.081 140.225 429.644 134.489 436.814 130.664C424.43 124.291 420.518 113.455 420.518 101.344C420.518 81.5854 420.518 62.4637 420.518 42.7049C420.518 24.8581 412.697 12.1103 397.053 3.82431C395.098 4.4617 393.142 3.18693 390.534 1.91216Z" fill="white"/>
<path opacity="0.8" d="M414 134.488C411.392 135.126 410.089 137.038 408.134 138.313C393.141 147.236 376.846 149.148 359.898 144.049C354.684 142.137 350.121 139.588 346.21 135.764C345.558 135.126 345.558 135.126 345.558 133.851C351.425 130.027 357.943 126.84 364.461 123.653C373.587 119.829 382.712 116.642 393.141 116.005C404.875 115.367 414 121.104 414 134.488Z" fill="white"/>
<path d="M337.085 77.7616C345.559 77.7616 352.729 84.1353 352.729 91.7837C352.729 99.4326 346.21 105.806 337.737 105.806C329.263 105.806 322.093 99.4326 322.093 91.7837C322.093 84.1353 328.611 77.7616 337.085 77.7616Z" fill="white"/>
<path opacity="0.8" d="M388.58 70.75C381.41 70.75 374.892 65.0136 374.892 58.6393C374.892 52.2657 380.758 46.5292 387.928 46.5292C395.098 46.5292 401.616 52.2657 401.616 58.6393C401.616 65.0136 395.75 70.75 388.58 70.75Z" fill="white"/>
<path opacity="0.8" d="M352.077 40.7927C346.862 40.7927 342.3 36.331 342.3 30.5945C342.3 24.858 346.862 20.3963 352.077 20.3963C357.291 20.3963 361.855 25.4954 361.855 30.5945C361.855 36.331 357.291 40.7927 352.077 40.7927Z" fill="white"/>
<path d="M379.625 541.576C379.508 543.194 378.909 544.468 377.828 545.398C376.753 546.328 375.335 546.793 373.572 546.793C371.643 546.793 370.125 546.145 369.016 544.851C367.914 543.549 367.363 541.765 367.363 539.5V538.58C367.363 537.134 367.618 535.86 368.128 534.758C368.637 533.656 369.364 532.813 370.307 532.227C371.258 531.635 372.36 531.339 373.613 531.339C375.349 531.339 376.747 531.804 377.807 532.733C378.868 533.663 379.481 534.968 379.646 536.648H376.547C376.471 535.677 376.199 534.975 375.731 534.541C375.269 534.1 374.563 533.88 373.613 533.88C372.58 533.88 371.805 534.252 371.289 534.996C370.779 535.732 370.517 536.879 370.504 538.436V539.572C370.504 541.197 370.748 542.385 371.237 543.136C371.733 543.886 372.511 544.262 373.572 544.262C374.529 544.262 375.242 544.045 375.71 543.611C376.185 543.17 376.457 542.492 376.526 541.576H379.625ZM390.709 540.068H384.759V544.096H391.742V546.586H381.66V531.545H391.722V534.056H384.759V537.64H390.709V540.068ZM405.791 546.586H402.692L396.659 536.69V546.586H393.56V531.545H396.659L402.703 541.462V531.545H405.791V546.586ZM419.51 534.056H414.902V546.586H411.803V534.056H407.258V531.545H419.51V534.056ZM426.854 541.08H424.385V546.586H421.286V531.545H426.875C428.652 531.545 430.022 531.941 430.986 532.733C431.951 533.525 432.433 534.644 432.433 536.091C432.433 537.117 432.209 537.974 431.761 538.663C431.32 539.345 430.649 539.889 429.747 540.295L433.001 546.441V546.586H429.674L426.854 541.08ZM424.385 538.57H426.885C427.664 538.57 428.266 538.374 428.693 537.981C429.12 537.582 429.334 537.034 429.334 536.339C429.334 535.629 429.13 535.071 428.724 534.665C428.325 534.259 427.708 534.056 426.875 534.056H424.385V538.57ZM447.153 539.407C447.153 540.887 446.891 542.185 446.368 543.301C445.844 544.417 445.094 545.277 444.116 545.884C443.145 546.49 442.029 546.793 440.769 546.793C439.522 546.793 438.41 546.493 437.432 545.894C436.454 545.295 435.697 544.441 435.16 543.332C434.623 542.216 434.351 540.935 434.344 539.489V538.745C434.344 537.265 434.609 535.963 435.139 534.841C435.676 533.711 436.43 532.847 437.401 532.248C438.379 531.642 439.495 531.339 440.748 531.339C442.002 531.339 443.114 531.642 444.085 532.248C445.063 532.847 445.817 533.711 446.347 534.841C446.884 535.963 447.153 537.261 447.153 538.735V539.407ZM444.013 538.725C444.013 537.148 443.73 535.949 443.166 535.13C442.601 534.31 441.795 533.901 440.748 533.901C439.708 533.901 438.906 534.307 438.341 535.12C437.777 535.925 437.491 537.11 437.484 538.673V539.407C437.484 540.942 437.766 542.134 438.331 542.981C438.896 543.828 439.708 544.251 440.769 544.251C441.809 544.251 442.608 543.845 443.166 543.032C443.723 542.213 444.006 541.021 444.013 539.458V538.725ZM454.673 546.586V531.545H459.301C460.623 531.545 461.804 531.845 462.844 532.444C463.891 533.036 464.707 533.883 465.293 534.985C465.878 536.08 466.171 537.327 466.171 538.725V539.417C466.171 540.815 465.881 542.058 465.303 543.146C464.731 544.234 463.922 545.078 462.875 545.677C461.829 546.276 460.647 546.579 459.332 546.586H454.673ZM457.772 534.056V544.096H459.27C460.482 544.096 461.408 543.7 462.049 542.908C462.689 542.116 463.017 540.984 463.03 539.51V538.714C463.03 537.186 462.713 536.029 462.08 535.244C461.446 534.452 460.52 534.056 459.301 534.056H457.772ZM477.482 540.068H471.532V544.096H478.515V546.586H468.433V531.545H478.494V534.056H471.532V537.64H477.482V540.068ZM379.284 566.813C379.098 568.404 378.51 569.634 377.518 570.501C376.533 571.362 375.221 571.793 373.582 571.793C371.805 571.793 370.38 571.156 369.305 569.882C368.238 568.607 367.704 566.903 367.704 564.768V563.322C367.704 561.924 367.952 560.695 368.448 559.634C368.951 558.574 369.66 557.761 370.576 557.196C371.492 556.625 372.553 556.339 373.758 556.339C375.355 556.339 376.636 556.786 377.6 557.682C378.565 558.57 379.126 559.803 379.284 561.38H377.291C377.118 560.182 376.743 559.314 376.165 558.777C375.593 558.239 374.791 557.971 373.758 557.971C372.491 557.971 371.495 558.439 370.772 559.376C370.056 560.312 369.698 561.645 369.698 563.374V564.83C369.698 566.462 370.039 567.76 370.721 568.725C371.402 569.689 372.356 570.171 373.582 570.171C374.684 570.171 375.528 569.923 376.113 569.427C376.705 568.924 377.098 568.053 377.291 566.813H379.284ZM393.571 564.551C393.571 566.025 393.323 567.313 392.827 568.415C392.331 569.51 391.629 570.346 390.72 570.925C389.811 571.503 388.75 571.793 387.538 571.793C386.354 571.793 385.303 571.503 384.387 570.925C383.471 570.339 382.759 569.51 382.249 568.435C381.746 567.354 381.488 566.104 381.474 564.685V563.601C381.474 562.155 381.726 560.877 382.228 559.768C382.731 558.66 383.44 557.813 384.356 557.227C385.279 556.635 386.333 556.339 387.517 556.339C388.723 556.339 389.783 556.631 390.699 557.217C391.622 557.795 392.331 558.639 392.827 559.748C393.323 560.85 393.571 562.134 393.571 563.601V564.551ZM391.598 563.58C391.598 561.796 391.24 560.429 390.523 559.479C389.807 558.522 388.805 558.043 387.517 558.043C386.264 558.043 385.276 558.522 384.553 559.479C383.836 560.429 383.468 561.752 383.447 563.446V564.551C383.447 566.28 383.809 567.64 384.532 568.632C385.262 569.616 386.264 570.109 387.538 570.109C388.819 570.109 389.811 569.644 390.513 568.714C391.216 567.778 391.577 566.438 391.598 564.696V563.58ZM399.108 556.545L404.025 568.818L408.942 556.545H411.514V571.586H409.531V565.729L409.717 559.407L404.779 571.586H403.26L398.333 559.438L398.529 565.729V571.586H396.546V556.545H399.108ZM416.999 565.698V571.586H415.016V556.545H420.563C422.209 556.545 423.497 556.965 424.427 557.806C425.363 558.646 425.832 559.758 425.832 561.142C425.832 562.602 425.374 563.728 424.458 564.52C423.549 565.305 422.244 565.698 420.543 565.698H416.999ZM416.999 564.076H420.563C421.624 564.076 422.436 563.828 423.001 563.332C423.566 562.829 423.848 562.106 423.848 561.163C423.848 560.268 423.566 559.551 423.001 559.014C422.436 558.477 421.662 558.198 420.677 558.178H416.999V564.076ZM436.864 564.634H430.346V569.964H437.918V571.586H428.363V556.545H437.815V558.178H430.346V563.012H436.864V564.634ZM450.985 558.178H446.151V571.586H444.178V558.178H439.354V556.545H450.985V558.178ZM461.718 564.634H455.2V569.964H462.772V571.586H453.217V556.545H462.669V558.178H455.2V563.012H461.718V564.634ZM460.995 555.223V555.326H459.415L457.865 553.57L456.326 555.326H454.746V555.202L457.287 552.393H458.444L460.995 555.223ZM476.8 571.586H474.807L467.235 559.996V571.586H465.241V556.545H467.235L474.827 568.187V556.545H476.8V571.586ZM491.386 566.813C491.2 568.404 490.612 569.634 489.62 570.501C488.635 571.362 487.323 571.793 485.684 571.793C483.907 571.793 482.482 571.156 481.408 569.882C480.34 568.607 479.806 566.903 479.806 564.768V563.322C479.806 561.924 480.054 560.695 480.55 559.634C481.053 558.574 481.762 557.761 482.678 557.196C483.594 556.625 484.655 556.339 485.86 556.339C487.457 556.339 488.738 556.786 489.703 557.682C490.667 558.57 491.228 559.803 491.386 561.38H489.393C489.22 560.182 488.845 559.314 488.267 558.777C487.695 558.239 486.893 557.971 485.86 557.971C484.593 557.971 483.597 558.439 482.874 559.376C482.158 560.312 481.8 561.645 481.8 563.374V564.83C481.8 566.462 482.141 567.76 482.823 568.725C483.505 569.689 484.458 570.171 485.684 570.171C486.786 570.171 487.63 569.923 488.215 569.427C488.807 568.924 489.2 568.053 489.393 566.813H491.386ZM496.231 571.586H494.248V556.545H496.231V571.586ZM508.359 567.661H502.057L500.642 571.586H498.597L504.34 556.545H506.076L511.83 571.586H509.795L508.359 567.661ZM502.656 566.028H507.77L505.208 558.994L502.656 566.028ZM527.604 564.634H521.085V569.964H528.657V571.586H519.102V556.545H528.554V558.178H521.085V563.012H527.604V564.634ZM533.688 556.545L538.605 568.818L543.522 556.545H546.095V571.586H544.111V565.729L544.297 559.407L539.359 571.586H537.841L532.913 559.438L533.11 565.729V571.586H531.126V556.545H533.688ZM375.617 592.64C375.617 592.055 375.41 591.607 374.997 591.297C374.584 590.98 373.84 590.65 372.766 590.305C371.692 589.954 370.841 589.61 370.214 589.272C368.507 588.349 367.653 587.106 367.653 585.543C367.653 584.73 367.88 584.007 368.334 583.374C368.796 582.733 369.453 582.234 370.307 581.876C371.168 581.518 372.132 581.339 373.2 581.339C374.274 581.339 375.231 581.535 376.072 581.928C376.912 582.313 377.563 582.861 378.024 583.57C378.492 584.279 378.726 585.085 378.726 585.987H375.627C375.627 585.299 375.41 584.765 374.977 584.386C374.543 584 373.933 583.808 373.148 583.808C372.391 583.808 371.802 583.969 371.382 584.293C370.962 584.61 370.752 585.03 370.752 585.553C370.752 586.042 370.996 586.452 371.485 586.783C371.981 587.113 372.707 587.423 373.665 587.712C375.428 588.243 376.712 588.9 377.518 589.685C378.324 590.471 378.726 591.448 378.726 592.619C378.726 593.921 378.234 594.943 377.249 595.687C376.264 596.424 374.939 596.793 373.272 596.793C372.115 596.793 371.062 596.583 370.111 596.162C369.161 595.735 368.434 595.154 367.932 594.417C367.436 593.68 367.188 592.826 367.188 591.855H370.297C370.297 593.514 371.289 594.344 373.272 594.344C374.009 594.344 374.584 594.196 374.997 593.9C375.41 593.597 375.617 593.177 375.617 592.64ZM393.189 589.407C393.189 590.887 392.927 592.185 392.403 593.301C391.88 594.417 391.129 595.277 390.152 595.884C389.181 596.49 388.065 596.793 386.805 596.793C385.558 596.793 384.446 596.493 383.468 595.894C382.49 595.295 381.733 594.441 381.195 593.332C380.658 592.216 380.386 590.935 380.379 589.489V588.745C380.379 587.265 380.644 585.963 381.175 584.841C381.712 583.711 382.466 582.847 383.437 582.248C384.415 581.642 385.531 581.339 386.784 581.339C388.037 581.339 389.15 581.642 390.121 582.248C391.098 582.847 391.853 583.711 392.383 584.841C392.92 585.963 393.189 587.261 393.189 588.735V589.407ZM390.048 588.725C390.048 587.148 389.766 585.949 389.201 585.13C388.636 584.31 387.831 583.901 386.784 583.901C385.744 583.901 384.942 584.307 384.377 585.12C383.812 585.925 383.527 587.11 383.52 588.673V589.407C383.52 590.942 383.802 592.134 384.367 592.981C384.931 593.828 385.744 594.251 386.805 594.251C387.844 594.251 388.643 593.845 389.201 593.032C389.759 592.213 390.041 591.021 390.048 589.458V588.725ZM404.49 590.44H398.54V596.586H395.441V581.545H405.233V584.056H398.54V587.94H404.49V590.44ZM418.559 584.056H413.952V596.586H410.853V584.056H406.308V581.545H418.559V584.056ZM432.216 592.247L434.24 581.545H437.329L433.992 596.586H430.873L428.424 586.524L425.976 596.586H422.857L419.52 581.545H422.609L424.644 592.227L427.123 581.545H429.747L432.216 592.247ZM447.05 593.487H441.616L440.583 596.586H437.288L442.887 581.545H445.758L451.388 596.586H448.093L447.05 593.487ZM442.453 590.977H446.213L444.322 585.347L442.453 590.977ZM458.361 591.08H455.892V596.586H452.793V581.545H458.382C460.159 581.545 461.529 581.941 462.493 582.733C463.457 583.525 463.939 584.644 463.939 586.091C463.939 587.117 463.716 587.974 463.268 588.663C462.827 589.345 462.156 589.889 461.254 590.295L464.507 596.441V596.586H461.181L458.361 591.08ZM455.892 588.57H458.392C459.17 588.57 459.773 588.374 460.2 587.981C460.627 587.582 460.84 587.034 460.84 586.339C460.84 585.629 460.637 585.071 460.231 584.665C459.831 584.259 459.215 584.056 458.382 584.056H455.892V588.57ZM475.354 590.068H469.404V594.096H476.387V596.586H466.305V581.545H476.366V584.056H469.404V587.64H475.354V590.068ZM486.573 594.096H493.153V596.586H483.474V581.545H486.573V594.096ZM498.235 596.586H495.136V581.545H498.235V596.586ZM506.675 592.857L510.084 581.545H513.534L508.297 596.586H505.063L499.847 581.545H503.287L506.675 592.857ZM520.528 591.08H518.059V596.586H514.96V581.545H520.548C522.325 581.545 523.695 581.941 524.66 582.733C525.624 583.525 526.106 584.644 526.106 586.091C526.106 587.117 525.882 587.974 525.434 588.663C524.994 589.345 524.322 589.889 523.42 590.295L526.674 596.441V596.586H523.348L520.528 591.08ZM518.059 588.57H520.559C521.337 588.57 521.939 588.374 522.366 587.981C522.793 587.582 523.007 587.034 523.007 586.339C523.007 585.629 522.804 585.071 522.397 584.665C521.998 584.259 521.381 584.056 520.548 584.056H518.059V588.57ZM537.521 590.068H531.57V594.096H538.554V596.586H528.471V581.545H538.533V584.056H531.57V587.64H537.521V590.068Z" fill="white"/>
<path d="M183.473 574.103C182.962 581.176 180.343 586.745 175.618 590.808C170.922 594.871 164.722 596.903 157.017 596.903C148.589 596.903 141.952 594.074 137.106 588.415C132.291 582.726 129.883 574.931 129.883 565.028V561.01C129.883 554.69 130.996 549.121 133.224 544.306C135.451 539.49 138.626 535.803 142.75 533.244C146.904 530.656 151.719 529.362 157.197 529.362C164.782 529.362 170.892 531.393 175.527 535.457C180.163 539.52 182.841 545.224 183.564 552.568H170.019C169.688 548.324 168.499 545.254 166.453 543.357C164.436 541.431 161.351 540.468 157.197 540.468C152.682 540.468 149.296 542.093 147.039 545.344C144.812 548.565 143.668 553.576 143.608 560.378V565.345C143.608 572.448 144.676 577.64 146.813 580.921C148.98 584.201 152.381 585.842 157.017 585.842C161.2 585.842 164.316 584.894 166.362 582.997C168.439 581.071 169.628 578.106 169.929 574.103H183.473ZM243.972 574.103C243.46 581.176 240.841 586.745 236.116 590.808C231.421 594.871 225.22 596.903 217.515 596.903C209.087 596.903 202.451 594.074 197.605 588.415C192.789 582.726 190.381 574.931 190.381 565.028V561.01C190.381 554.69 191.495 549.121 193.722 544.306C195.949 539.49 199.125 535.803 203.248 533.244C207.402 530.656 212.218 529.362 217.696 529.362C225.28 529.362 231.39 531.393 236.026 535.457C240.661 539.52 243.34 545.224 244.062 552.568H230.518C230.186 548.324 228.998 545.254 226.951 543.357C224.934 541.431 221.849 540.468 217.696 540.468C213.181 540.468 209.795 542.093 207.537 545.344C205.31 548.565 204.166 553.576 204.106 560.378V565.345C204.106 572.448 205.174 577.64 207.311 580.921C209.479 584.201 212.88 585.842 217.515 585.842C221.699 585.842 224.814 584.894 226.861 582.997C228.937 581.071 230.126 578.106 230.427 574.103H243.972ZM286.953 578.753C286.953 576.195 286.05 574.239 284.244 572.884C282.438 571.5 279.187 570.055 274.492 568.55C269.796 567.015 266.079 565.51 263.34 564.035C255.876 560.002 252.143 554.569 252.143 547.737C252.143 544.185 253.137 541.025 255.123 538.256C257.14 535.457 260.014 533.274 263.746 531.709C267.509 530.144 271.723 529.362 276.388 529.362C281.083 529.362 285.267 530.219 288.939 531.935C292.611 533.621 295.455 536.013 297.472 539.114C299.519 542.214 300.542 545.735 300.542 549.678H286.998C286.998 546.668 286.05 544.336 284.153 542.68C282.257 540.995 279.593 540.152 276.162 540.152C272.851 540.152 270.278 540.859 268.442 542.274C266.606 543.658 265.688 545.494 265.688 547.782C265.688 549.919 266.756 551.71 268.893 553.155C271.06 554.599 274.236 555.954 278.42 557.218C286.125 559.535 291.738 562.41 295.26 565.841C298.781 569.272 300.542 573.546 300.542 578.663C300.542 584.352 298.39 588.821 294.086 592.072C289.782 595.293 283.988 596.903 276.704 596.903C271.647 596.903 267.042 595.985 262.889 594.149C258.735 592.283 255.56 589.739 253.362 586.519C251.195 583.298 250.112 579.566 250.112 575.322H263.701C263.701 582.576 268.036 586.203 276.704 586.203C279.924 586.203 282.438 585.556 284.244 584.262C286.05 582.937 286.953 581.101 286.953 578.753ZM323.297 585.119H352.056V596H309.752V530.265H323.297V585.119Z" fill="white"/>
<path d="M71.896 452.064C59.6267 452.064 48.504 449.427 38.528 444.152C28.6667 438.763 20.8693 431.367 15.136 421.964C9.51733 412.447 6.708 401.725 6.708 389.8C6.708 377.875 9.51733 367.211 15.136 357.808C20.8693 348.291 28.6667 340.895 38.528 335.62C48.504 330.231 59.684 327.536 72.068 327.536C82.5027 327.536 91.9053 329.371 100.276 333.04C108.761 336.709 115.871 341.984 121.604 348.864L103.716 365.376C95.5747 355.973 85.484 351.272 73.444 351.272C65.9907 351.272 59.34 352.935 53.492 356.26C47.644 359.471 43.0573 364 39.732 369.848C36.5213 375.696 34.916 382.347 34.916 389.8C34.916 397.253 36.5213 403.904 39.732 409.752C43.0573 415.6 47.644 420.187 53.492 423.512C59.34 426.723 65.9907 428.328 73.444 428.328C85.484 428.328 95.5747 423.569 103.716 414.052L121.604 430.564C115.871 437.559 108.761 442.891 100.276 446.56C91.7907 450.229 82.3307 452.064 71.896 452.064ZM170.769 451.376C161.022 451.376 152.25 449.369 144.453 445.356C136.77 441.228 130.75 435.552 126.393 428.328C122.036 421.104 119.857 412.905 119.857 403.732C119.857 394.559 122.036 386.36 126.393 379.136C130.75 371.912 136.77 366.293 144.453 362.28C152.25 358.152 161.022 356.088 170.769 356.088C180.516 356.088 189.23 358.152 196.913 362.28C204.596 366.293 210.616 371.912 214.973 379.136C219.33 386.36 221.509 394.559 221.509 403.732C221.509 412.905 219.33 421.104 214.973 428.328C210.616 435.552 204.596 441.228 196.913 445.356C189.23 449.369 180.516 451.376 170.769 451.376ZM170.769 429.36C177.649 429.36 183.268 427.067 187.625 422.48C192.097 417.779 194.333 411.529 194.333 403.732C194.333 395.935 192.097 389.743 187.625 385.156C183.268 380.455 177.649 378.104 170.769 378.104C163.889 378.104 158.213 380.455 153.741 385.156C149.269 389.743 147.033 395.935 147.033 403.732C147.033 411.529 149.269 417.779 153.741 422.48C158.213 427.067 163.889 429.36 170.769 429.36ZM325.1 322.376V450H299.472V439.336C292.821 447.363 283.189 451.376 270.576 451.376C261.861 451.376 253.949 449.427 246.84 445.528C239.845 441.629 234.341 436.068 230.328 428.844C226.315 421.62 224.308 413.249 224.308 403.732C224.308 394.215 226.315 385.844 230.328 378.62C234.341 371.396 239.845 365.835 246.84 361.936C253.949 358.037 261.861 356.088 270.576 356.088C282.387 356.088 291.617 359.815 298.268 367.268V322.376H325.1ZM275.22 429.36C281.985 429.36 287.604 427.067 292.076 422.48C296.548 417.779 298.784 411.529 298.784 403.732C298.784 395.935 296.548 389.743 292.076 385.156C287.604 380.455 281.985 378.104 275.22 378.104C268.34 378.104 262.664 380.455 258.192 385.156C253.72 389.743 251.484 395.935 251.484 403.732C251.484 411.529 253.72 417.779 258.192 422.48C262.664 427.067 268.34 429.36 275.22 429.36ZM431.978 404.076C431.978 404.42 431.806 406.828 431.462 411.3H361.458C362.719 417.033 365.701 421.563 370.402 424.888C375.103 428.213 380.951 429.876 387.946 429.876C392.762 429.876 397.005 429.188 400.674 427.812C404.458 426.321 407.955 424.028 411.166 420.932L425.442 436.412C416.727 446.388 403.999 451.376 387.258 451.376C376.823 451.376 367.593 449.369 359.566 445.356C351.539 441.228 345.347 435.552 340.99 428.328C336.633 421.104 334.454 412.905 334.454 403.732C334.454 394.673 336.575 386.532 340.818 379.308C345.175 371.969 351.081 366.293 358.534 362.28C366.102 358.152 374.53 356.088 383.818 356.088C392.877 356.088 401.075 358.037 408.414 361.936C415.753 365.835 421.486 371.453 425.614 378.792C429.857 386.016 431.978 394.444 431.978 404.076ZM383.99 376.384C377.913 376.384 372.81 378.104 368.682 381.544C364.554 384.984 362.031 389.685 361.114 395.648H406.694C405.777 389.8 403.254 385.156 399.126 381.716C394.998 378.161 389.953 376.384 383.99 376.384ZM448.466 329.6H461.194V438.992H528.618V450H448.466V329.6ZM570.555 358.84C582.366 358.84 591.424 361.821 597.731 367.784C604.038 373.632 607.191 382.347 607.191 393.928V450H595.495V435.896C592.743 440.597 588.672 444.267 583.283 446.904C578.008 449.541 571.702 450.86 564.363 450.86C554.272 450.86 546.246 448.452 540.283 443.636C534.32 438.82 531.339 432.456 531.339 424.544C531.339 416.861 534.091 410.669 539.595 405.968C545.214 401.267 554.1 398.916 566.255 398.916H594.979V393.412C594.979 385.615 592.8 379.709 588.443 375.696C584.086 371.568 577.722 369.504 569.351 369.504C563.618 369.504 558.114 370.479 552.839 372.428C547.564 374.263 543.035 376.843 539.251 380.168L533.747 371.052C538.334 367.153 543.838 364.172 550.259 362.108C556.68 359.929 563.446 358.84 570.555 358.84ZM566.255 441.228C573.135 441.228 579.04 439.68 583.971 436.584C588.902 433.373 592.571 428.787 594.979 422.824V408.032H566.599C551.119 408.032 543.379 413.421 543.379 424.2C543.379 429.475 545.386 433.66 549.399 436.756C553.412 439.737 559.031 441.228 566.255 441.228ZM678.372 358.84C686.857 358.84 694.54 360.789 701.42 364.688C708.3 368.472 713.689 373.861 717.588 380.856C721.487 387.851 723.436 395.82 723.436 404.764C723.436 413.708 721.487 421.677 717.588 428.672C713.689 435.667 708.3 441.113 701.42 445.012C694.54 448.911 686.857 450.86 678.372 450.86C670.804 450.86 663.981 449.255 657.904 446.044C651.941 442.833 647.125 438.189 643.456 432.112V450H631.76V322.376H643.972V376.728C647.756 370.88 652.572 366.465 658.42 363.484C664.383 360.388 671.033 358.84 678.372 358.84ZM677.512 440.024C683.819 440.024 689.552 438.591 694.712 435.724C699.872 432.743 703.885 428.557 706.752 423.168C709.733 417.779 711.224 411.644 711.224 404.764C711.224 397.884 709.733 391.749 706.752 386.36C703.885 380.971 699.872 376.843 694.712 373.976C689.552 370.995 683.819 369.504 677.512 369.504C671.091 369.504 665.3 370.995 660.14 373.976C655.095 376.843 651.081 380.971 648.1 386.36C645.233 391.749 643.8 397.884 643.8 404.764C643.8 411.644 645.233 417.779 648.1 423.168C651.081 428.557 655.095 432.743 660.14 435.724C665.3 438.591 671.091 440.024 677.512 440.024Z" fill="white"/>
<line x1="179" y1="496.5" x2="500" y2="496.5" stroke="white" stroke-width="3"/>
</svg>
