<svg width="120" height="155" viewBox="0 0 120 155" fill="none" xmlns="http://www.w3.org/2000/svg">
<g clip-path="url(#clip0)">
<path d="M67.2001 74.9387H99.2328C99.2328 74.9387 102.816 74.9387 102.816 71.355V69.7958C102.816 69.7958 102.816 66.2122 99.2328 66.2122H67.2001C67.2001 66.2122 63.6165 66.2122 63.6165 69.7958V71.355C63.6165 71.355 63.6165 74.9387 67.2001 74.9387Z" fill="#4AD5FF"/>
<path d="M116.718 135.616L97.5429 109.118V77.5264H69.3633L70.147 109.118L50.7756 136.432C50.7756 136.432 41.9674 150.906 59.3878 154.979H111.445C126.89 150.906 116.718 135.616 116.718 135.616ZM68.147 136.8C65.2082 141.33 61.5674 144.196 60.0245 143.192C58.4817 142.188 59.6164 137.706 62.5552 133.167C65.4939 128.637 69.1348 125.771 70.6776 126.775C72.2286 127.779 71.0939 132.269 68.147 136.8ZM79.5266 120.473C77.4858 122.669 74.9062 123.592 73.7796 122.53C72.6531 121.477 73.3878 118.849 75.4368 116.653C77.4776 114.457 80.0572 113.535 81.1837 114.596C82.3103 115.649 81.5674 118.277 79.5266 120.473Z" fill="#4AD5FF"/>
<path d="M54.2693 34.6775C45.4448 34.6775 38.2856 41.8285 38.2856 50.653C38.2856 59.4775 45.4448 66.6367 54.2693 66.6367C61.6326 66.6367 67.8285 61.6571 69.6816 54.8734H80.7346V43.4203H68.5224C65.8775 38.2285 60.4897 34.6775 54.2693 34.6775Z" fill="#4AD5FF"/>
<path d="M13.8857 52.1633C6.22041 52.1633 0 58.3837 0 66.049C0 73.7143 6.22041 79.9347 13.8857 79.9347C21.5592 79.9347 27.7714 73.7143 27.7714 66.049C27.7714 58.3837 21.5592 52.1633 13.8857 52.1633Z" fill="#4AD5FF"/>
<path d="M99.2163 33.7388C91.5428 33.7388 85.3306 39.9592 85.3306 47.6245C85.3306 55.2898 91.551 61.5102 99.2163 61.5102C106.882 61.5102 113.102 55.2898 113.102 47.6245C113.102 39.951 106.89 33.7388 99.2163 33.7388Z" fill="#4AD5FF"/>
<path d="M21.1264 34.1061C23.102 34.1061 24.9795 33.6898 26.6856 32.9388L35.2244 41.4776L42.6285 34.0735L33.9836 25.4449C34.6367 23.8286 35.0122 22.0735 35.0122 20.2204C35.0122 12.547 28.7918 6.33472 21.1264 6.33472C13.453 6.33472 7.24073 12.5551 7.24073 20.2204C7.23257 27.8857 13.453 34.1061 21.1264 34.1061Z" fill="#4AD5FF"/>
<path d="M44.5715 71.4612L40.9143 87.3061C35.8368 88.1714 31.9592 92.5795 31.9592 97.902C31.9592 103.845 36.7756 108.661 42.7184 108.661C48.6613 108.661 53.4776 103.845 53.4776 97.902C53.4776 95.2 52.4735 92.7346 50.8327 90.8489L54.7674 73.8122L44.5715 71.4612Z" fill="#4AD5FF"/>
<path d="M61.7143 21.5265C67.6571 21.5265 72.4734 16.7102 72.4734 10.7673C72.4816 4.81633 67.6653 0 61.7143 0C55.7714 0 50.9551 4.81633 50.9551 10.7592C50.9551 16.7102 55.7714 21.5265 61.7143 21.5265Z" fill="#4AD5FF"/>
</g>
<defs>
<clipPath id="clip0">
<rect width="120" height="154.98" fill="white"/>
</clipPath>
</defs>
</svg>
