<svg width="403" height="259" viewBox="0 0 403 259" fill="none" xmlns="http://www.w3.org/2000/svg">
<g clip-path="url(#clip0)">
<path d="M215.046 230.463C215.036 235.439 213.052 240.209 209.529 243.728C206.006 247.247 201.231 249.228 196.249 249.238V256.756C200.792 256.749 205.257 255.57 209.21 253.332C213.163 251.094 216.47 247.874 218.809 243.983V230.559L215.046 230.463ZM222.573 230.463C222.578 235.438 224.557 240.207 228.077 243.727C231.597 247.246 236.37 249.228 241.351 249.238V256.756C236.81 256.748 232.348 255.568 228.399 253.33C224.449 251.092 221.146 247.872 218.809 243.983V230.559L222.573 230.463ZM312.815 170.378C312.825 165.402 314.809 160.632 318.332 157.113C321.855 153.594 326.63 151.613 331.612 151.603V144.085C327.061 144.089 322.588 145.269 318.628 147.51C314.668 149.752 311.355 152.978 309.013 156.877V170.301L312.815 170.378ZM305.308 170.378C305.298 165.402 303.314 160.632 299.791 157.113C296.268 153.594 291.493 151.613 286.51 151.603V144.104C291.045 144.115 295.501 145.297 299.443 147.535C303.386 149.772 306.683 152.991 309.013 156.877V170.301L305.308 170.378ZM305.308 230.463C305.298 235.441 303.315 240.213 299.792 243.735C296.27 247.257 291.494 249.242 286.51 249.257V256.737C293.484 256.727 300.169 253.955 305.099 249.03C310.03 244.105 312.805 237.428 312.815 230.463H305.308ZM395.55 170.378C395.54 165.402 393.556 160.632 390.033 157.113C386.51 153.594 381.735 151.613 376.753 151.603V144.104C383.701 144.134 390.357 146.903 395.272 151.809C400.187 156.715 402.965 163.361 403 170.301L395.55 170.378ZM132.503 230.463C132.513 235.439 134.497 240.209 138.02 243.728C141.543 247.247 146.318 249.228 151.3 249.238V256.737C144.325 256.727 137.638 253.956 132.704 249.031C127.77 244.107 124.992 237.43 124.976 230.463H132.503ZM241.524 144.161C234.586 144.263 227.956 147.04 223.021 151.912C218.086 156.784 215.229 163.373 215.046 170.301H222.573C222.573 165.32 224.552 160.542 228.077 157.018C231.602 153.494 236.383 151.512 241.37 151.507C241.37 147.94 241.37 146.751 241.37 144.027L241.524 144.161ZM312.777 249.161H350.371V170.301H357.898V211.611H395.473V170.301H403V219.109H357.898V256.66H312.777V249.161ZM331.574 144.008H376.676V151.526H331.574V144.008ZM312.796 213.797V230.386H305.269V216.962L261.281 172.986L266.561 167.655L312.796 213.797ZM215.046 186.948V170.301H222.573V183.726L266.561 227.835L261.281 233.167L215.046 186.948ZM124.803 144.085H215.046V151.583H177.451V230.214H169.944V151.583H132.349V230.444H124.823L124.803 144.085ZM151.127 249.219H196.249V256.718H151.127V249.219ZM241.37 144.085H286.472V151.603H241.37V144.085ZM241.37 249.219H286.491V256.679H241.37V249.219Z" fill="#FDB927"/>
<path d="M345.302 82.1974V71.17C345.305 69.0415 345.794 66.9417 346.732 65.0307C347.671 63.1196 349.034 61.4478 350.717 60.1426C354.365 57.0771 359.007 55.4472 363.773 55.5591C368.523 55.4381 373.151 57.0699 376.772 60.1426C378.442 61.4565 379.791 63.1315 380.719 65.0416C381.647 66.9516 382.129 69.047 382.129 71.17V82.1974H345.302ZM401.234 71.2659C401.248 66.9403 400.273 62.6685 398.383 58.7765C396.493 54.8845 393.738 51.4751 390.328 48.8084C382.769 42.8509 373.421 39.6108 363.792 39.6108C354.164 39.6108 344.816 42.8509 337.257 48.8084C333.859 51.4927 331.12 54.916 329.246 58.8176C327.373 62.7193 326.416 66.9965 326.447 71.3235V133.307H345.283V96.0632H382.11V133.249H401.31L401.234 71.2659ZM316.751 39.5837H298.472V98.3262L222.285 39.6029V133.249H241.101V75.581L316.847 133.249L316.751 39.5837ZM183.557 108.337C176.268 114.359 167.055 117.564 157.598 117.37H141.988V55.5591H157.464C166.895 55.2777 176.102 58.4571 183.346 64.4961C186.654 67.1183 189.329 70.4498 191.173 74.2442C193.018 78.0386 193.985 82.1986 194.002 86.4166C194.082 90.6291 193.179 94.8023 191.366 98.6067C189.554 102.411 186.88 105.742 183.557 108.337ZM196.517 53.181C185.816 44.1162 172.798 39.5837 157.464 39.5837H123.248V133.556L157.809 133.326C173.323 133.25 186.431 128.66 197.132 119.556C207.833 110.453 213.087 99.3554 212.895 86.2632C212.703 73.2349 207.263 62.1947 196.575 53.1427" fill="#007EA2"/>
<path d="M32.8521 121.953C32.8521 121.953 64.4945 112.153 78.5877 114.685C64.8401 122.126 32.8521 121.915 32.8521 121.915" fill="#007EA2"/>
<path d="M44.6028 175.767C44.6028 175.767 81.0838 167.828 96.7514 171.203C80.6038 177.838 44.6028 175.767 44.6028 175.767Z" fill="#007EA2"/>
<path d="M33.1978 211.323C33.1978 211.323 79.0102 202.578 98.4796 205.57C78.1462 212.551 33.1978 211.323 33.1978 211.323Z" fill="#007EA2"/>
<path d="M53.1855 104.271C60.4049 100.915 63.0353 91.2683 59.0608 82.7533C55.0863 74.2382 46.0045 70.0382 38.7851 73.3944C31.5657 76.7505 28.9352 86.3971 32.9097 94.9122C36.8842 103.427 45.9661 107.627 53.1855 104.271Z" fill="#007EA2"/>
<path d="M49.8636 49.1343C121.174 88.7945 73.3651 142.225 73.3651 142.225C73.3651 142.225 22.7333 180.581 37.7097 259.019C4.89598 203.729 64.0528 132.904 64.0528 132.904C64.0528 132.904 109.424 92.4384 43.5467 50.4384C10.1569 28.9014 28.647 0 28.647 0C28.647 0 16.2435 26.063 49.7676 49.1343" fill="#007EA2"/>
<path d="M4.08963 67.3535C4.08963 67.3535 -22.2535 111.06 58.792 138.159C135.767 170.954 74.9972 237.329 74.9972 237.329C74.9972 237.329 158.462 183.899 76.9173 136.951C5.20326 130.085 3.95523 67.3535 3.95523 67.3535" fill="#007EA2"/>
<path d="M63.5154 71.4573V71.7833" stroke="#231F20" stroke-width="1.2"/>
</g>
<defs>
<clipPath id="clip0">
<rect width="403" height="259" fill="white"/>
</clipPath>
</defs>
</svg>
