<svg width="147" height="147" viewBox="0 0 147 147" fill="none" xmlns="http://www.w3.org/2000/svg">

<path d="M138.637 9.1875H74.054C66.5802 9.1875 60.5228 15.246 60.5228 22.7187V54.5306C63.9367 56.2275 67.6254 58.0623 71.0685 59.7737L76.3363 49.2337C79.5259 42.8601 87.3014 40.2705 93.6727 43.4545C100.058 46.6497 102.645 54.4039 99.4486 60.7898L90.0581 79.5753C90.3071 82.0617 90.0861 84.5683 89.3852 86.9941H95.5849L79.2332 131.958C78.263 134.625 80.1382 137.737 83.2819 137.737C85.0393 137.737 86.6924 136.653 87.3272 134.901L104.749 86.9941H107.767L125.366 134.916C126.006 136.658 127.655 137.737 129.411 137.737C132.348 137.737 134.502 134.803 133.451 131.947L116.942 86.9941H138.637C146.109 86.9941 152.168 80.9357 152.168 73.463V22.7187C152.168 15.246 146.109 9.1875 138.637 9.1875V9.1875ZM129.409 68.544H110.086C107.709 68.544 105.78 66.615 105.78 64.2374C105.78 61.8575 107.709 59.9307 110.086 59.9307H129.409C131.789 59.9307 133.716 61.8575 133.716 64.2374C133.716 66.615 131.789 68.544 129.409 68.544ZM129.409 52.3975H110.086C107.709 52.3975 105.78 50.4707 105.78 48.0908C105.78 45.7132 107.709 43.7842 110.086 43.7842H129.409C131.789 43.7842 133.716 45.7132 133.716 48.0908C133.716 50.4707 131.789 52.3975 129.409 52.3975ZM129.409 36.2532H83.2819C80.902 36.2532 78.9752 34.3242 78.9752 31.9465C78.9752 29.5689 80.902 27.6399 83.2819 27.6399H129.409C131.789 27.6399 133.716 29.5689 133.716 31.9465C133.716 34.3242 131.789 36.2532 129.409 36.2532Z" fill="#4AD5FF"/>
<path d="M80.9424 85.147C81.7207 82.8669 81.7151 80.4848 81.0579 78.3113L91.746 56.9374C92.8092 54.8099 91.9479 52.2225 89.8204 51.1593C87.694 50.095 85.1066 50.9574 84.0423 53.085L74.9266 71.3142C69.4782 68.6012 61.2003 64.4852 54.5317 61.1689C48.3275 58.0836 43.8997 55.3168 36.3451 55.3168H32.5398C38.4222 55.3168 43.672 52.6094 47.1084 48.3723C49.7305 45.1479 51.2984 41.0387 51.2984 36.5605C51.2984 26.1987 42.9004 17.8008 32.5376 17.8008C22.1792 17.8008 13.7812 26.1987 13.7812 36.5605C13.7812 41.5367 15.7192 46.0586 18.8808 49.4142C22.2992 53.0491 27.1543 55.3168 32.5364 55.3179C25.3206 55.3179 18.2662 58.2417 13.1913 63.33C8.01775 68.4902 5.16797 75.3651 5.16797 82.6886V96.5271C5.16797 102.485 9.03609 107.554 14.3936 109.357V133.43C14.3936 135.808 16.3215 137.736 18.7002 137.736H46.3771C48.7559 137.736 50.6838 135.808 50.6838 133.43V85.0416C54.7672 87.0827 60.1315 89.7643 64.4718 91.9356C67.5144 93.4563 71.0697 93.5932 74.2402 92.3034C77.4018 91.0025 79.8388 88.4129 80.9256 85.1975C80.9312 85.1806 80.9368 85.1638 80.9424 85.147Z" fill="#4AD5FF"/>

<rect x="0.5" y="0.5" width="146" height="146" stroke="white"/>

</svg>
