<svg width="147" height="147" viewBox="0 0 147 147" fill="none" xmlns="http://www.w3.org/2000/svg">
<path d="M35.5249 37.3624C30.6248 32.4623 9.7999 31.2374 3.06231 30.6248C2.4499 30.6248 1.83721 30.6248 1.22481 31.2372C0.612404 31.8499 0 33.0749 0 33.6874V88.8124C0 90.6499 1.2251 91.875 3.0626 91.875H21.4376C22.6627 91.875 23.8875 91.2626 24.5002 90.0375C24.5002 88.2 35.5252 55.7374 36.7503 39.8125C36.75 39.1999 36.75 37.975 35.5249 37.3624Z" fill="#4AD5FF"/>
<path d="M101.062 52.0625C94.9376 50.225 89.4251 47.7751 84.525 45.9376C73.5 41.0375 68.5999 43.4877 58.8 53.2876C54.5126 57.575 51.45 63.7002 52.0624 66.1501C52.0624 66.7625 52.0624 66.7625 53.2875 67.3752C56.3501 68.6003 60.6375 69.2127 64.9249 62.4751C65.5373 61.8627 66.15 61.25 67.3748 61.25C69.2123 61.25 69.8247 60.6376 71.6622 60.0249C72.8873 59.4125 74.1121 58.7998 75.9496 58.1874C76.562 58.1874 76.562 58.1874 77.1747 58.1874C77.7871 58.1874 79.0122 58.7998 79.6246 58.7998C82.6875 61.8627 88.2 66.1501 93.7125 71.0502C102.288 77.7878 110.862 85.1378 115.15 90.6503H115.762C111.475 78.4002 104.125 57.575 101.062 52.0625Z" fill="#4AD5FF"/>
<path d="M143.937 36.75C120.05 36.75 106.575 42.8749 105.962 42.8749C105.35 43.4873 104.737 44.1 104.125 44.7124C104.125 45.3248 104.125 46.5499 104.737 47.1623C108.412 53.2872 120.662 86.9749 122.5 95.5497C123.112 96.7748 124.337 97.9996 125.562 97.9996H143.937C145.775 97.9996 147 96.7745 147 94.937V39.812C147 37.9751 145.775 36.75 143.937 36.75Z" fill="#4AD5FF"/>
<path d="M110.862 96.775C108.413 91.2625 97.9999 83.3001 88.8124 75.9501C83.9126 71.6624 79.0125 67.9874 75.3375 64.9248C74.7251 65.5372 73.5 65.5372 73.5 66.1499C71.6625 66.7623 71.0501 67.375 68.5999 67.375C63.7001 73.4999 57.5749 75.9498 50.8376 73.4999C47.775 72.8875 45.9375 70.4373 45.3251 67.9874C44.1 61.8625 49.6125 53.2874 53.9002 49H41.6501C39.2002 61.2501 34.9125 77.1749 31.8502 85.75C34.3001 88.1999 36.7503 91.2625 38.5878 92.4876C50.2252 102.288 63.7004 112.088 66.1503 113.925C67.9878 115.15 71.6628 116.375 73.5003 116.375C74.1127 116.375 74.7254 116.375 75.3378 116.375L65.5376 106.575C64.3125 105.35 64.3125 103.512 65.5376 102.288C66.7627 101.063 68.6002 101.062 69.825 102.288L82.0751 114.538C83.3002 115.763 84.525 115.15 85.7501 115.15C87.5876 114.538 88.2 113.313 88.8127 111.475L74.7251 97.3874C73.5 96.1623 73.5 94.3248 74.7251 93.1C75.9502 91.8752 77.7877 91.8749 79.0125 93.1L94.3249 108.412C94.9373 109.025 97.3875 109.025 99.225 108.412C99.8374 107.8 101.063 107.187 101.675 105.963L84.525 88.8123C83.2999 87.5872 83.2999 85.7497 84.525 84.5249C85.7501 83.3001 87.5876 83.2998 88.8124 84.5249L106.575 102.288C107.8 102.9 109.025 102.288 110.25 101.675C110.862 101.062 112.088 99.2249 110.862 96.775Z" fill="#4AD5FF"/>
</svg>
