<svg width="147" height="147" viewBox="0 0 147 147" fill="none" xmlns="http://www.w3.org/2000/svg">
<path d="M73.584 118.17C87.5223 118.17 98.862 106.83 98.862 92.891C98.862 78.9527 87.5223 67.613 73.584 67.613C59.6446 67.613 48.3049 78.9527 48.3049 92.891C48.3049 106.83 59.6446 118.17 73.584 118.17ZM58.6925 88.913C60.3546 87.2497 63.0496 87.2497 64.7128 88.913L70.2688 94.469L82.4552 82.2825C84.1185 80.6204 86.8135 80.6204 88.4756 82.2825C90.1377 83.9446 90.1377 86.6396 88.4756 88.3029L73.279 103.499C72.4804 104.298 71.3982 104.745 70.2688 104.745C69.1394 104.745 68.0572 104.298 67.2586 103.499L58.6925 94.9322C57.0304 93.2701 57.0304 90.5751 58.6925 88.913Z" fill="#4AD5FF"/>
<path d="M3.1582 133.233C3.1582 140.824 9.33442 147 16.9249 147H130.241C137.832 147 144.008 140.824 144.008 133.233V47.2957H3.1582V133.233ZM73.5841 59.0997C92.2171 59.0997 107.376 74.2581 107.376 92.8911C107.376 111.524 92.2171 126.684 73.5841 126.684C54.9512 126.684 39.7916 111.524 39.7916 92.8911C39.7916 74.2581 54.9512 59.0997 73.5841 59.0997Z" fill="#4AD5FF"/>
<path d="M144.007 38.7822V25.6683C144.007 18.0767 137.832 11.9016 130.24 11.9016H122.479V19.547C122.479 21.9 120.571 23.8032 118.222 23.8032C115.87 23.8032 113.966 21.9 113.966 19.547V11.9016H105.599V19.547C105.599 21.9 103.696 23.8032 101.343 23.8032C98.9934 23.8032 97.0857 21.9 97.0857 19.547V11.9016H50.0827V19.547C50.0827 21.9 48.1762 23.8032 45.8266 23.8032C43.4736 23.8032 41.5693 21.9 41.5693 19.547V11.9016H33.2038V19.547C33.2038 21.9 31.2961 23.8032 28.9466 23.8032C26.597 23.8032 24.6904 21.9 24.6904 19.547V11.9016H16.9261C9.33452 11.9016 3.15942 18.0767 3.15942 25.6683V38.7822H144.007Z" fill="#4AD5FF"/>
<path d="M122.479 4.25617C122.479 1.90659 120.571 0 118.222 0C115.87 0 113.966 1.90659 113.966 4.25617V11.9016H122.479V4.25617Z" fill="#4AD5FF"/>
<path d="M105.599 4.25617C105.599 1.90659 103.696 0 101.343 0C98.9934 0 97.0857 1.90659 97.0857 4.25617V11.9016H105.599V4.25617Z" fill="#4AD5FF"/>
<path d="M50.0826 4.25617C50.0826 1.90659 48.176 0 45.8264 0C43.4734 0 41.5691 1.90659 41.5691 4.25617V11.9016H50.0826V4.25617Z" fill="#4AD5FF"/>
<path d="M33.2037 4.25617C33.2037 1.90659 31.2959 0 28.9464 0C26.5968 0 24.6902 1.90659 24.6902 4.25617V11.9016H33.2037V4.25617Z" fill="#4AD5FF"/>
</svg>
