<svg width="100" height="120" viewBox="0 0 100 120" fill="none" xmlns="http://www.w3.org/2000/svg">
<path d="M76.6159 27.4453H59.7829C53.9368 27.4453 49.0602 22.3514 49.0602 16.2079V0.123489C49.0602 0.0926164 49.2071 0 49.2071 0H4.67125H4.64188C2.0567 0.0308721 -0.0290705 2.25367 0.000306554 4.97042V98.2969C0.000306554 98.3278 0.000306554 98.3895 0.000306554 98.4204C0.0590606 101.075 2.14483 103.175 4.67125 103.113H61.3983V92.246H61.3689C59.5475 92.4003 57.7849 91.5359 56.7273 89.9614C55.6404 88.3869 55.4054 86.3803 56.1104 84.5897L57.7849 80.2058L53.9953 77.7052C53.2902 77.2421 52.7321 76.6555 52.2914 75.9146C50.7344 73.3213 51.4982 69.8945 53.9953 68.2583L57.7849 65.7577L56.1104 61.3738C55.7873 60.602 55.6698 59.7376 55.7285 58.904C55.9342 55.8477 58.49 53.5323 61.3983 53.7484L65.8636 54.0571L66.9506 49.488C67.1268 48.6545 67.5087 47.8827 68.0375 47.2344C69.9176 44.919 73.2372 44.6102 75.4405 46.5861L76.645 47.6975V27.3218C76.645 27.3218 76.645 27.4453 76.6159 27.4453Z" fill="#4AD4FF"/>
<path d="M87.4263 100.458C86.8975 100.643 86.3394 100.736 85.7812 100.736C84.5474 100.736 83.3429 100.273 82.4029 99.4392L78.9364 96.3828L75.4992 99.4083C74.0598 100.643 72.1503 101.044 70.3876 100.427C69.0363 99.964 67.92 98.9452 67.2737 97.6177V120L76.8506 110.461C77.9963 109.318 79.7883 109.318 80.934 110.461L90.4815 120V97.6486C89.8646 99.0069 88.7777 99.9948 87.4263 100.458Z" fill="#4AD4FF"/>
<path d="M54.9355 3.24146V16.2386C54.9943 19.0171 57.1388 21.2399 59.7828 21.3017H73.5312L54.9355 3.24146Z" fill="#4AD4FF"/>
<path d="M94.8883 76.3467L99.9999 72.9817L94.8883 69.6166C93.6839 68.8139 93.1845 67.2394 93.7133 65.8502L96.0047 59.9536L89.9824 60.3858C88.5723 60.4785 87.2797 59.4905 86.9272 58.0396L85.4583 51.896L82.9906 54.0879L80.8461 55.9711C79.7298 56.9282 78.1434 56.9282 77.0565 55.9711L72.4443 51.896L70.9754 58.0396C70.6229 59.5214 69.3303 60.4785 67.9202 60.3858L61.8979 59.9536L64.16 65.8502C64.6888 67.2394 64.1893 68.8139 62.9849 69.6166L57.8733 72.9817L62.9555 76.3776C64.16 77.1494 64.6594 78.7548 64.1306 80.144L61.8686 86.0097L67.8909 85.5775C69.301 85.4849 70.5935 86.4728 70.9461 87.9238L72.4149 94.0673L77.0271 89.9922C78.1141 89.0352 79.7298 89.0352 80.8167 89.9922L85.4289 94.0673L86.8978 87.8929C87.2503 86.4419 88.5429 85.454 89.953 85.5466L95.9753 85.9788L93.7133 80.1131C93.1842 78.7239 93.6836 77.1494 94.8883 76.3467ZM78.966 85.6392C72.3268 85.6392 66.9214 79.9896 66.9214 73.0125C66.9214 66.0354 72.2974 60.355 78.9366 60.355C85.5758 60.355 90.9518 66.0046 90.9812 73.0125C90.9809 79.9896 85.6049 85.6392 78.966 85.6392Z" fill="#4AD4FF"/>
<path d="M78.9661 66.5295C75.5583 66.5295 72.7969 69.4006 72.7969 72.9818C72.7969 76.563 75.5289 79.465 78.9367 79.465C82.3444 79.465 85.0765 76.563 85.1059 73.0127C85.1056 69.4315 82.3735 66.5295 78.9661 66.5295Z" fill="#4AD4FF"/>
</svg>

