<svg width="120" height="112" viewBox="0 0 120 112" fill="none" xmlns="http://www.w3.org/2000/svg">
<g clip-path="url(#clip0)">
<path d="M45.6808 50.9561C59.7509 50.9643 71.1589 39.5563 71.167 25.4862C71.1752 11.4161 59.7672 0.00817042 45.6972 4.38132e-06C31.6271 -0.00816166 20.2191 11.3998 20.2109 25.4699V25.4781C20.2109 39.5481 31.6107 50.9479 45.6808 50.9561Z" fill="#4AD4FF"/>
<path d="M61.6618 57.2765C53.7489 57.2765 52.524 67.3779 52.524 67.3779C52.524 67.3779 47.461 82.4116 39.8666 67.3779C36.8615 58.3952 11.0732 46.6525 0 74.9723V92.0638H61.7026L73.4046 74.9723V57.252L61.6618 57.2765ZM30.9656 80.1414H9.44811V72.8655H30.9656V80.1414Z" fill="#4AD4FF"/>
<path d="M102.508 37.3679H79.7251V46.8569H102.508V37.3679Z" fill="#4AD4FF"/>
<path d="M113.075 111.883C125.569 108.715 117.346 96.8493 117.346 96.8493L101.831 76.2872V51.7891H79.0637L79.6925 76.2872L64.03 97.5189C64.03 97.5189 56.9092 108.747 70.9875 111.916L113.075 111.883Z" fill="#4AD4FF"/>
</g>
<defs>
<clipPath id="clip0">
<rect width="120" height="111.916" fill="white"/>
</clipPath>
</defs>
</svg>
