<svg width="120" height="113" viewBox="0 0 120 113" fill="none" xmlns="http://www.w3.org/2000/svg">
<g clip-path="url(#clip0)">
<path d="M0 55.4927L3.4449 13.3213C3.4449 13.3213 1.72245 11.4111 12.4408 22.3172C81.151 -32.9971 113.69 30.1621 120 44.5131C98.1796 18.4805 52.4408 8.72537 32.5306 42.2192C35.4041 45.2805 41.3388 51.4029 41.3388 51.4029L0 55.4927Z" fill="#4AD5FF"/>
<path d="M120 57.1577L116.555 99.3291C116.555 99.3291 118.278 101.239 107.559 90.3332C38.849 145.648 6.31837 82.4883 0 68.1373C21.8204 94.17 67.5592 103.925 87.4694 70.4312C84.5959 67.37 78.6694 61.2475 78.6694 61.2475L120 57.1577Z" fill="#4AD5FF"/>
</g>
<defs>
<clipPath id="clip0">
<rect width="120" height="112.653" fill="white"/>
</clipPath>
</defs>
</svg>
