<svg width="242" height="270" viewBox="0 0 242 270" fill="none" xmlns="http://www.w3.org/2000/svg">
<path d="M71.06 226.45L68.36 222.48L86.38 210.25L89.08 214.22L71.06 226.45ZM56.11 215.23L52.9 170.71L40.77 170L41.05 165.21L52.55 165.88L51.09 145.71L34.73 157.04L32 153.09L50.69 140.15L48.15 104.97L52.94 104.62L55.28 136.97L78.42 120.95L56.22 100.74L59.45 97.19L82.47 118.14L100.88 105.4L84.86 40.85L89.52 39.69L105.1 102.47L119.98 92.17L122.71 96.12L106.34 107.46L113.82 137.59L109.16 138.75L102.12 110.39L86.12 121.47L105.63 139.23L102.4 142.78L82.07 124.28L55.69 142.54L57.4 166.17L83.53 167.7L83.25 172.49L57.75 170.99L60.92 214.88L56.11 215.23ZM176.09 162.58L174.79 157.96L204.45 149.63L205.75 154.25L176.09 162.58ZM27.08 150.85L22.51 149.39L36.65 105.29L41.22 106.75L27.08 150.85ZM160.07 143.98L156.03 141.39L177.09 108.56L149.12 88.59L151.91 84.68L179.68 104.51L199.79 73.16L203.83 75.75L183.59 107.3L205.62 123.03L202.83 126.94L181 111.36L160.07 143.98ZM134.24 134.28L129.44 134.18L130.22 97.13L135.02 97.23L134.24 134.28Z" fill="#8A8C8E"/>
<path d="M82.15 43.42C81.58 43.42 81.02 43.4 80.44 43.35C68.58 42.42 59.69 32.01 60.63 20.15C61.56 8.29001 71.97 -0.589998 83.83 0.340002C95.69 1.27 104.58 11.68 103.64 23.54C102.75 34.82 93.28 43.42 82.15 43.42ZM82.12 5.55001C73.71 5.55001 66.56 12.04 65.89 20.56C65.19 29.52 71.9 37.38 80.85 38.08C89.8 38.78 97.66 32.07 98.37 23.12C99.07 14.16 92.36 6.31 83.41 5.6C82.97 5.57 82.54 5.55001 82.12 5.55001Z" fill="#93C13E"/>
<path d="M42.48 108.55C41.91 108.55 41.33 108.53 40.75 108.48C35.01 108.03 29.78 105.37 26.04 100.98C22.3 96.6 20.49 91.02 20.94 85.28C21.39 79.54 24.05 74.31 28.44 70.57C32.82 66.83 38.4 65.02 44.14 65.47C49.88 65.92 55.11 68.58 58.85 72.97C62.59 77.35 64.4 82.93 63.95 88.67C63.5 94.41 60.84 99.64 56.45 103.38C52.52 106.75 47.61 108.55 42.48 108.55ZM42.42 70.68C38.55 70.68 34.84 72.04 31.86 74.58C28.55 77.41 26.54 81.35 26.2 85.69C25.86 90.03 27.23 94.24 30.05 97.55C32.87 100.86 36.82 102.87 41.16 103.21C45.5 103.55 49.71 102.18 53.02 99.36C56.33 96.53 58.34 92.59 58.68 88.25C59.02 83.91 57.65 79.7 54.83 76.39C52 73.08 48.06 71.07 43.72 70.73C43.29 70.7 42.86 70.68 42.42 70.68Z" fill="#0C71B7"/>
<path d="M133.99 100.4C133.42 100.4 132.84 100.38 132.26 100.33C126.52 99.88 121.29 97.22 117.55 92.83C113.81 88.45 112 82.87 112.45 77.13C113.38 65.27 123.79 56.39 135.65 57.32C147.51 58.25 156.4 68.66 155.46 80.52C155.01 86.26 152.34 91.49 147.96 95.23C144.02 98.59 139.12 100.39 133.99 100.4ZM133.94 62.53C125.53 62.53 118.38 69.02 117.71 77.54C117.37 81.88 118.74 86.09 121.56 89.4C124.38 92.71 128.33 94.72 132.67 95.06C137.02 95.41 141.22 94.03 144.53 91.21C147.84 88.38 149.85 84.44 150.19 80.1C150.89 71.14 144.18 63.28 135.23 62.58C134.8 62.55 134.37 62.53 133.94 62.53Z" fill="#652B82"/>
<path d="M211.1 80.02C210.53 80.02 209.95 80 209.37 79.95C203.62 79.5 198.4 76.84 194.66 72.45C190.92 68.07 189.11 62.49 189.56 56.75C190.01 51.01 192.67 45.78 197.06 42.04C201.44 38.3 207.02 36.49 212.76 36.94C224.62 37.87 233.51 48.28 232.57 60.14C232.12 65.88 229.46 71.11 225.07 74.85C221.13 78.21 216.23 80.02 211.1 80.02ZM211.04 42.15C207.17 42.15 203.46 43.51 200.48 46.05C197.17 48.88 195.16 52.82 194.82 57.16C194.48 61.5 195.85 65.71 198.67 69.02C201.5 72.33 205.44 74.34 209.78 74.68C214.11 75.02 218.33 73.65 221.64 70.83C224.95 68 226.96 64.06 227.3 59.72C228 50.76 221.29 42.91 212.34 42.2C211.91 42.17 211.47 42.15 211.04 42.15Z" fill="#ED2125"/>
<path d="M219.68 160.46C219.12 160.46 218.55 160.44 217.97 160.39C212.22 159.94 207 157.28 203.26 152.89C199.52 148.51 197.71 142.93 198.16 137.19C198.61 131.45 201.27 126.22 205.66 122.48C210.04 118.74 215.63 116.93 221.36 117.38C233.22 118.31 242.11 128.72 241.17 140.58C240.28 151.87 230.81 160.46 219.68 160.46ZM218.38 155.13C227.33 155.83 235.19 149.12 235.9 140.17C236.6 131.21 229.89 123.36 220.94 122.65C216.61 122.31 212.39 123.68 209.08 126.5C205.77 129.33 203.76 133.27 203.42 137.61C203.08 141.95 204.45 146.16 207.27 149.47C210.09 152.78 214.05 154.79 218.38 155.13Z" fill="#312F82"/>
<path d="M22.31 191.43C21.74 191.43 21.16 191.41 20.58 191.36C14.84 190.91 9.60999 188.25 5.86999 183.86C2.12999 179.48 0.32 173.9 0.77 168.16C1.22 162.42 3.88 157.19 8.27 153.45C12.65 149.71 18.23 147.9 23.97 148.35C35.83 149.28 44.72 159.69 43.78 171.55C43.33 177.29 40.67 182.52 36.28 186.26C32.35 189.62 27.44 191.43 22.31 191.43ZM22.25 153.56C18.38 153.56 14.67 154.92 11.7 157.46C8.38999 160.29 6.37999 164.23 6.03999 168.57C5.69999 172.91 7.06999 177.12 9.88999 180.43C12.72 183.74 16.66 185.75 21 186.09C25.34 186.43 29.55 185.06 32.86 182.24C36.17 179.41 38.18 175.47 38.52 171.13C39.22 162.17 32.51 154.31 23.56 153.61C23.12 153.58 22.68 153.56 22.25 153.56Z" fill="#EFBA4B"/>
<path d="M53.1 255.51C52.53 255.51 51.95 255.49 51.37 255.44C39.51 254.51 30.62 244.1 31.56 232.24C32.01 226.49 34.67 221.27 39.06 217.53C43.44 213.79 49.02 211.97 54.76 212.43C66.62 213.36 75.51 223.77 74.57 235.63C74.12 241.38 71.46 246.6 67.07 250.34C63.14 253.71 58.23 255.51 53.1 255.51ZM53.04 217.64C49.17 217.64 45.46 219 42.49 221.54C39.18 224.37 37.17 228.31 36.83 232.65C36.13 241.61 42.84 249.47 51.79 250.17C56.13 250.51 60.34 249.14 63.65 246.32C66.96 243.49 68.97 239.55 69.31 235.21C70.01 226.25 63.3 218.39 54.35 217.69C53.91 217.66 53.47 217.64 53.04 217.64Z" fill="#D75229"/>
<path d="M98.61 218.63C117.29 236.99 147.31 236.72 165.67 218.04C184.03 199.36 183.76 169.34 165.09 150.98C146.41 132.62 116.39 132.89 98.03 151.56C79.69 170.25 79.96 200.25 98.61 218.63ZM175.69 235.7L203.55 263.07C204.65 264.15 206.41 264.13 207.5 263.04L211.41 259.06C212.49 257.96 212.47 256.2 211.38 255.12L183.52 227.75C182.41 226.71 180.67 226.72 179.58 227.79L175.67 231.77C174.57 232.86 174.59 234.62 175.69 235.7ZM94.05 147.65C114.52 126.76 148.05 126.42 168.95 146.89C189.11 166.65 190.24 198.74 171.51 219.85L175.59 223.86C178.83 220.56 184.13 220.52 187.42 223.76L215.28 251.13C218.58 254.37 218.62 259.67 215.38 262.97L211.47 266.95C208.23 270.24 202.93 270.29 199.64 267.05L171.78 239.67C168.48 236.43 168.44 231.13 171.68 227.84L167.6 223.83C146.07 243.63 112.56 242.23 92.76 220.7C73.63 199.91 74.2 167.76 94.05 147.65Z" fill="#0C71B7"/>
<path d="M131.72 225.15C109.58 225.15 91.48 207.24 91.28 185.06C91.09 162.76 109.07 144.46 131.37 144.27C131.49 144.27 131.61 144.27 131.73 144.27C153.87 144.27 171.97 162.18 172.16 184.36C172.36 206.66 154.37 224.96 132.08 225.15C131.96 225.15 131.84 225.15 131.72 225.15ZM131.73 150.27C131.63 150.27 131.53 150.27 131.43 150.27C112.44 150.44 97.13 166.02 97.29 185.01C97.45 203.9 112.87 219.15 131.73 219.15C131.83 219.15 131.93 219.15 132.03 219.15C151.02 218.98 166.33 203.4 166.17 184.41C166 165.52 150.58 150.27 131.73 150.27Z" fill="#0C71B7"/>
</svg>
