<svg width="328" height="314" viewBox="0 0 328 314" fill="none" xmlns="http://www.w3.org/2000/svg">
<path d="M120.44 250.872L120.861 251.491L121.481 251.071L139.501 238.841L140.122 238.419L139.7 237.798L137 233.828L136.579 233.209L135.959 233.629L117.939 245.859L117.318 246.281L117.74 246.902L120.44 250.872ZM105.362 239.284L105.416 240.033L106.164 239.978L110.974 239.628L111.722 239.574L111.668 238.826L108.56 195.789L133.206 197.239L133.955 197.283L133.999 196.534L134.279 191.744L134.322 190.995L133.574 190.951L108.101 189.46L106.469 166.913L132.006 149.236L151.895 167.335L152.45 167.84L152.955 167.285L156.185 163.735L156.689 163.18L156.135 162.675L137.322 145.55L151.654 135.625L158.432 162.931L158.613 163.659L159.341 163.478L164.001 162.318L164.729 162.137L164.548 161.409L157.193 131.782L173.137 120.737L173.753 120.31L173.327 119.694L170.597 115.744L170.17 115.126L169.553 115.553L155.566 125.235L140.248 63.5094L140.067 62.7809L139.339 62.9622L134.679 64.1222L133.952 64.3033L134.132 65.0307L150.027 129.078L132.534 141.184L109.955 120.635L109.4 120.13L108.895 120.685L105.665 124.235L105.161 124.79L105.715 125.295L127.218 144.87L105.933 159.606L103.688 128.566L103.634 127.817L102.885 127.872L98.0954 128.222L97.348 128.277L97.402 129.024L99.9111 163.777L81.5731 176.473L80.957 176.9L81.383 177.516L84.113 181.466L84.5399 182.084L85.157 181.657L100.437 171.075L101.74 189.082L91.0936 188.461L90.3451 188.418L90.3013 189.166L90.0213 193.956L89.9775 194.705L90.7262 194.749L102.199 195.42L105.362 239.284ZM225.368 186.783L225.571 187.505L226.293 187.302L255.953 178.972L256.675 178.769L256.472 178.047L255.172 173.427L254.969 172.705L254.247 172.908L224.587 181.238L223.865 181.441L224.068 182.163L225.368 186.783ZM76.8518 175.564L77.5655 175.792L77.7942 175.079L91.9342 130.979L92.1634 130.264L91.4483 130.036L86.8783 128.576L86.1646 128.348L85.9358 129.061L71.7958 173.161L71.5666 173.876L72.2818 174.104L76.8518 175.564ZM210.296 169.016L210.701 168.385L231.206 136.428L252.394 151.55L253.005 151.986L253.441 151.376L256.231 147.466L256.666 146.855L256.056 146.42L234.607 131.104L254.461 100.155L254.866 99.5235L254.235 99.1186L250.195 96.5286L249.564 96.1239L249.159 96.7551L229.474 127.442L202.346 108.07L201.735 107.634L201.3 108.244L198.509 112.154L198.074 112.765L198.684 113.2L226.073 132.756L205.399 164.985L204.994 165.617L205.625 166.021L209.665 168.611L210.296 169.016ZM184.224 159.03L184.974 159.045L184.99 158.296L185.77 121.246L185.786 120.496L185.036 120.48L180.236 120.38L179.486 120.365L179.47 121.114L178.69 158.164L178.674 158.914L179.424 158.93L184.224 159.03Z" fill="#F9F9F9" stroke="#F9F9F9" stroke-width="1.5"/>
<path d="M109.882 44.0914C108.91 56.3634 118.107 67.1337 130.379 68.0975C130.982 68.1494 131.563 68.17 132.15 68.17C143.668 68.17 153.467 59.2723 154.388 47.599C155.36 35.3259 146.162 24.5547 133.889 23.5923C121.617 22.63 110.845 31.8176 109.882 44.0914ZM130.909 61.3323C122.372 60.6647 115.97 53.1664 116.638 44.6184C117.277 36.4924 124.098 30.3 132.12 30.3C132.516 30.3 132.926 30.3188 133.355 30.348C141.89 31.0274 148.29 38.5157 147.622 47.0616C146.945 55.5984 139.446 62 130.909 61.3323Z" fill="#F9F9F9" stroke="#F9F9F9" stroke-width="1.5"/>
<path d="M77.9532 93.9995C73.4114 97.8691 70.6579 103.283 70.1924 109.221C69.7269 115.159 71.6003 120.935 75.4692 125.466C79.3382 130.008 84.7518 132.761 90.689 133.228C91.2932 133.279 91.8939 133.3 92.4801 133.3C97.788 133.3 102.871 131.437 106.937 127.95C111.479 124.081 114.232 118.666 114.698 112.729C115.163 106.791 113.29 101.014 109.42 96.483C105.551 91.9413 100.137 89.1878 94.1987 88.7223C88.2609 88.2568 82.4846 90.1303 77.9532 93.9995ZM77.9532 93.9995C77.9534 93.9994 77.9535 93.9992 77.9537 93.9991L78.4401 94.57M77.9532 93.9995C77.9532 93.9996 77.9531 93.9996 77.9531 93.9996L78.4401 94.57M78.4401 94.57C74.0501 98.31 71.3901 103.54 70.9401 109.28C70.4901 115.02 72.3001 120.6 76.0401 124.98L78.4401 94.57ZM82.3472 99.1503C85.1916 96.7261 88.7289 95.43 92.4201 95.43C92.8364 95.43 93.2471 95.4489 93.6647 95.4779C97.8043 95.8031 101.559 97.7187 104.26 100.877C106.951 104.036 108.257 108.05 107.932 112.191C107.608 116.332 105.692 120.089 102.533 122.79C99.3739 125.481 95.3601 126.787 91.2187 126.462C87.0767 126.138 83.3113 124.221 80.621 121.064C77.9295 117.904 76.6233 113.89 76.9478 109.749C77.2722 105.608 79.1881 101.851 82.3472 99.1503Z" fill="#F9F9F9" stroke="#F9F9F9" stroke-width="1.5"/>
<path d="M183.99 125.15H183.992C189.299 125.14 194.371 123.276 198.447 119.801L198.447 119.8C202.978 115.931 205.742 110.518 206.208 104.579C207.18 92.3057 197.982 81.5347 185.709 80.5723C173.437 79.61 162.665 88.7977 161.702 101.071L162.45 101.13L161.702 101.071C161.237 107.009 163.11 112.785 166.979 117.316C170.848 121.858 176.262 124.611 182.199 125.078C182.803 125.129 183.404 125.15 183.99 125.15ZM182.73 118.312L182.729 118.312C178.587 117.988 174.821 116.071 172.131 112.914C169.439 109.754 168.133 105.74 168.458 101.599C169.097 93.4725 175.918 87.28 183.94 87.28C184.346 87.28 184.757 87.2989 185.175 87.328C193.709 87.9972 200.11 95.4946 199.442 104.042C199.118 108.183 197.202 111.939 194.043 114.64C190.883 117.332 186.879 118.646 182.73 118.312Z" fill="#F9F9F9" stroke="#F9F9F9" stroke-width="1.5"/>
<path d="M246.573 65.4695C242.031 69.3391 239.278 74.7534 238.812 80.6914C238.347 86.629 240.22 92.4051 244.089 96.9364C247.958 101.478 253.361 104.231 259.309 104.698C259.913 104.749 260.514 104.77 261.1 104.77C266.41 104.77 271.482 102.896 275.557 99.4207C280.099 95.5511 282.852 90.1367 283.318 84.1986C284.29 71.9257 275.092 61.1547 262.819 60.1923L262.76 60.9399L262.819 60.1923C256.881 59.7268 251.104 61.6003 246.573 65.4695ZM246.573 65.4695C246.573 65.4694 246.573 65.4692 246.574 65.4691L247.06 66.04M246.573 65.4695C246.573 65.4695 246.573 65.4696 246.573 65.4696L247.06 66.04M247.06 66.04C242.67 69.78 240.01 75.01 239.56 80.75C239.11 86.49 240.92 92.07 244.66 96.45L282.57 84.14C283.51 72.28 274.62 61.87 262.76 60.94C257.02 60.49 251.44 62.3 247.06 66.04ZM259.839 97.9323L259.839 97.9323C255.697 97.6079 251.941 95.692 249.24 92.5329C246.549 89.3738 245.243 85.36 245.568 81.2186C245.892 77.0775 247.808 73.3214 250.967 70.6203C253.811 68.1961 257.349 66.9 261.04 66.9C261.446 66.9 261.867 66.9189 262.284 66.9479C270.82 67.627 277.22 75.1155 276.552 83.6616C276.228 87.8026 274.312 91.5586 271.153 94.2597C267.994 96.9507 263.97 98.2567 259.839 97.9323Z" fill="#F9F9F9" stroke="#F9F9F9" stroke-width="1.5"/>
<path d="M255.173 145.91C250.631 149.779 247.878 155.193 247.412 161.131C246.947 167.069 248.82 172.845 252.689 177.376C256.558 181.918 261.961 184.671 267.909 185.138C268.513 185.189 269.103 185.21 269.68 185.21C281.198 185.21 290.997 176.323 291.918 164.639C292.89 152.366 283.692 141.595 271.419 140.632C265.491 140.167 259.705 142.04 255.173 145.91ZM255.173 145.91C255.173 145.909 255.174 145.909 255.174 145.909L255.66 146.48M255.173 145.91C255.173 145.91 255.173 145.91 255.173 145.91L255.66 146.48M255.66 146.48C251.27 150.22 248.61 155.45 248.16 161.19C247.71 166.93 249.52 172.51 253.26 176.89L255.66 146.48ZM270.881 147.398C279.418 148.075 285.82 155.564 285.152 164.112C284.475 172.648 276.976 179.05 268.439 178.382C264.306 178.058 260.531 176.141 257.841 172.984C255.149 169.824 253.843 165.81 254.168 161.669C254.492 157.528 256.408 153.772 259.567 151.071C262.726 148.379 266.749 147.073 270.881 147.398Z" fill="#F9F9F9" stroke="#F9F9F9" stroke-width="1.5"/>
<path d="M57.7832 176.88C53.2414 180.749 50.4879 186.163 50.0223 192.101C49.5568 198.039 51.4302 203.815 55.2991 208.346C59.1682 212.888 64.5817 215.641 70.519 216.107C71.1231 216.159 71.7239 216.18 72.31 216.18C77.6192 216.18 82.7019 214.306 86.7674 210.83C91.3089 206.961 94.0622 201.546 94.5277 195.609C95.5001 183.336 86.3016 172.565 74.0287 171.602L73.9701 172.35L74.0287 171.602C68.0908 171.137 62.3146 173.01 57.7832 176.88ZM57.7832 176.88C57.7833 176.879 57.7835 176.879 57.7837 176.879L58.27 177.45M57.7832 176.88C57.7831 176.88 57.7831 176.88 57.783 176.88L58.27 177.45M58.27 177.45C53.88 181.19 51.22 186.42 50.77 192.16C50.32 197.9 52.13 203.48 55.87 207.86L93.78 195.55C94.72 183.69 85.83 173.28 73.97 172.35C68.23 171.9 62.65 173.71 58.27 177.45ZM62.1874 182.03L62.1875 182.03C65.0213 179.606 68.5584 178.31 72.25 178.31C72.6564 178.31 73.0771 178.329 73.5053 178.358C82.0395 179.028 88.44 186.525 87.7723 195.072C87.4479 199.213 85.532 202.969 82.3729 205.67C79.2139 208.361 75.2 209.667 71.0586 209.342C66.9176 209.018 63.1614 207.102 60.4603 203.943C57.7692 200.784 56.4633 196.77 56.7877 192.629C57.1122 188.487 59.0281 184.731 62.1874 182.03Z" fill="#F9F9F9" stroke="#F9F9F9" stroke-width="1.5"/>
<path d="M87.5777 256.709C87.9021 252.567 89.8181 248.811 92.9774 246.11L92.9775 246.11C95.8113 243.686 99.3483 242.39 103.04 242.39C103.446 242.39 103.867 242.409 104.295 242.438C112.83 243.108 119.23 250.605 118.562 259.152C118.238 263.293 116.322 267.049 113.163 269.75C110.004 272.441 105.99 273.747 101.849 273.422L101.848 273.422C93.3124 272.755 86.9099 265.257 87.5777 256.709ZM87.5777 256.709L86.83 256.65M87.5777 256.709L86.83 256.65M86.83 256.65C87.17 252.31 89.18 248.37 92.49 245.54L101.79 274.17C92.84 273.47 86.13 265.61 86.83 256.65ZM88.5731 240.96C84.0316 244.829 81.2779 250.233 80.8123 256.181C79.8399 268.453 89.037 279.224 101.309 280.187C101.913 280.239 102.514 280.26 103.1 280.26C108.408 280.26 113.491 278.397 117.557 274.91C122.099 271.041 124.852 265.637 125.318 259.689C126.29 247.416 117.092 236.645 104.819 235.682C98.8799 235.207 93.1036 237.091 88.5731 240.96ZM88.5731 240.96C88.5733 240.959 88.5735 240.959 88.5736 240.959L89.06 241.53L88.573 240.96C88.573 240.96 88.5731 240.96 88.5731 240.96Z" fill="#F9F9F9" stroke="#F9F9F9" stroke-width="1.5"/>
<path d="M226.216 259.165L226.215 259.165C225.409 258.373 225.4 257.094 226.198 256.303L226.198 256.303L226.205 256.296L230.11 252.321C230.908 251.541 232.183 251.531 233.001 252.292C233.003 252.294 233.005 252.295 233.007 252.297L260.852 279.653C260.852 279.653 260.853 279.653 260.853 279.654C261.651 280.445 261.663 281.731 260.875 282.534C260.875 282.534 260.875 282.535 260.875 282.535L256.97 286.51C256.969 286.51 256.968 286.511 256.968 286.512C256.164 287.313 254.877 287.322 254.076 286.535C254.076 286.535 254.075 286.535 254.075 286.535L226.216 259.165ZM217.58 248.861L220.641 251.87C217.628 255.473 217.839 260.852 221.254 264.205C221.254 264.205 221.254 264.205 221.255 264.205L249.114 291.584C252.7 295.116 258.475 295.06 262.004 291.476L262.005 291.476L265.915 287.496L265.915 287.495C269.444 283.901 269.402 278.126 265.806 274.595C265.806 274.595 265.805 274.595 265.805 274.595L237.946 247.226C234.541 243.872 229.159 243.743 225.602 246.82L222.541 243.811C241.046 222.398 239.75 190.227 219.475 170.354L219.475 170.354C198.279 149.595 164.275 149.939 143.515 171.124C123.385 191.519 122.807 224.123 142.208 245.208C162.127 266.867 195.728 268.438 217.58 248.861ZM215.135 241.514C197.065 259.899 167.52 260.165 149.136 242.095C130.781 224.006 130.515 194.48 148.565 176.086C166.635 157.711 196.18 157.445 214.564 175.515C232.939 193.585 233.205 223.13 215.135 241.514Z" fill="#F9F9F9" stroke="#F9F9F9" stroke-width="1.5"/>
<path d="M181.433 175.02H181.434H181.434H181.435H181.435H181.436H181.436H181.437H181.438H181.438H181.439H181.439H181.44H181.441H181.441H181.442H181.442H181.443H181.444H181.444H181.445H181.445H181.446H181.446H181.447H181.448H181.448H181.449H181.449H181.45H181.451H181.451H181.452H181.452H181.453H181.453H181.454H181.455H181.455H181.456H181.456H181.457H181.458H181.458H181.459H181.459H181.46H181.461H181.461H181.462H181.462H181.463H181.463H181.464H181.465H181.465H181.466H181.466H181.467H181.468H181.468H181.469H181.469H181.47H181.47H181.471H181.472H181.472H181.473H181.473H181.474H181.475H181.475H181.476H181.476H181.477H181.478H181.478H181.479H181.479H181.48H181.48H181.481H181.482H181.482H181.483H181.483H181.484H181.485H181.485H181.486H181.486H181.487H181.487H181.488H181.489H181.489H181.49H181.49H181.491H181.492H181.492H181.493H181.493H181.494H181.495H181.495H181.496H181.496H181.497H181.497H181.498H181.499H181.499H181.5H181.5H181.501H181.502H181.502H181.503H181.503H181.504H181.504H181.505H181.506H181.506H181.507H181.507H181.508H181.509H181.509H181.51H181.51H181.511H181.511H181.512H181.513H181.513H181.514H181.514H181.515H181.516H181.516H181.517H181.517H181.518H181.519H181.519H181.52H181.52H181.521H181.521H181.522H181.523H181.523H181.524H181.524H181.525H181.526H181.526H181.527H181.527H181.528H181.528H181.529H181.53H181.53H181.531H181.531H181.532H181.533H181.533H181.534H181.534H181.535H181.536H181.536H181.537H181.537H181.538H181.538H181.539H181.54H181.54H181.541H181.541H181.542H181.543H181.543H181.544H181.544H181.545H181.545H181.546H181.547H181.547H181.548H181.548H181.549H181.55H181.55H181.551H181.551H181.552H181.553H181.553H181.554H181.554H181.555H181.555H181.556H181.557H181.557H181.558H181.558H181.559H181.56H181.56H181.561H181.561H181.562H181.562H181.563H181.564H181.564H181.565H181.565H181.566H181.567H181.567H181.568H181.568H181.569H181.57H181.57H181.571H181.571H181.572H181.572H181.573H181.574H181.574H181.575H181.575H181.576H181.577H181.577H181.578H181.578H181.579H181.579H181.58H181.581H181.581H181.582H181.582H181.583H181.584H181.584H181.585H181.585H181.586H181.587H181.587H181.588H181.588H181.589H181.589H181.59H181.591H181.591H181.592H181.592H181.593H181.594H181.594H181.595H181.595H181.596H181.596H181.597H181.598H181.598H181.599H181.599H181.6H181.601H181.601H181.602H181.602H181.603H181.604H181.604H181.605H181.605H181.606H181.606H181.607H181.608H181.608H181.609H181.609H181.61H181.611H181.611H181.612H181.612H181.613H181.613H181.614H181.615H181.615H181.616H181.616H181.617H181.618H181.618H181.619H181.619H181.62H181.62H181.621H181.622H181.622H181.623H181.623H181.624H181.625H181.625H181.626H181.626H181.627H181.628H181.628H181.629H181.629H181.63H181.63H181.631H181.632H181.632H181.633H181.633H181.634H181.635H181.635H181.636H181.636H181.637H181.637H181.638H181.639H181.639H181.64H181.64H181.641H181.642H181.642H181.643H181.643H181.644H181.645H181.645H181.646H181.646H181.647H181.647H181.648H181.649H181.649H181.65H181.65H181.651H181.652H181.652H181.653H181.653H181.654H181.654H181.655H181.656H181.656H181.657H181.657H181.658H181.659H181.659H181.66H181.66H181.661H181.662H181.662H181.663H181.663H181.664H181.664H181.665H181.666H181.666H181.667H181.667H181.668H181.669H181.669H181.67H181.67H181.671H181.671H181.672H181.673H181.673H181.674H181.674H181.675H181.676H181.676H181.677H181.677H181.678H181.679H181.679H181.68H181.68H181.681H181.681H181.682H181.683H181.683H181.684H181.684H181.685H181.686H181.686H181.687H181.687H181.688H181.688H181.689H181.69H181.69H181.691H181.691H181.692H181.693H181.693H181.694H181.694H181.695H181.695H181.696H181.697H181.697H181.698H181.698H181.699H181.7H181.7H181.701H181.701H181.702H181.703H181.703H181.704H181.704H181.705H181.705H181.706H181.707H181.707H181.708H181.708H181.709H181.71H181.71H181.711H181.711H181.712H181.712H181.713H181.714H181.714H181.715H181.715H181.716H181.717H181.717H181.718H181.718H181.719H181.72H181.72H181.721H181.721H181.722H181.722H181.723H181.724H181.724H181.725H181.725H181.726H181.727H181.727H181.728H181.728H181.729H181.729H181.73H181.433ZM181.433 175.02C162.859 175.188 147.884 190.429 148.04 209.004C148.197 227.481 163.281 242.4 181.73 242.4L181.433 175.02ZM182.023 242.4H182.024H182.024H182.025H182.025H182.026H182.027H182.027H182.023ZM182.023 242.4H182.022M182.023 242.4H182.022M182.022 242.4H182.022M182.022 242.4H182.022M182.022 242.4H182.021M182.022 242.4H182.021M182.021 242.4H182.021M182.021 242.4H182.021M182.021 242.4H182.02M182.021 242.4H182.02M182.02 242.4H182.02M182.02 242.4H182.02M182.02 242.4H182.019M182.02 242.4H182.019M182.019 242.4H182.018M182.019 242.4H182.018M182.018 242.4H182.018M182.018 242.4H182.018M182.018 242.4H182.017M182.018 242.4H182.017M182.017 242.4H182.017M182.017 242.4H182.017M182.017 242.4H182.016M182.017 242.4H182.016M182.016 242.4H182.015M182.016 242.4H182.015M182.015 242.4H182.015M182.015 242.4H182.015M182.015 242.4H182.014M182.015 242.4H182.014M182.014 242.4H182.014M182.014 242.4H182.014M182.014 242.4H182.013M182.014 242.4H182.013M182.013 242.4H182.012M182.013 242.4H182.012M182.012 242.4H182.012M182.012 242.4H182.012M182.012 242.4H182.011M182.012 242.4H182.011M182.011 242.4H182.011M182.011 242.4H182.011M182.011 242.4H182.01M182.011 242.4H182.01M182.01 242.4H182.01M182.01 242.4H182.01M182.01 242.4H182.009M182.01 242.4H182.009M182.009 242.4H182.008M182.009 242.4H182.008M182.008 242.4H182.008M182.008 242.4H182.008M182.008 242.4H182.007M182.008 242.4H182.007M182.007 242.4H182.007M182.007 242.4H182.007M182.007 242.4H182.006M182.007 242.4H182.006M182.006 242.4H182.005M182.006 242.4H182.005M182.005 242.4H182.005M182.005 242.4H182.005M182.005 242.4H182.004M182.005 242.4H182.004M182.004 242.4H182.004M182.004 242.4H182.004M182.004 242.4H182.003M182.004 242.4H182.003M182.003 242.4H182.003M182.003 242.4H182.003M182.003 242.4H182.002M182.003 242.4H182.002M182.002 242.4H182.001M182.002 242.4H182.001M182.001 242.4H182.001M182.001 242.4H182.001M182.001 242.4H182M182.001 242.4H182M182 242.4H182M182 242.4H182M182 242.4H181.999M182 242.4H181.999M181.999 242.4H181.998M181.999 242.4H181.998M181.998 242.4H181.998M181.998 242.4H181.998M181.998 242.4H181.997M181.998 242.4H181.997M181.997 242.4H181.997M181.997 242.4H181.997M181.997 242.4H181.996M181.997 242.4H181.996M181.996 242.4H181.995M181.996 242.4H181.995M181.995 242.4H181.995M181.995 242.4H181.995M181.995 242.4H181.994M181.995 242.4H181.994M181.994 242.4H181.994M181.994 242.4H181.994M181.994 242.4H181.993M181.994 242.4H181.993M181.993 242.4H181.993M181.993 242.4H181.993M181.993 242.4H181.992M181.993 242.4H181.992M181.992 242.4H181.991M181.992 242.4H181.991M181.991 242.4H181.991M181.991 242.4H181.991M181.991 242.4H181.99M181.991 242.4H181.99M181.99 242.4H181.99M181.99 242.4H181.99M181.99 242.4H181.989M181.99 242.4H181.989M181.989 242.4H181.988M181.989 242.4H181.988M181.988 242.4H181.988M181.988 242.4H181.988M181.988 242.4H181.987M181.988 242.4H181.987M181.987 242.4H181.987M181.987 242.4H181.987M181.987 242.4H181.986M181.987 242.4H181.986M181.986 242.4H181.986M181.986 242.4H181.986M181.986 242.4H181.985M181.986 242.4H181.985M181.985 242.4H181.984M181.985 242.4H181.984M181.984 242.4H181.984M181.984 242.4H181.984M181.984 242.4H181.983M181.984 242.4H181.983M181.983 242.4H181.983M181.983 242.4H181.983M181.983 242.4H181.982M181.983 242.4H181.982M181.982 242.4H181.981M181.982 242.4H181.981M181.981 242.4H181.981M181.981 242.4H181.981M181.981 242.4H181.98M181.981 242.4H181.98M181.98 242.4H181.98M181.98 242.4H181.98M181.98 242.4H181.979M181.98 242.4H181.979M181.979 242.4H181.978M181.979 242.4H181.978M181.978 242.4H181.978M181.978 242.4H181.978M181.978 242.4H181.977M181.978 242.4H181.977M181.977 242.4H181.977M181.977 242.4H181.977M181.977 242.4H181.976M181.977 242.4H181.976M181.976 242.4H181.976M181.976 242.4H181.976M181.976 242.4H181.975M181.976 242.4H181.975M181.975 242.4H181.974M181.975 242.4H181.974M181.974 242.4H181.974M181.974 242.4H181.974M181.974 242.4H181.973M181.974 242.4H181.973M181.973 242.4H181.973M181.973 242.4H181.973M181.973 242.4H181.972M181.973 242.4H181.972M181.972 242.4H181.971M181.972 242.4H181.971M181.971 242.4H181.971M181.971 242.4H181.971M181.971 242.4H181.97M181.971 242.4H181.97M181.97 242.4H181.97M181.97 242.4H181.97M181.97 242.4H181.969M181.97 242.4H181.969M181.969 242.4H181.969M181.969 242.4H181.969M181.969 242.4H181.968M181.969 242.4H181.968M181.968 242.4H181.967M181.968 242.4H181.967M181.967 242.4H181.967M181.967 242.4H181.967M181.967 242.4H181.966M181.967 242.4H181.966M181.966 242.4H181.966M181.966 242.4H181.966M181.966 242.4H181.965M181.966 242.4H181.965M181.965 242.4H181.964M181.965 242.4H181.964M181.964 242.4H181.964M181.964 242.4H181.964M181.964 242.4H181.963M181.964 242.4H181.963M181.963 242.4H181.963M181.963 242.4H181.963M181.963 242.4H181.962M181.963 242.4H181.962M181.962 242.4H181.962M181.962 242.4H181.962M181.962 242.4H181.961M181.962 242.4H181.961M181.961 242.4H181.96M181.961 242.4H181.96M181.96 242.4H181.96M181.96 242.4H181.96M181.96 242.4H181.959M181.96 242.4H181.959M181.959 242.4H181.959M181.959 242.4H181.959M181.959 242.4H181.958M181.959 242.4H181.958M181.958 242.4H181.957M181.958 242.4H181.957M181.957 242.4H181.957M181.957 242.4H181.957M181.957 242.4H181.956M181.957 242.4H181.956M181.956 242.4H181.956M181.956 242.4H181.956M181.956 242.4H181.955M181.956 242.4H181.955M181.955 242.4H181.954M181.955 242.4H181.954M181.954 242.4H181.954M181.954 242.4H181.954M181.954 242.4H181.953M181.954 242.4H181.953M181.953 242.4H181.953M181.953 242.4H181.953M181.953 242.4H181.952M181.953 242.4H181.952M181.952 242.4H181.952M181.952 242.4H181.952M181.952 242.4H181.951M181.952 242.4H181.951M181.951 242.4H181.95M181.951 242.4H181.95M181.95 242.4H181.95M181.95 242.4H181.95M181.95 242.4H181.949M181.95 242.4H181.949M181.949 242.4H181.949M181.949 242.4H181.949M181.949 242.4H181.948M181.949 242.4H181.948M181.948 242.4H181.947M181.948 242.4H181.947M181.947 242.4H181.947M181.947 242.4H181.947M181.947 242.4H181.946M181.947 242.4H181.946M181.946 242.4H181.946M181.946 242.4H181.946M181.946 242.4H181.945M181.946 242.4H181.945M181.945 242.4H181.945M181.945 242.4H181.945M181.945 242.4H181.944M181.945 242.4H181.944M181.944 242.4H181.943M181.944 242.4H181.943M181.943 242.4H181.943M181.943 242.4H181.943M181.943 242.4H181.942M181.943 242.4H181.942M181.942 242.4H181.942M181.942 242.4H181.942M181.942 242.4H181.941M181.942 242.4H181.941M181.941 242.4H181.94M181.941 242.4H181.94M181.94 242.4H181.94M181.94 242.4H181.94M181.94 242.4H181.939M181.94 242.4H181.939M181.939 242.4H181.939M181.939 242.4H181.939M181.939 242.4H181.938M181.939 242.4H181.938M181.938 242.4H181.937M181.938 242.4H181.937M181.937 242.4H181.937M181.937 242.4H181.937M181.937 242.4H181.936M181.937 242.4H181.936M181.936 242.4H181.936M181.936 242.4H181.936M181.936 242.4H181.935M181.936 242.4H181.935M181.935 242.4H181.935M181.935 242.4H181.935M181.935 242.4H181.934M181.935 242.4H181.934M181.934 242.4H181.933M181.934 242.4H181.933M181.933 242.4H181.933M181.933 242.4H181.933M181.933 242.4H181.932M181.933 242.4H181.932M181.932 242.4H181.932M181.932 242.4H181.932M181.932 242.4H181.931M181.932 242.4H181.931M181.931 242.4H181.93M181.931 242.4H181.93M181.93 242.4H181.93M181.93 242.4H181.93M181.93 242.4H181.929M181.93 242.4H181.929M181.929 242.4H181.929M181.929 242.4H181.929M181.929 242.4H181.928M181.929 242.4H181.928M181.928 242.4H181.928M181.928 242.4H181.928M181.928 242.4H181.927M181.928 242.4H181.927M181.927 242.4H181.926M181.927 242.4H181.926M181.926 242.4H181.926M181.926 242.4H181.926M181.926 242.4H181.925M181.926 242.4H181.925M181.925 242.4H181.925M181.925 242.4H181.925M181.925 242.4H181.924M181.925 242.4H181.924M181.924 242.4H181.923M181.924 242.4H181.923M181.923 242.4H181.923M181.923 242.4H181.923M181.923 242.4H181.922M181.923 242.4H181.922M181.922 242.4H181.922M181.922 242.4H181.922M181.922 242.4H181.921M181.922 242.4H181.921M181.921 242.4H181.92M181.921 242.4H181.92M181.92 242.4H181.92M181.92 242.4H181.92M181.92 242.4H181.919M181.92 242.4H181.919M181.919 242.4H181.919M181.919 242.4H181.919M181.919 242.4H181.918M181.919 242.4H181.918M181.918 242.4H181.918M181.918 242.4H181.918M181.918 242.4H181.917M181.918 242.4H181.917M181.917 242.4H181.916M181.917 242.4H181.916M181.916 242.4H181.916M181.916 242.4H181.916M181.916 242.4H181.915M181.916 242.4H181.915M181.915 242.4H181.915M181.915 242.4H181.915M181.915 242.4H181.914M181.915 242.4H181.914M181.914 242.4H181.913M181.914 242.4H181.913M181.913 242.4H181.913M181.913 242.4H181.913M181.913 242.4H181.912M181.913 242.4H181.912M181.912 242.4H181.912M181.912 242.4H181.912M181.912 242.4H181.911M181.912 242.4H181.911M181.911 242.4H181.911M181.911 242.4H181.911M181.911 242.4H181.91M181.911 242.4H181.91M181.91 242.4H181.909M181.91 242.4H181.909M181.909 242.4H181.909M181.909 242.4H181.909M181.909 242.4H181.908M181.909 242.4H181.908M181.908 242.4H181.908M181.908 242.4H181.908M181.908 242.4H181.907M181.908 242.4H181.907M181.907 242.4H181.906M181.907 242.4H181.906M181.906 242.4H181.906M181.906 242.4H181.906M181.906 242.4H181.905M181.906 242.4H181.905M181.905 242.4H181.905M181.905 242.4H181.905M181.905 242.4H181.904M181.905 242.4H181.904M181.904 242.4H181.903M181.904 242.4H181.903M181.903 242.4H181.903M181.903 242.4H181.903M181.903 242.4H181.902M181.903 242.4H181.902M181.902 242.4H181.902M181.902 242.4H181.902M181.902 242.4H181.901M181.902 242.4H181.901M181.901 242.4H181.901M181.901 242.4H181.901M181.901 242.4H181.9M181.901 242.4H181.9M181.9 242.4H181.899M181.9 242.4H181.899M181.899 242.4H181.899M181.899 242.4H181.899M181.899 242.4H181.898M181.899 242.4H181.898M181.898 242.4H181.898M181.898 242.4H181.898M181.898 242.4H181.897M181.898 242.4H181.897M181.897 242.4H181.896M181.897 242.4H181.896M181.896 242.4H181.896M181.896 242.4H181.896M181.896 242.4H181.895M181.896 242.4H181.895M181.895 242.4H181.895M181.895 242.4H181.895M181.895 242.4H181.894M181.895 242.4H181.894M181.894 242.4H181.894M181.894 242.4H181.894M181.894 242.4H181.893M181.894 242.4H181.893M181.893 242.4H181.892M181.893 242.4H181.892M181.892 242.4H181.892M181.892 242.4H181.892M181.892 242.4H181.891M181.892 242.4H181.891M181.891 242.4H181.891M181.891 242.4H181.891M181.891 242.4H181.89M181.891 242.4H181.89M181.89 242.4H181.889M181.89 242.4H181.889M181.889 242.4H181.889M181.889 242.4H181.889M181.889 242.4H181.888M181.889 242.4H181.888M181.888 242.4H181.888M181.888 242.4H181.888M181.888 242.4H181.887M181.888 242.4H181.887M181.887 242.4H181.887M181.887 242.4H181.887M181.887 242.4H181.886M181.887 242.4H181.886M181.886 242.4H181.885M181.886 242.4H181.885M181.885 242.4H181.885M181.885 242.4H181.885M181.885 242.4H181.884M181.885 242.4H181.884M181.884 242.4H181.884M181.884 242.4H181.884M181.884 242.4H181.883M181.884 242.4H181.883M181.883 242.4H181.882M181.883 242.4H181.882M181.882 242.4H181.882M181.882 242.4H181.882M181.882 242.4H181.881M181.882 242.4H181.881M181.881 242.4H181.881M181.881 242.4H181.881M181.881 242.4H181.88M181.881 242.4H181.88M181.88 242.4H181.879M181.88 242.4H181.879M181.879 242.4H181.879M181.879 242.4H181.879M181.879 242.4H181.878M181.879 242.4H181.878M181.878 242.4H181.878M181.878 242.4H181.878M181.878 242.4H181.877M181.878 242.4H181.877M181.877 242.4H181.877M181.877 242.4H181.877M181.877 242.4H181.876M181.877 242.4H181.876M181.876 242.4H181.875M181.876 242.4H181.875M181.875 242.4H181.875M181.875 242.4H181.875M181.875 242.4H181.874M181.875 242.4H181.874M181.874 242.4H181.874M181.874 242.4H181.874M181.874 242.4H181.873M181.874 242.4H181.873M181.873 242.4H181.872M181.873 242.4H181.872M181.872 242.4H181.872M181.872 242.4H181.872M181.872 242.4H181.871M181.872 242.4H181.871M181.871 242.4H181.871M181.871 242.4H181.871M181.871 242.4H181.87M181.871 242.4H181.87M181.87 242.4H181.87M181.87 242.4H181.87M181.87 242.4H181.869M181.87 242.4H181.869M181.869 242.4H181.868M181.869 242.4H181.868M181.868 242.4H181.868M181.868 242.4H181.868M181.868 242.4H181.867M181.868 242.4H181.867M181.867 242.4H181.867M181.867 242.4H181.867M181.867 242.4H181.866M181.867 242.4H181.866M181.866 242.4H181.865M181.866 242.4H181.865M181.865 242.4H181.865M181.865 242.4H181.865M181.865 242.4H181.864M181.865 242.4H181.864M181.864 242.4H181.864M181.864 242.4H181.864M181.864 242.4H181.863M181.864 242.4H181.863M181.863 242.4H181.862M181.863 242.4H181.862M181.862 242.4H181.862M181.862 242.4H181.862M181.862 242.4H181.861M181.862 242.4H181.861M181.861 242.4H181.861M181.861 242.4H181.861M181.861 242.4H181.86M181.861 242.4H181.86M181.86 242.4H181.86M181.86 242.4H181.86M181.86 242.4H181.859M181.86 242.4H181.859M181.859 242.4H181.858M181.859 242.4H181.858M181.858 242.4H181.858M181.858 242.4H181.858M181.858 242.4H181.857M181.858 242.4H181.857M181.857 242.4H181.857M181.857 242.4H181.857M181.857 242.4H181.856M181.857 242.4H181.856M181.856 242.4H181.855M181.856 242.4H181.855M181.855 242.4H181.855M181.855 242.4H181.855M181.855 242.4H181.854M181.855 242.4H181.854M181.854 242.4H181.854M181.854 242.4H181.854M181.854 242.4H181.853M181.854 242.4H181.853M181.853 242.4H181.853M181.853 242.4H181.853M181.853 242.4H181.852M181.853 242.4H181.852M181.852 242.4H181.851M181.852 242.4H181.851M181.851 242.4H181.851M181.851 242.4H181.851M181.851 242.4H181.85M181.851 242.4H181.85M181.85 242.4H181.85M181.85 242.4H181.85M181.85 242.4H181.849M181.85 242.4H181.849M181.849 242.4H181.848M181.849 242.4H181.848M181.848 242.4H181.848M181.848 242.4H181.848M181.848 242.4H181.847M181.848 242.4H181.847M181.847 242.4H181.847M181.847 242.4H181.847M181.847 242.4H181.846M181.847 242.4H181.846M181.846 242.4H181.845M181.846 242.4H181.845M181.845 242.4H181.845M181.845 242.4H181.845M181.845 242.4H181.844M181.845 242.4H181.844M181.844 242.4H181.844M181.844 242.4H181.844M181.844 242.4H181.843M181.844 242.4H181.843M181.843 242.4H181.843M181.843 242.4H181.843M181.843 242.4H181.842M181.843 242.4H181.842M181.842 242.4H181.841M181.842 242.4H181.841M181.841 242.4H181.841M181.841 242.4H181.841M181.841 242.4H181.84M181.841 242.4H181.84M181.84 242.4H181.84M181.84 242.4H181.84M181.84 242.4H181.839M181.84 242.4H181.839M181.839 242.4H181.838M181.839 242.4H181.838M181.838 242.4H181.838M181.838 242.4H181.838M181.838 242.4H181.837M181.838 242.4H181.837M181.837 242.4H181.837M181.837 242.4H181.837M181.837 242.4H181.836M181.837 242.4H181.836M181.836 242.4H181.836M181.836 242.4H181.836M181.836 242.4H181.835M181.836 242.4H181.835M181.835 242.4H181.834M181.835 242.4H181.834M181.834 242.4H181.834M181.834 242.4H181.834M181.834 242.4H181.833M181.834 242.4H181.833M181.833 242.4H181.833M181.833 242.4H181.833M181.833 242.4H181.832M181.833 242.4H181.832M181.832 242.4H181.831M181.832 242.4H181.831M181.831 242.4H181.831M181.831 242.4H181.831M181.831 242.4H181.83M181.831 242.4H181.83M181.83 242.4H181.83M181.83 242.4H181.83M181.83 242.4H181.829M181.83 242.4H181.829M181.829 242.4H181.829M181.829 242.4H181.829M181.829 242.4H181.828M181.829 242.4H181.828M181.828 242.4H181.827M181.828 242.4H181.827M181.827 242.4H181.827M181.827 242.4H181.827M181.827 242.4H181.826M181.827 242.4H181.826M181.826 242.4H181.826M181.826 242.4H181.826M181.826 242.4H181.825M181.826 242.4H181.825M181.825 242.4H181.824M181.825 242.4H181.824M181.824 242.4H181.824M181.824 242.4H181.824M181.824 242.4H181.823M181.824 242.4H181.823M181.823 242.4H181.823M181.823 242.4H181.823M181.823 242.4H181.822M181.823 242.4H181.822M181.822 242.4H181.821M181.822 242.4H181.821M181.821 242.4H181.821M181.821 242.4H181.821M181.821 242.4H181.82M181.821 242.4H181.82M181.82 242.4H181.82M181.82 242.4H181.82M181.82 242.4H181.819M181.82 242.4H181.819M181.819 242.4H181.819M181.819 242.4H181.819M181.819 242.4H181.818M181.819 242.4H181.818M181.818 242.4H181.817M181.818 242.4H181.817M181.817 242.4H181.817M181.817 242.4H181.817M181.817 242.4H181.816M181.817 242.4H181.816M181.816 242.4H181.816M181.816 242.4H181.816M181.816 242.4H181.815M181.816 242.4H181.815M181.815 242.4H181.814M181.815 242.4H181.814M181.814 242.4H181.814M181.814 242.4H181.814M181.814 242.4H181.813M181.814 242.4H181.813M181.813 242.4H181.813M181.813 242.4H181.813M181.813 242.4H181.812M181.813 242.4H181.812M181.812 242.4H181.812M181.812 242.4H181.812M181.812 242.4H181.811M181.812 242.4H181.811M181.811 242.4H181.81M181.811 242.4H181.81M181.81 242.4H181.81M181.81 242.4H181.81M181.81 242.4H181.809M181.81 242.4H181.809M181.809 242.4H181.809M181.809 242.4H181.809M181.809 242.4H181.808M181.809 242.4H181.808M181.808 242.4H181.807M181.808 242.4H181.807M181.807 242.4H181.807M181.807 242.4H181.807M181.807 242.4H181.806M181.807 242.4H181.806M181.806 242.4H181.806M181.806 242.4H181.806M181.806 242.4H181.805M181.806 242.4H181.805M181.805 242.4H181.804M181.805 242.4H181.804M181.804 242.4H181.804M181.804 242.4H181.804M181.804 242.4H181.803M181.804 242.4H181.803M181.803 242.4H181.803M181.803 242.4H181.803M181.803 242.4H181.802M181.803 242.4H181.802M181.802 242.4H181.802M181.802 242.4H181.802M181.802 242.4H181.801M181.802 242.4H181.801M181.801 242.4H181.8M181.801 242.4H181.8M181.8 242.4H181.8M181.8 242.4H181.8M181.8 242.4H181.799M181.8 242.4H181.799M181.799 242.4H181.799M181.799 242.4H181.799M181.799 242.4H181.798M181.799 242.4H181.798M181.798 242.4H181.797M181.798 242.4H181.797M181.797 242.4H181.797M181.797 242.4H181.797M181.797 242.4H181.796M181.797 242.4H181.796M181.796 242.4H181.796M181.796 242.4H181.796M181.796 242.4H181.795M181.796 242.4H181.795M181.795 242.4H181.795M181.795 242.4H181.795M181.795 242.4H181.794M181.795 242.4H181.794M181.794 242.4H181.793M181.794 242.4H181.793M181.793 242.4H181.793M181.793 242.4H181.793M181.793 242.4H181.792M181.793 242.4H181.792M181.792 242.4H181.792M181.792 242.4H181.792M181.792 242.4H181.791M181.792 242.4H181.791M181.791 242.4H181.79M181.791 242.4H181.79M181.79 242.4H181.79M181.79 242.4H181.79M181.79 242.4H181.789M181.79 242.4H181.789M181.789 242.4H181.789M181.789 242.4H181.789M181.789 242.4H181.788M181.789 242.4H181.788M181.788 242.4H181.787M181.788 242.4H181.787M181.787 242.4H181.787M181.787 242.4H181.787M181.787 242.4H181.786M181.787 242.4H181.786M181.786 242.4H181.786M181.786 242.4H181.786M181.786 242.4H181.785M181.786 242.4H181.785M181.785 242.4H181.785M181.785 242.4H181.785M181.785 242.4H181.784M181.785 242.4H181.784M181.784 242.4H181.783M181.784 242.4H181.783M181.783 242.4H181.783M181.783 242.4H181.783M181.783 242.4H181.782M181.783 242.4H181.782M181.782 242.4H181.782M181.782 242.4H181.782M181.782 242.4H181.781M181.782 242.4H181.781M181.781 242.4H181.78M181.781 242.4H181.78M181.78 242.4H181.78M181.78 242.4H181.78M181.78 242.4H181.779M181.78 242.4H181.779M181.779 242.4H181.779M181.779 242.4H181.779M181.779 242.4H181.778M181.779 242.4H181.778M181.778 242.4H181.778M181.778 242.4H181.778M181.778 242.4H181.777M181.778 242.4H181.777M181.777 242.4H181.776M181.777 242.4H181.776M181.776 242.4H181.776M181.776 242.4H181.776M181.776 242.4H181.775M181.776 242.4H181.775M181.775 242.4H181.775M181.775 242.4H181.775M181.775 242.4H181.774M181.775 242.4H181.774M181.774 242.4H181.773M181.774 242.4H181.773M181.773 242.4H181.773M181.773 242.4H181.773M181.773 242.4H181.772M181.773 242.4H181.772M181.772 242.4H181.772M181.772 242.4H181.772M181.772 242.4H181.771M181.772 242.4H181.771M181.771 242.4H181.77M181.771 242.4H181.77M181.77 242.4H181.77M181.77 242.4H181.77M181.77 242.4H181.769M181.77 242.4H181.769M181.769 242.4H181.769M181.769 242.4H181.769M181.769 242.4H181.768M181.769 242.4H181.768M181.768 242.4H181.768M181.768 242.4H181.768M181.768 242.4H181.767M181.768 242.4H181.767M181.767 242.4H181.766M181.767 242.4H181.766M181.766 242.4H181.766M181.766 242.4H181.766M181.766 242.4H181.765M181.766 242.4H181.765M181.765 242.4H181.765M181.765 242.4H181.765M181.765 242.4H181.764M181.765 242.4H181.764M181.764 242.4H181.763M181.764 242.4H181.763M181.763 242.4H181.763M181.763 242.4H181.763M181.763 242.4H181.762M181.763 242.4H181.762M181.762 242.4H181.762H181.762ZM140.53 209.066L140.53 209.067C140.734 231.659 159.169 249.9 181.72 249.9H181.721H181.721H181.722H181.723H181.724H181.724H181.725H181.726H181.726H181.727H181.728H181.728H181.729H181.73H181.731H181.731H181.732H181.733H181.733H181.734H181.735H181.736H181.736H181.737H181.738H181.738H181.739H181.74H181.74H181.741H181.742H181.743H181.743H181.744H181.745H181.745H181.746H181.747H181.747H181.748H181.749H181.75H181.75H181.751H181.752H181.752H181.753H181.754H181.755H181.755H181.756H181.757H181.757H181.758H181.759H181.759H181.76H181.761H181.762H181.762H181.763H181.764H181.764H181.765H181.766H181.766H181.767H181.768H181.769H181.769H181.77H181.771H181.771H181.772H181.773H181.773H181.774H181.775H181.776H181.776H181.777H181.778H181.778H181.779H181.78H181.781H181.781H181.782H181.783H181.783H181.784H181.785H181.785H181.786H181.787H181.788H181.788H181.789H181.79H181.79H181.791H181.792H181.792H181.793H181.794H181.795H181.795H181.796H181.797H181.797H181.798H181.799H181.8H181.8H181.801H181.802H181.802H181.803H181.804H181.804H181.805H181.806H181.807H181.807H181.808H181.809H181.809H181.81H181.811H181.811H181.812H181.813H181.814H181.814H181.815H181.816H181.816H181.817H181.818H181.818H181.819H181.82H181.821H181.821H181.822H181.823H181.823H181.824H181.825H181.826H181.826H181.827H181.828H181.828H181.829H181.83H181.83H181.831H181.832H181.833H181.833H181.834H181.835H181.835H181.836H181.837H181.837H181.838H181.839H181.84H181.84H181.841H181.842H181.842H181.843H181.844H181.845H181.845H181.846H181.847H181.847H181.848H181.849H181.849H181.85H181.851H181.852H181.852H181.853H181.854H181.854H181.855H181.856H181.856H181.857H181.858H181.859H181.859H181.86H181.861H181.861H181.862H181.863H181.863H181.864H181.865H181.866H181.866H181.867H181.868H181.868H181.869H181.87H181.871H181.871H181.872H181.873H181.873H181.874H181.875H181.875H181.876H181.877H181.878H181.878H181.879H181.88H181.88H181.881H181.882H181.882H181.883H181.884H181.885H181.885H181.886H181.887H181.887H181.888H181.889H181.89H181.89H181.891H181.892H181.892H181.893H181.894H181.894H181.895H181.896H181.897H181.897H181.898H181.899H181.899H181.9H181.901H181.901H181.902H181.903H181.904H181.904H181.905H181.906H181.906H181.907H181.908H181.908H181.909H181.91H181.911H181.911H181.912H181.913H181.913H181.914H181.915H181.916H181.916H181.917H181.918H181.918H181.919H181.92H181.92H181.921H181.922H181.923H181.923H181.924H181.925H181.925H181.926H181.927H181.927H181.928H181.929H181.93H181.93H181.931H181.932H181.932H181.933H181.934H181.935H181.935H181.936H181.937H181.937H181.938H181.939H181.939H181.94H181.941H181.942H181.942H181.943H181.944H181.944H181.945H181.946H181.946H181.947H181.948H181.949H181.949H181.95H181.951H181.951H181.952H181.953H181.953H181.954H181.955H181.956H181.956H181.957H181.958H181.958H181.959H181.96H181.961H181.961H181.962H181.963H181.963H181.964H181.965H181.965H181.966H181.967H181.968H181.968H181.969H181.97H181.97H181.971H181.972H181.972H181.973H181.974H181.975H181.975H181.976H181.977H181.977H181.978H181.979H181.979H181.98H181.981H181.982H181.982H181.983H181.984H181.984H181.985H181.986H181.987H181.987H181.988H181.989H181.989H181.99H181.991H181.991H181.992H181.993H181.994H181.994H181.995H181.996H181.996H181.997H181.998H181.998H181.999H182H182.001H182.001H182.002H182.003H182.003H182.004H182.005H182.006H182.006H182.007H182.008H182.008H182.009H182.01H182.01H182.011H182.012H182.013H182.013H182.014H182.015H182.015H182.016H182.017H182.017H182.018H182.019H182.02H182.02H182.021H182.022H182.022H182.023H182.024H182.024H182.025H182.026H182.027H182.027H182.028H182.029H182.029H182.03H182.031H182.032H182.032H182.033H182.034H182.034H182.035H182.036H182.036H182.037H182.038H182.039H182.039H182.04H182.041H182.041H182.042H182.043H182.043H182.044H182.045H182.046H182.046H182.047H182.048H182.048H182.049H182.05H182.051H182.051H182.052H182.053H182.053H182.054H182.055H182.055H182.056H182.057H182.058H182.058H182.059H182.06H182.06H182.061H182.062H182.062H182.063H182.064H182.065H182.065H182.066H182.067H182.067H182.068H182.069H182.069H182.07H182.071H182.072H182.072H182.073H182.074H182.074H182.075H182.076H182.077H182.077H182.078H182.079H182.079L182.08 249.9L182.086 249.9C204.791 249.706 223.114 231.068 222.91 208.353C222.716 185.761 204.281 167.52 181.73 167.52H181.729H181.729H181.728H181.727H181.727H181.726H181.725H181.724H181.724H181.723H181.722H181.722H181.721H181.72H181.72H181.719H181.718H181.717H181.717H181.716H181.715H181.715H181.714H181.713H181.712H181.712H181.711H181.71H181.71H181.709H181.708H181.708H181.707H181.706H181.705H181.705H181.704H181.703H181.703H181.702H181.701H181.701H181.7H181.699H181.698H181.698H181.697H181.696H181.696H181.695H181.694H181.694H181.693H181.692H181.691H181.691H181.69H181.689H181.689H181.688H181.687H181.686H181.686H181.685H181.684H181.684H181.683H181.682H181.682H181.681H181.68H181.679H181.679H181.678H181.677H181.677H181.676H181.675H181.675H181.674H181.673H181.672H181.672H181.671H181.67H181.67H181.669H181.668H181.667H181.667H181.666H181.665H181.665H181.664H181.663H181.663H181.662H181.661H181.66H181.66H181.659H181.658H181.658H181.657H181.656H181.656H181.655H181.654H181.653H181.653H181.652H181.651H181.651H181.65H181.649H181.649H181.648H181.647H181.646H181.646H181.645H181.644H181.644H181.643H181.642H181.641H181.641H181.64H181.639H181.639H181.638H181.637H181.637H181.636H181.635H181.634H181.634H181.633H181.632H181.632H181.631H181.63H181.63H181.629H181.628H181.627H181.627H181.626H181.625H181.625H181.624H181.623H181.622H181.622H181.621H181.62H181.62H181.619H181.618H181.618H181.617H181.616H181.615H181.615H181.614H181.613H181.613H181.612H181.611H181.611H181.61H181.609H181.608H181.608H181.607H181.606H181.606H181.605H181.604H181.604H181.603H181.602H181.601H181.601H181.6H181.599H181.599H181.598H181.597H181.596H181.596H181.595H181.594H181.594H181.593H181.592H181.592H181.591H181.59H181.589H181.589H181.588H181.587H181.587H181.586H181.585H181.585H181.584H181.583H181.582H181.582H181.581H181.58H181.58H181.579H181.578H181.577H181.577H181.576H181.575H181.575H181.574H181.573H181.573H181.572H181.571H181.57H181.57H181.569H181.568H181.568H181.567H181.566H181.566H181.565H181.564H181.563H181.563H181.562H181.561H181.561H181.56H181.559H181.558H181.558H181.557H181.556H181.556H181.555H181.554H181.554H181.553H181.552H181.551H181.551H181.55H181.549H181.549H181.548H181.547H181.547H181.546H181.545H181.544H181.544H181.543H181.542H181.542H181.541H181.54H181.54H181.539H181.538H181.537H181.537H181.536H181.535H181.535H181.534H181.533H181.532H181.532H181.531H181.53H181.53H181.529H181.528H181.528H181.527H181.526H181.525H181.525H181.524H181.523H181.523H181.522H181.521H181.521H181.52H181.519H181.518H181.518H181.517H181.516H181.516H181.515H181.514H181.513H181.513H181.512H181.511H181.511H181.51H181.509H181.509H181.508H181.507H181.506H181.506H181.505H181.504H181.504H181.503H181.502H181.502H181.501H181.5H181.499H181.499H181.498H181.497H181.497H181.496H181.495H181.495H181.494H181.493H181.492H181.492H181.491H181.49H181.49H181.489H181.488H181.487H181.487H181.486H181.485H181.485H181.484H181.483H181.483H181.482H181.481H181.48H181.48H181.479H181.478H181.478H181.477H181.476H181.476H181.475H181.474H181.473H181.473H181.472H181.471H181.471H181.47H181.469H181.468H181.468H181.467H181.466H181.466H181.465H181.464H181.464H181.463H181.462H181.461H181.461H181.46H181.459H181.459H181.458H181.457H181.457H181.456H181.455H181.454H181.454H181.453H181.452H181.452H181.451H181.45H181.45H181.449H181.448H181.447H181.447H181.446H181.445H181.445H181.444H181.443H181.442H181.442H181.441H181.44H181.44H181.439H181.438H181.438H181.437H181.436H181.435H181.435H181.434H181.433H181.433H181.432H181.431H181.431H181.43H181.429H181.428H181.428H181.427H181.426H181.426H181.425H181.424H181.423H181.423H181.422H181.421H181.421H181.42H181.419H181.419H181.418H181.417H181.416H181.416H181.415H181.414H181.414H181.413H181.412H181.412H181.411H181.41H181.409H181.409H181.408H181.407H181.407H181.406H181.405H181.405H181.404H181.403H181.402H181.402H181.401H181.4H181.4H181.399H181.398H181.397H181.397H181.396H181.395H181.395H181.394H181.393H181.393H181.392H181.391H181.39H181.39H181.389H181.388H181.388H181.387H181.386H181.386H181.385H181.384H181.383H181.383H181.382H181.381H181.381H181.38H181.379H181.378H181.378H181.377H181.376H181.376H181.375H181.374H181.374H181.373H181.372H181.371H181.371L181.37 167.52L181.364 167.52C158.649 167.714 140.337 186.352 140.53 209.066Z" fill="#F9F9F9" stroke="#F9F9F9" stroke-width="1.5"/>
</svg>
