<?xml version="1.0" encoding="UTF-8" standalone="no"?>
<svg
   xmlns:dc="http://purl.org/dc/elements/1.1/"
   xmlns:cc="http://creativecommons.org/ns#"
   xmlns:rdf="http://www.w3.org/1999/02/22-rdf-syntax-ns#"
   xmlns:svg="http://www.w3.org/2000/svg"
   xmlns="http://www.w3.org/2000/svg"
   xmlns:sodipodi="http://sodipodi.sourceforge.net/DTD/sodipodi-0.dtd"
   xmlns:inkscape="http://www.inkscape.org/namespaces/inkscape"
   width="94"
   height="94"
   viewBox="0 0 94 94"
   fill="none"
   version="1.1"
   id="svg18"
   sodipodi:docname="99-app-logo-2 1.svg"
   inkscape:version="0.92.4 (unknown)">
  <metadata
     id="metadata22">
    <rdf:RDF>
      <cc:Work
         rdf:about="">
        <dc:format>image/svg+xml</dc:format>
        <dc:type
           rdf:resource="http://purl.org/dc/dcmitype/StillImage" />
      </cc:Work>
    </rdf:RDF>
  </metadata>
  <sodipodi:namedview
     pagecolor="#ffffff"
     bordercolor="#666666"
     borderopacity="1"
     objecttolerance="10"
     gridtolerance="10"
     guidetolerance="10"
     inkscape:pageopacity="0"
     inkscape:pageshadow="2"
     inkscape:window-width="1366"
     inkscape:window-height="738"
     id="namedview20"
     showgrid="false"
     inkscape:zoom="1.2421053"
     inkscape:cx="244.94068"
     inkscape:cy="159.40678"
     inkscape:window-x="0"
     inkscape:window-y="0"
     inkscape:window-maximized="1"
     inkscape:current-layer="g6" />
  <g
     clip-path="url(#clip0)"
     id="g6">
    <path
       d="m 91.278445,71.821252 c 0,9.787 -8.0451,17.794 -17.8781,17.794 h -51.4209 c -9.8328,0 -17.8780992,-8.007 -17.8780992,-17.794 V 20.643255 c 0,-9.787 8.0450992,-17.7939005 17.8782992,-17.7939005 h 51.4208 c 9.8327,0 17.878,8.0069005 17.878,17.7939005 z"
       id="path2"
       style="clip-rule:evenodd;fill:url(#paint0_linear);fill-rule:evenodd"
       inkscape:connector-curvature="0" />
    <path
       d="m 43.805645,31.828255 c 1.636,2.192 2.637,4.88 2.7537,7.795 v 0.502 c 0,2.841 -0.8466,5.488 -2.3137,7.689997 l -11.6949,17.76 -0.315,0.479 c -0.0627,0.095 -0.1483,0.173 -0.2489,0.227 -0.1006,0.054 -0.2132,0.083 -0.3276,0.083 h -9.5279 c -0.4587,0 -0.734,-0.507 -0.4826,-0.889 l 7.7566,-11.779 c -6.2089,-1.426 -10.8396,-6.957997 -10.8396,-13.570997 l 0.0129,-0.502 c 0.1034,-2.908 1.1,-5.589 2.7286,-7.778 2.5499,-3.428 6.6411,-5.651 11.2553,-5.651 4.6065,0 8.6923,2.216 11.2431,5.634 z m -7.1493,10.856 0.3907,-0.593 c 0.4193,-0.755 0.638,-1.605 0.6357,-2.468 -0.0049,-2.81 -2.2952,-5.087 -5.1202,-5.087 -2.8251,0 -5.1151,2.277 -5.1206,5.096 0,2.815 2.2926,5.097 5.1206,5.097 1.6763,0 3.1597,-0.806 4.0938,-2.045 z m 37.3522,-10.856 c 1.6361,2.192 2.6372,4.88 2.7539,7.795 v 0.502 c 0,2.841 -0.8465,5.488 -2.3139,7.689997 l -11.6948,17.76 -0.3151,0.479 c -0.0627,0.095 -0.1482,0.173 -0.2488,0.227 -0.1005,0.054 -0.2131,0.083 -0.3274,0.083 h -9.5283 c -0.4586,0 -0.7338,-0.507 -0.4824,-0.889 l 7.7566,-11.779 c -6.2089,-1.426 -10.8397,-6.957997 -10.8397,-13.570997 l 0.0127,-0.502 c 0.1036,-2.908 1.1003,-5.589 2.7287,-7.778 2.55,-3.428 6.6417,-5.651 11.2558,-5.651 4.6065,0 8.6923,2.216 11.2429,5.634 z m -7.1491,10.856 0.3908,-0.593 c 0.4191,-0.755 0.6379,-1.605 0.6356,-2.468 -0.0049,-2.81 -2.2951,-5.087 -5.1202,-5.087 -2.825,0 -5.1153,2.277 -5.1208,5.096 0,2.815 2.2928,5.097 5.1208,5.097 1.6763,0 3.1597,-0.806 4.0938,-2.045 z"
       id="path4"
       inkscape:connector-curvature="0"
       style="fill:#ffffff" />
  </g>
  <defs
     id="defs16">
    <linearGradient
       id="paint0_linear"
       x1="35.5806"
       y1="124.361"
       x2="93.4192"
       y2="182.474"
       gradientUnits="userSpaceOnUse"
       gradientTransform="translate(-2.4152542,-92.584745)">
      <stop
         id="stop8" />
      <stop
         offset="1"
         id="stop10" />
    </linearGradient>
    <clipPath
       id="clip0">
      <rect
         width="94"
         height="190"
         fill="white"
         id="rect13" />
    </clipPath>
  </defs>
  <g
     inkscape:groupmode="layer"
     id="layer1"
     inkscape:label="Layer 1" />
</svg>
