<svg width="205" height="205" viewBox="0 0 205 205" fill="none" xmlns="http://www.w3.org/2000/svg">
<path d="M22.9857 108.726H35.0894L41.8136 75.2728H29.71L22.9857 108.726ZM32.2316 72.2469H46.5206L48.8741 60.4795H34.5851L32.2316 72.2469ZM39.7963 118.14H51.9L59.2967 81.9971H68.3744L69.7193 75.2728H60.8096L61.1458 73.7599C61.6502 70.9021 62.6588 67.7081 67.1977 67.7081C69.8874 67.7081 72.409 67.8762 74.9306 69.0529L76.2754 61.9924C73.4176 60.9838 70.3917 60.4795 67.5339 60.4795C57.7837 60.4795 51.0595 66.1951 48.5379 75.2728H44.3352L42.9904 81.9971H47.193L39.7963 118.14Z" fill="black"/>
<path d="M78.1246 109.399C92.4136 109.399 102.332 96.4546 102.332 85.864C102.332 77.963 95.1033 74.6008 88.0429 74.6008C72.409 74.6008 63.8356 88.5537 63.8356 98.1357C63.8356 106.037 71.2322 109.399 78.1246 109.399ZM116.453 109.399C130.742 109.399 140.66 96.4546 140.66 85.864C140.66 77.963 133.263 74.6008 126.203 74.6008C110.569 74.6008 101.996 88.5537 101.996 98.1357C101.996 106.037 109.56 109.399 116.453 109.399V109.399ZM160.329 108.726H172.264L182.014 61.1523H169.911L167.053 75.2733L162.01 74.7689C150.242 74.7689 139.483 89.8985 139.483 100.657C139.483 105.028 142.341 109.399 147.216 109.399C154.109 109.399 158.984 106.037 161.001 102.675H161.673L160.329 108.726ZM123.009 133.774C113.614 141.558 101.548 145.359 89.3877 144.365C73.4176 143.356 61.9864 131.085 59.9691 118.14H60.6415C64.3399 126.209 73.2495 133.774 84.1764 134.951C95.2714 136.296 108.552 131.253 115.78 124.36L107.711 118.14H132.087L126.707 144.029L123.177 133.942L123.009 133.774Z" fill="black"/>
</svg>
