<svg width="237" height="48" viewBox="0 0 237 48" fill="none" xmlns="http://www.w3.org/2000/svg">
<g clip-path="url(#clip0)">
<path d="M27.8712 13.0079L34.2702 9.45588C32.0898 3.93588 26.6388 0.671875 19.3392 0.671875C7.29959 0.671875 -0.142212 8.20788 -0.142212 19.1999C-0.142212 31.1999 9.71699 37.8239 19.1022 37.8239C27.729 37.8239 33.3696 33.7439 35.787 30.3359V17.4239H17.2536V23.3759H28.8666L28.8192 27.4559C28.8192 27.4559 25.4064 30.7679 19.2444 30.7679C12.6084 30.7679 8.81639 26.2079 8.81639 19.0079C8.81639 11.7599 12.6084 7.19988 19.1496 7.19988C23.0364 7.19988 25.9278 9.55188 27.8712 13.0079V13.0079ZM39.0102 45.9359V39.8399C40.3848 40.0799 41.2854 40.1279 42.2334 40.1279C45.0774 40.1279 47.2104 39.1199 48.1584 37.1039L48.348 36.3839L37.0668 12.4319H46.0254L51.7134 27.1199C52.14 28.1759 52.2822 28.7999 52.4718 29.8079H52.614C52.7562 28.9439 52.9458 28.3199 53.325 27.1679L58.776 12.4319H67.1658L56.4534 37.5359C53.799 43.7759 49.8648 46.2719 43.0392 46.2719C41.9964 46.2719 40.3374 46.1759 39.0102 45.9359ZM77.5938 12.4319V17.2319C79.2054 13.5359 82.1442 11.7119 86.3628 11.7119C90.534 11.7119 93.3306 13.5359 94.7526 17.2799C96.696 13.5839 99.8718 11.7119 104.043 11.7119C109.968 11.7119 113.286 15.4559 113.286 22.2239V36.4319H105.181V23.7119C105.181 19.7759 103.664 17.8559 100.63 17.8559C97.4544 17.8559 95.5584 20.0639 95.5584 23.8559V36.4319H87.453V23.7119C87.453 19.7759 85.9362 17.8559 82.9026 17.8559C79.7268 17.8559 77.8308 20.1119 77.8308 23.9999V36.4319H69.7254V12.4319H77.5938V12.4319ZM117.836 12.4319H125.705V16.4639C127.648 13.3439 131.203 11.7119 135.374 11.7119C142.484 11.7119 147.177 16.7039 147.177 24.3359C147.177 32.0639 142.247 37.1519 135.043 37.1519C131.061 37.1519 127.933 35.6159 125.942 33.0719V45.7919H117.836V12.4319V12.4319ZM138.787 24.3359C138.787 19.8239 136.417 17.2319 132.341 17.2319C128.359 17.2319 125.752 19.6799 125.752 23.9519V24.9599C125.752 28.9919 128.359 31.6319 132.293 31.6319C136.322 31.6319 138.787 28.8479 138.787 24.3359V24.3359ZM150.305 29.8559C150.305 27.6479 151.206 25.8239 152.865 24.6239C154.524 23.4719 156.894 22.7519 161.113 22.3199L169.929 21.5039V20.7839C169.929 18.0959 168.128 16.7999 164.905 16.7999C161.634 16.7999 159.691 18.0959 159.359 20.4959H151.064C151.68 15.0239 156.941 11.7119 164.952 11.7119C173.958 11.7119 178.082 15.0239 178.082 21.9839V29.4239C178.082 32.4959 178.271 34.7519 178.651 36.4319H170.64C170.45 35.2799 170.308 33.7919 170.308 32.3519C168.744 35.3759 165.047 37.1519 160.022 37.1519C154.05 37.1519 150.305 34.3679 150.305 29.8559V29.8559ZM170.119 26.9279V25.3919L163.577 26.0639C159.975 26.4959 158.6 27.4559 158.6 29.3279C158.6 31.1039 160.307 32.1599 163.103 32.1599C167.275 32.1599 170.119 30.0959 170.119 26.9279ZM180.926 31.4399L185.287 27.6959C187.514 30.3839 190.88 31.8239 195.809 31.8239C199.127 31.8239 200.597 31.1039 200.597 29.6159C200.597 28.2719 199.886 27.7439 197.184 27.4559L190.88 26.8319C185.097 26.1119 182.348 23.6639 182.348 19.4399C182.348 14.5439 186.803 11.7119 194.767 11.7119C200.502 11.7119 205.147 13.3439 207.802 16.2719L204.01 20.2079C201.592 17.9999 198.606 16.9439 194.34 16.9439C191.212 16.9439 189.742 17.5679 189.742 18.9599C189.742 20.1119 190.595 20.6879 192.776 20.9279L199.744 21.6479C205.574 22.3199 207.896 24.7679 207.896 28.9919C207.896 34.0799 203.678 37.1519 195.43 37.1519C188.842 37.1519 183.865 35.1839 180.926 31.4399V31.4399ZM210.029 31.4399L214.39 27.6959C216.618 30.3839 219.983 31.8239 224.913 31.8239C228.231 31.8239 229.7 31.1039 229.7 29.6159C229.7 28.2719 228.989 27.7439 226.288 27.4559L219.983 26.8319C214.201 26.1119 211.451 23.6639 211.451 19.4399C211.451 14.5439 215.907 11.7119 223.87 11.7119C229.606 11.7119 234.251 13.3439 236.905 16.2719L233.113 20.2079C230.696 17.9999 227.71 16.9439 223.444 16.9439C220.315 16.9439 218.846 17.5679 218.846 18.9599C218.846 20.1119 219.699 20.6879 221.879 20.9279L228.847 21.6479C234.677 22.3199 237 24.7679 237 28.9919C237 34.0799 232.781 37.1519 224.534 37.1519C217.945 37.1519 212.968 35.1839 210.029 31.4399V31.4399Z" fill="black"/>
</g>
<defs>
<clipPath id="clip0">
<rect width="237" height="48" fill="white"/>
</clipPath>
</defs>
</svg>
