<svg width="407" height="284" viewBox="0 0 407 284" fill="none" xmlns="http://www.w3.org/2000/svg">
<g clip-path="url(#clip0)">
<path d="M40.8101 259.15H43.0201C42.9501 260.36 42.8401 261.79 42.8401 263.15V273.86C42.8401 277.42 43.0201 281.15 39.0701 283C37.8107 283.62 36.4116 283.903 35.0101 283.82C31.7801 283.82 27.9401 282.72 27.9401 279.02H30.2501C30.5001 281.15 33.0201 281.86 35.2501 281.86C36.6202 281.917 37.9573 281.429 38.9691 280.504C39.9809 279.578 40.5852 278.29 40.6501 276.92V273.57H40.5801C40.0067 274.599 39.1659 275.453 38.1466 276.043C37.1274 276.632 35.9676 276.935 34.7901 276.92C29.4201 276.92 27.1001 272.83 27.1001 267.92C27.1001 263.01 29.3201 258.67 34.7701 258.67C35.9497 258.668 37.1097 258.972 38.1368 259.552C39.1639 260.132 40.023 260.969 40.6301 261.98L40.7001 261.84L40.8101 259.15ZM34.9801 260.58C31.1001 260.58 29.4701 264.49 29.4701 267.76C29.4701 271.03 31.1401 274.98 35.0501 274.98C39.1401 274.98 40.7001 271.18 40.7001 267.69C40.7001 264.2 38.8201 260.58 34.9801 260.58Z" fill="#0095AD"/>
<path d="M49.4201 268.58C49.4901 272.39 51.2301 275.58 55.6101 275.58C56.8275 275.565 58.003 275.133 58.9403 274.356C59.8775 273.579 60.5199 272.503 60.7601 271.31H63.0101C61.9001 275.58 59.2401 277.53 54.9301 277.53C49.6001 277.53 47.1101 272.95 47.1101 268.07C47.1101 263.19 49.7701 258.61 55.1101 258.61C61.1101 258.61 63.2601 262.99 63.2601 268.61L49.4201 268.58ZM60.9101 266.58C60.6601 263.13 58.8101 260.58 55.1101 260.58C51.6201 260.58 49.7701 263.49 49.4901 266.58H60.9101ZM53.9101 251.82H56.5001L60.0201 256.98H58.3501L55.1901 253.21L51.9901 256.98H50.3501L53.9101 251.82Z" fill="#0095AD"/>
<path d="M70.08 277.01H67.95V263.17C67.95 261.79 67.84 260.36 67.77 259.17H69.98L70.08 261.81L70.15 261.88C70.6895 260.875 71.4981 260.039 72.4853 259.467C73.4725 258.895 74.5994 258.608 75.74 258.64C81.57 258.64 82.03 263.8 82.03 265.86V277.03H79.9V265.49C79.9 262.39 78.12 260.58 75.21 260.58C71.68 260.58 70.08 263.53 70.08 266.73V277.01Z" fill="#0095AD"/>
<path d="M99 264.67C98.82 261.93 97.08 260.67 94.13 260.67C90.85 260.67 88.83 264.08 88.83 268.14C88.83 272.2 90.83 275.68 94.13 275.68C96.9 275.68 98.82 273.97 99 271.52H101.31C100.74 275.61 98.4 277.63 94.31 277.63C88.98 277.63 86.49 273.05 86.49 268.17C86.49 263.29 89.15 258.71 94.49 258.71C98.16 258.71 101.14 260.92 101.32 264.71L99 264.67Z" fill="#0095AD"/>
<path d="M107.86 254H105.37V251.33H107.86V254ZM107.68 277H105.5V259.15H107.64L107.68 277Z" fill="#0095AD"/>
<path d="M123.5 264.42C123.28 261.5 121.79 260.58 119.26 260.58C117.02 260.58 115.17 261.25 114.89 263.67H112.61C113.14 260.01 115.88 258.62 119.3 258.62C123.25 258.62 125.7 260.43 125.63 264.53V272.99C125.63 274.38 125.74 275.8 125.81 276.99H123.6L123.53 274.36H123.5L123.39 274.61C122.77 275.516 121.937 276.255 120.964 276.762C119.991 277.27 118.908 277.53 117.81 277.52C114.5 277.52 111.87 275.52 111.87 272.01C111.871 270.887 112.215 269.79 112.857 268.868C113.499 267.946 114.407 267.242 115.46 266.85C117.84 265.85 120.94 266.18 123.54 266.03L123.5 264.42ZM118.16 275.59C122.82 275.59 123.71 271.75 123.5 268.01C120.5 268.12 114.14 267.55 114.14 272.01C114.14 274.43 115.99 275.57 118.14 275.57" fill="#0095AD"/>
<path d="M143.99 251.33V267.94C144.17 272.6 146.84 275.41 151.07 275.41C155.3 275.41 157.97 272.6 158.15 267.94V251.33H160.5V267.98C160.43 273.49 157.33 277.54 151.11 277.54C144.89 277.54 141.79 273.49 141.72 267.98V251.33H143.99Z" fill="#0095AD"/>
<path d="M173.62 277.54C172.643 277.569 171.67 277.405 170.757 277.058C169.844 276.711 169.008 276.187 168.297 275.517C167.587 274.846 167.015 274.042 166.616 273.15C166.217 272.258 165.997 271.297 165.97 270.32H168.5C168.57 274.32 171.5 275.41 174.94 275.41C177.82 275.41 181.13 273.74 181.13 270.47C181.13 267.9 179.28 266.7 177.13 265.98C172.97 264.6 166.64 263.28 166.64 257.73C166.64 253.25 170.76 250.8 174.82 250.8C178.2 250.8 182.61 251.97 183.18 256.91H180.69C180.62 253.75 177.69 252.91 175.1 252.91C172.51 252.91 169.1 254.26 169.1 257.39C169.1 264.68 183.61 261.39 183.61 270.23C183.61 275.82 178.81 277.52 173.61 277.52" fill="#0095AD"/>
<path d="M189.2 277.01V251.33H195.64C200.58 251.22 206.13 252.47 206.13 258.59C206.13 264.71 200.58 265.95 195.64 265.84H191.5V277.01H189.2ZM191.5 263.67H197.12C200.57 263.67 203.63 262.56 203.63 258.55C203.63 254.54 200.57 253.42 197.12 253.42H191.5V263.67Z" fill="#0095AD"/>
<path d="M232.41 274.38L232.34 274.24C231.677 275.258 230.77 276.094 229.701 276.67C228.631 277.247 227.435 277.546 226.22 277.54C220.92 277.54 218.9 272.49 218.9 268.01C218.9 263.53 220.9 258.62 226.22 258.62C227.431 258.596 228.629 258.88 229.7 259.447C230.77 260.014 231.679 260.845 232.34 261.86L232.41 261.79V251.33H234.55V272.99C234.55 274.38 234.65 275.8 234.72 276.99H232.5L232.41 274.38ZM226.58 260.58C222.52 260.58 221.21 264.35 221.21 267.76C221.21 271.17 222.21 275.59 226.26 275.59C230.92 275.59 232.34 271.71 232.34 267.66C232.34 264.03 230.74 260.58 226.58 260.58Z" fill="#0095AD"/>
<path d="M241.12 268.58C241.2 272.39 242.94 275.58 247.31 275.58C248.529 275.567 249.707 275.136 250.646 274.359C251.586 273.581 252.229 272.505 252.47 271.31H254.71C253.61 275.58 250.94 277.53 246.64 277.53C241.3 277.53 238.81 272.95 238.81 268.07C238.81 263.19 241.48 258.61 246.81 258.61C252.81 258.61 254.96 262.99 254.96 268.61L241.12 268.58ZM252.61 266.58C252.37 263.13 250.52 260.58 246.82 260.58C243.33 260.58 241.48 263.49 241.2 266.58H252.61Z" fill="#0095AD"/>
<path d="M272.81 251.22H270.5V277.01H272.81V251.22Z" fill="#0095AD"/>
<path d="M281.57 277.01H279.43V263.17C279.43 261.79 279.32 260.36 279.25 259.17H281.5L281.61 261.81L281.68 261.88C282.216 260.874 283.022 260.037 284.008 259.465C284.994 258.892 286.12 258.607 287.26 258.64C293.09 258.64 293.56 263.8 293.56 265.86V277.03H291.42V265.49C291.42 262.39 289.64 260.58 286.73 260.58C283.21 260.58 281.61 263.53 281.61 266.73L281.57 277.01Z" fill="#0095AD"/>
<path d="M314.57 268.08C314.57 272.78 311.94 277.54 306.25 277.54C300.56 277.54 297.93 272.78 297.93 268.08C297.93 263.38 300.56 258.62 306.25 258.62C311.94 258.62 314.57 263.39 314.57 268.08ZM306.25 260.58C301.95 260.58 300.25 264.77 300.25 268.08C300.25 271.39 301.96 275.59 306.25 275.59C310.54 275.59 312.25 271.39 312.25 268.08C312.25 264.77 310.54 260.58 306.25 260.58Z" fill="#0095AD"/>
<path d="M318.98 259.15L325.13 274.06L331.07 259.15H333.42L326.34 277.01H323.92L316.63 259.15H318.98Z" fill="#0095AD"/>
<path d="M346.87 264.42C346.65 261.5 345.16 260.58 342.63 260.58C340.39 260.58 338.54 261.25 338.26 263.67H335.98C336.52 260.01 339.26 258.62 342.67 258.62C346.62 258.62 349.07 260.43 349 264.53V272.99C349 274.38 349.11 275.8 349.18 276.99H346.97L346.9 274.36H346.83L346.72 274.61C346.1 275.516 345.267 276.255 344.293 276.762C343.32 277.27 342.237 277.53 341.14 277.52C337.83 277.52 335.2 275.52 335.2 272.01C335.201 270.887 335.545 269.79 336.187 268.868C336.829 267.946 337.737 267.242 338.79 266.85C341.18 265.85 344.27 266.18 346.87 266.03V264.42ZM341.5 275.59C346.16 275.59 347.05 271.75 346.84 268.01C343.84 268.12 337.48 267.55 337.48 272.01C337.48 274.43 339.33 275.57 341.48 275.57" fill="#0095AD"/>
<path d="M357.57 281.74C358.594 282.142 359.656 282.441 360.74 282.63C361.264 282.644 361.78 282.508 362.23 282.24C362.392 282.101 362.516 281.924 362.591 281.725C362.666 281.526 362.69 281.311 362.66 281.1C362.66 280.1 361.77 279.82 360.95 279.82C360.558 279.837 360.168 279.874 359.78 279.93L360.56 277.51C355.62 277.19 353.34 272.74 353.34 268.08C353.34 263.25 356.01 258.62 361.34 258.62C365 258.62 367.99 260.83 368.17 264.62H365.85C365.68 261.88 363.93 260.62 360.98 260.62C357.71 260.62 355.68 264.03 355.68 268.09C355.68 272.15 357.68 275.63 360.98 275.63C363.76 275.63 365.68 273.92 365.85 271.47H368.17C367.6 275.47 365.32 277.47 361.44 277.55L361.09 278.83C362.87 278.83 364.68 279.08 364.68 281.21C364.68 282.88 362.8 283.56 361.37 283.56C360 283.545 358.645 283.281 357.37 282.78L357.57 281.74Z" fill="#0095AD"/>
<path d="M382.43 264.42C382.22 261.5 380.73 260.58 378.2 260.58C375.96 260.58 374.11 261.25 373.83 263.67H371.55C372.08 260.01 374.82 258.62 378.24 258.62C382.19 258.62 384.64 260.43 384.57 264.53V272.99C384.57 274.38 384.67 275.8 384.75 276.99H382.5L382.43 274.36H382.36L382.25 274.61C381.63 275.516 380.797 276.255 379.824 276.762C378.85 277.27 377.767 277.53 376.67 277.52C373.36 277.52 370.73 275.52 370.73 272.01C370.731 270.887 371.075 269.79 371.717 268.868C372.359 267.946 373.267 267.242 374.32 266.85C376.7 265.85 379.8 266.18 382.39 266.03L382.43 264.42ZM377.1 275.59C381.76 275.59 382.65 271.75 382.43 268.01C379.43 268.12 373.08 267.55 373.08 272.01C373.08 274.43 374.93 275.57 377.08 275.57L377.1 275.59ZM383.27 252.27C382.88 253.87 381.85 255.27 380.03 255.27C379.478 255.233 378.937 255.101 378.43 254.88C377.814 254.657 377.165 254.539 376.51 254.53C376.161 254.493 375.809 254.571 375.508 254.751C375.207 254.932 374.972 255.205 374.84 255.53H373.5C373.55 255.085 373.692 254.654 373.915 254.265C374.139 253.876 374.44 253.538 374.801 253.271C375.161 253.003 375.572 252.813 376.009 252.711C376.446 252.61 376.899 252.599 377.34 252.68C377.822 252.776 378.297 252.906 378.76 253.07C379.212 253.223 379.677 253.33 380.15 253.39C380.531 253.401 380.906 253.295 381.224 253.085C381.542 252.876 381.789 252.574 381.93 252.22L383.27 252.27Z" fill="#0095AD"/>
<path d="M405.5 268.08C405.5 272.78 402.87 277.54 397.18 277.54C391.49 277.54 388.86 272.78 388.86 268.08C388.86 263.38 391.5 258.67 397.16 258.67C402.82 258.67 405.48 263.44 405.48 268.13L405.5 268.08ZM397.16 260.63C392.86 260.63 391.16 264.82 391.16 268.13C391.16 271.44 392.87 275.64 397.16 275.64C401.45 275.64 403.16 271.44 403.16 268.13C403.16 264.82 401.45 260.63 397.16 260.63Z" fill="#0095AD"/>
<path d="M303.58 5.67C300.785 3.5888 297.855 1.69467 294.81 0C291.158 1.74548 287.635 3.75062 284.27 6C276.585 11.4242 269.844 18.0765 264.32 25.69C261.564 29.4709 259.144 33.4863 257.09 37.69C256.22 39.42 252.56 47.46 252.36 50.07C255.961 43.3532 260.403 37.123 265.58 31.53C275.95 20.31 288.89 12.02 303.58 5.64" fill="#FCB415"/>
<path d="M294.16 116.83C298.717 110.825 304.104 105.499 310.16 101.01C331.27 84.7599 354.38 72.0099 378.6 61.1399C378.6 60.5799 378.6 60.0199 378.6 59.4599C378.603 52.925 377.793 46.4151 376.19 40.0799C375.94 40.1799 375.65 40.3199 375.3 40.4899C369.57 43.2599 363.83 45.9999 358.16 48.8799C341.04 57.5399 324.24 66.7899 308.48 77.7799C300.01 83.6899 291.9 90.0399 284.92 97.7099C280.98 102.04 277.5 106.71 275.38 112.23C274.042 115.512 273.575 119.085 274.023 122.601C274.472 126.117 275.821 129.458 277.94 132.3L278.06 133.22L277.48 132.83C272.13 129.09 267.92 124.43 266.14 117.99C264.56 112.3 265.55 106.8 267.89 101.49C270.258 96.3555 273.379 91.6032 277.15 87.3899C284.74 78.5699 293.65 71.2299 303.03 64.3899C322.74 50.0899 343.92 38.2599 365.85 27.7599C367.53 26.9599 369.21 26.1899 370.85 25.4299C368.295 20.0922 365.145 15.0603 361.46 10.4299C354.58 13.6199 348.39 16.4299 341.57 19.7699C324.81 27.9499 308.48 36.9199 293.21 47.6899C283.37 54.6299 274.07 62.1999 266.33 71.5099C260.72 78.2799 256.17 85.6199 254.54 94.4299C254.052 97.2559 253.934 100.134 254.19 102.99C253.016 98.4519 252.694 93.7354 253.24 89.0799C254.55 76.8999 257.62 63.1899 284.16 42.0799C300.27 29.2899 338.95 9.27993 339.5 9.07993C337.232 6.73538 334.694 4.66764 331.94 2.91992C318.23 7.51992 263.77 27.4199 253.08 67.2499C249.613 80.8072 250.31 95.0945 255.08 108.25C257.53 116.65 262.73 123.12 269.21 128.71C272.079 131.163 275.131 133.393 278.34 135.38C281.04 137.08 283.84 138.65 286.69 140.13C291.21 142.03 295.59 144.24 300.25 145.81C306.288 147.918 312.538 149.356 318.89 150.1C319.51 150.18 320.89 150.29 320.98 150.3C320.57 149.95 320.32 149.73 320.06 149.52C318.34 149.31 314.65 148.52 314.5 148.52C313.534 148.322 312.592 148.02 311.69 147.62C309.874 146.961 308.21 145.94 306.8 144.62C306.007 143.913 305.408 143.017 305.058 142.014C304.708 141.011 304.619 139.936 304.8 138.89C305.183 136.95 306.031 135.131 307.27 133.59C307.57 133.18 307.87 132.79 308.19 132.41C310.283 129.895 312.667 127.636 315.29 125.68C322.171 120.431 329.483 115.774 337.15 111.76L337.34 111.52L343.34 98.0899C343.43 97.8899 343.53 97.6899 343.63 97.4899C342.2 98.1899 340.77 98.8899 339.35 99.6099C330.744 103.843 322.444 108.672 314.51 114.06C310.225 116.946 306.274 120.3 302.73 124.06C300.735 126.188 299.121 128.644 297.96 131.32C297.342 132.796 297.186 134.424 297.51 135.99C298.37 140.49 302.09 143.32 303.08 144.06C303.294 144.444 303.474 144.845 303.62 145.26L302.84 144.95C299.217 143.618 295.896 141.579 293.07 138.95C292.77 138.66 292.5 138.37 292.24 138.07C290.933 136.673 289.971 134.989 289.433 133.154C288.894 131.318 288.794 129.381 289.14 127.5C289.79 123.5 291.75 120.09 294.14 116.89" fill="#FCB415"/>
<path d="M0.959942 226.07L26.8399 167.67C28.6499 163.67 31.9299 161.2 36.3899 161.2H37.3899C41.8499 161.2 45.0299 163.64 46.8299 167.67L72.7099 226.11C73.2256 227.133 73.5155 228.255 73.5599 229.4C73.5745 230.426 73.3851 231.444 73.0026 232.396C72.6202 233.348 72.0524 234.214 71.3322 234.944C70.612 235.675 69.7539 236.255 68.8075 236.651C67.8612 237.047 66.8457 237.25 65.8199 237.25C61.9999 237.25 59.4499 235.02 57.9699 231.63L52.9699 219.96H20.2699L15.0699 232.16C14.4707 233.671 13.4253 234.964 12.0729 235.866C10.7205 236.769 9.1254 237.237 7.49994 237.21C6.50054 237.213 5.51061 237.017 4.58801 236.632C3.66541 236.248 2.82864 235.684 2.12663 234.973C1.42461 234.261 0.871427 233.417 0.499405 232.49C0.127384 231.562 -0.0560094 230.569 -0.0400576 229.57C0.0421522 228.346 0.382979 227.153 0.959942 226.07ZM46.8899 205.49L36.5999 180.99L26.3099 205.49H46.8899Z" fill="#0095AD"/>
<path d="M85.1799 204.75V169.85C85.1799 167.683 86.0407 165.605 87.5728 164.073C89.105 162.541 91.1831 161.68 93.3499 161.68C95.5167 161.68 97.5948 162.541 99.127 164.073C100.659 165.605 101.52 167.683 101.52 169.85V204.33C101.52 216.42 107.52 222.67 117.52 222.67C127.52 222.67 133.52 216.67 133.52 204.86V169.86C133.52 167.693 134.381 165.615 135.913 164.083C137.445 162.551 139.523 161.69 141.69 161.69C143.857 161.69 145.935 162.551 147.467 164.083C148.999 165.615 149.86 167.693 149.86 169.86V204.23C149.86 226.72 137.23 237.75 117.29 237.75C97.3499 237.75 85.1499 226.61 85.1499 204.75" fill="#0095AD"/>
<path d="M165.06 228.72C164.099 228.009 163.32 227.082 162.785 226.013C162.249 224.945 161.974 223.765 161.98 222.57C161.979 221.571 162.176 220.582 162.561 219.661C162.946 218.74 163.51 217.904 164.221 217.203C164.933 216.502 165.776 215.95 166.703 215.578C167.63 215.207 168.622 215.024 169.62 215.04C171.294 215.024 172.93 215.543 174.29 216.52C179.91 220.66 186.06 223.21 193.29 223.21C199.97 223.21 204 220.55 204 216.21V215.99C204 211.86 201.46 209.74 189 206.55C174 202.74 164.39 198.6 164.39 183.86V183.67C164.39 170.2 175.21 161.29 190.39 161.29C198.71 161.168 206.888 163.453 213.94 167.87C215.345 168.734 216.43 170.034 217.027 171.572C217.625 173.109 217.703 174.801 217.25 176.387C216.796 177.973 215.837 179.368 214.517 180.358C213.197 181.348 211.59 181.879 209.94 181.87C208.477 181.878 207.042 181.473 205.8 180.7C200.39 177.52 195.3 175.7 190.21 175.7C183.95 175.7 180.66 178.56 180.66 182.17V182.38C180.66 187.26 183.84 188.85 196.66 192.14C211.72 196.06 220.2 201.47 220.2 214.41V214.62C220.2 229.37 208.96 237.62 192.94 237.62C182.942 237.632 173.19 234.517 165.05 228.71" fill="#0095AD"/>
<path d="M234.43 170.49C234.422 169.415 234.628 168.349 235.036 167.354C235.443 166.359 236.045 165.455 236.805 164.695C237.565 163.935 238.469 163.333 239.464 162.926C240.459 162.518 241.525 162.312 242.6 162.32H264.77C282.48 162.32 293.19 172.82 293.19 187.99V188.2C293.19 205.39 279.83 214.3 263.19 214.3H250.76V229.04C250.798 230.136 250.616 231.229 250.223 232.253C249.83 233.277 249.234 234.212 248.472 235.001C247.71 235.79 246.797 236.418 245.787 236.846C244.778 237.275 243.692 237.496 242.595 237.496C241.498 237.496 240.412 237.275 239.403 236.846C238.393 236.418 237.48 235.79 236.718 235.001C235.956 234.212 235.361 233.277 234.968 232.253C234.574 231.229 234.392 230.136 234.43 229.04V170.49ZM263.71 199.77C271.87 199.77 276.65 194.89 276.65 188.52V188.31C276.65 180.99 271.55 177.07 263.39 177.07H250.76V199.77H263.71Z" fill="#0095AD"/>
<path d="M306.03 169.85C306.03 167.683 306.891 165.605 308.423 164.073C309.955 162.541 312.033 161.68 314.2 161.68C316.367 161.68 318.445 162.541 319.977 164.073C321.509 165.605 322.37 167.683 322.37 169.85V229.04C322.37 230.113 322.159 231.175 321.748 232.167C321.338 233.158 320.736 234.059 319.977 234.817C319.218 235.576 318.318 236.178 317.327 236.588C316.335 236.999 315.273 237.21 314.2 237.21C313.127 237.21 312.065 236.999 311.074 236.588C310.082 236.178 309.182 235.576 308.423 234.817C307.664 234.059 307.063 233.158 306.652 232.167C306.241 231.175 306.03 230.113 306.03 229.04V169.85Z" fill="#0095AD"/>
<path d="M340.93 170.07C340.921 168.995 341.126 167.928 341.533 166.933C341.94 165.937 342.542 165.033 343.302 164.272C344.063 163.512 344.967 162.91 345.962 162.503C346.958 162.096 348.025 161.891 349.1 161.9H350.79C354.72 161.9 357.05 163.81 359.28 166.67L390.78 208.04V169.75C390.854 167.66 391.736 165.681 393.24 164.228C394.744 162.776 396.754 161.964 398.845 161.964C400.936 161.964 402.946 162.776 404.45 164.228C405.954 165.681 406.836 167.66 406.91 169.75V228.83C406.918 229.905 406.712 230.97 406.304 231.965C405.896 232.959 405.295 233.862 404.534 234.622C403.774 235.381 402.87 235.982 401.875 236.388C400.88 236.795 399.815 237 398.74 236.99H398.21C394.28 236.99 391.95 235.09 389.72 232.22L357.05 189.37V229.15C357.05 231.288 356.201 233.338 354.689 234.849C353.178 236.361 351.128 237.21 348.99 237.21C346.852 237.21 344.802 236.361 343.291 234.849C341.779 233.338 340.93 231.288 340.93 229.15V170.07Z" fill="#0095AD"/>
<path d="M2.1499 277.01L12.3199 251.33H15.0299L25.2699 277.01H22.7399L20.0099 270.07H7.2399L4.4999 277.01H2.1499ZM19.1499 267.94L13.5999 253.46L7.9399 267.94H19.1499Z" fill="#0095AD"/>
</g>
<defs>
<clipPath id="clip0">
<rect width="406.9" height="283.84" fill="white"/>
</clipPath>
</defs>
</svg>
