<svg width="111" height="97" viewBox="0 0 111 97" fill="none" xmlns="http://www.w3.org/2000/svg">
<path fill-rule="evenodd" clip-rule="evenodd" d="M8.74588 70.2112C8.74588 71.5244 8.39778 72.5311 7.7451 73.1877C7.0489 73.8443 6.04812 74.1507 4.69924 74.1507C3.35035 74.1507 2.30606 73.8005 1.65337 73.1877C0.957174 72.5311 0.652588 71.5681 0.652588 70.2112V60.625H2.00147H3.35035V70.3863C3.35035 71.0429 3.43738 71.5244 3.65494 71.787C3.8725 72.0496 4.2206 72.181 4.74275 72.181C5.2649 72.181 5.613 72.0496 5.83056 71.787C6.04812 71.5244 6.13514 71.0429 6.13514 70.3863V60.625H7.397H8.74588V70.2112ZM13.5322 73.9756H12.4444H11.3131V60.6688H13.3147H15.3162L17.6224 71.9183V60.6688H18.7102H19.8415V73.9756H17.84H15.8384L13.5322 62.5948V73.9756ZM22.1477 73.9756V60.6688H23.4966H24.8455V73.9756H23.4966H22.1477ZM26.4554 60.625H27.8043H29.1532L30.9807 70.9553L32.7647 60.625H34.0701H35.3754L32.5036 73.9756H30.9372H29.3272L26.4554 60.625ZM37.1594 73.9756V60.6688H43.7733V61.6755V62.6823H39.8572V66.1841H43.6428V67.1909V68.1977H39.8572V72.0496H43.8168V73.0564V74.0632H37.1594V73.9756ZM45.9054 73.9756V60.6688H47.2543H49.865C51.301 60.6688 52.3017 60.9314 52.9109 61.4567C53.5201 61.982 53.8247 62.8574 53.8247 64.1268C53.8247 65.5275 53.5201 66.4905 52.9109 66.972C52.6063 67.2347 52.1277 67.4098 51.475 67.5411H51.6055C52.3453 67.5411 52.9109 67.8037 53.3025 68.2852C53.6941 68.7667 53.8682 69.4671 53.8247 70.3863C53.8247 70.9116 53.7812 71.4368 53.8247 72.0059C53.8247 72.5749 53.8682 73.0126 53.8682 73.319C53.9117 73.6255 53.9117 73.8443 53.9987 73.9756H52.6498H51.301C51.2574 73.8443 51.2139 73.6255 51.2139 73.319C51.2139 73.0126 51.1704 72.5749 51.1704 72.0059V70.3863C51.1704 69.7297 51.0399 69.2482 50.7788 68.9856C50.5177 68.7229 50.0391 68.5916 49.3864 68.5916H48.6032V73.9756H47.2543H45.9054ZM48.6032 66.4905H49.3429C50.0391 66.4905 50.5177 66.3592 50.7353 66.0966C50.9529 65.8339 51.0834 65.3087 51.0834 64.5208C51.0834 63.7766 50.9529 63.2951 50.6918 63.0325C50.4307 62.7699 49.9956 62.6385 49.2994 62.6385H48.5597V66.4905H48.6032ZM61.0912 64.7396V64.3457C61.0912 63.6453 61.0042 63.1638 60.8302 62.8574C60.6561 62.551 60.308 62.4197 59.8294 62.4197C59.3507 62.4197 59.0026 62.551 58.7851 62.8136C58.5675 63.0763 58.437 63.4702 58.437 63.9955C58.437 64.4332 58.5675 64.7834 58.8286 65.046C59.0897 65.3524 59.5683 65.6588 60.2645 65.9653C61.6134 66.6218 62.5707 67.2347 63.0928 67.8475C63.615 68.4603 63.9195 69.2044 63.9195 70.0799C63.9195 71.4368 63.5714 72.3998 62.8752 73.1002C62.179 73.7568 61.1347 74.107 59.7424 74.107C58.2194 74.107 57.1751 73.8005 56.5224 73.2315C55.9133 72.6187 55.5652 71.6557 55.5652 70.2987V70.1674V69.7735H58.2194V70.1674C58.2194 70.824 58.3064 71.3055 58.5675 71.6119C58.8286 71.9183 59.1767 72.0934 59.6988 72.0934C60.1775 72.0934 60.5691 71.9621 60.7866 71.6557C61.0477 71.3493 61.1347 70.9116 61.1347 70.3425C61.1347 69.9048 61.0042 69.5546 60.6996 69.2044C60.395 68.898 59.8729 68.5478 59.1332 68.1977C57.8278 67.5848 56.9576 66.972 56.4354 66.403C55.9133 65.8339 55.6522 65.0898 55.6522 64.2144C55.6522 62.9012 56.0003 61.9382 56.6965 61.3254C57.3927 60.6688 58.437 60.3624 59.8294 60.3624C61.2653 60.3624 62.2661 60.6688 62.8317 61.2378C63.3974 61.8069 63.6585 62.7261 63.6585 63.9955V64.3019V64.6959H61.0912V64.7396ZM66.0952 73.9756V60.6688H67.444H68.7929V73.9756H67.444H66.0952ZM71.2296 73.9756V60.6688H72.5785H74.7976C76.4946 60.6688 77.713 61.019 78.4527 61.6755C79.1924 62.3321 79.5405 63.4702 79.5405 65.0898V68.8105C79.5405 70.824 79.2359 72.181 78.5832 72.8813C77.9305 73.6255 76.7122 73.9756 74.9717 73.9756H72.622H71.2296ZM73.9274 71.9621H74.6236C75.4938 71.9621 76.0595 71.787 76.3205 71.4368C76.6251 71.0866 76.7557 70.4301 76.7557 69.4233V65.0023C76.7557 64.083 76.5816 63.4702 76.277 63.1638C75.9289 62.8136 75.3633 62.6385 74.493 62.6385H73.9274V71.9621ZM81.281 73.9756L84.2833 60.6688H85.8498H87.4597L90.4621 73.9756H89.1567H87.8513L87.3292 71.0866H84.4574L83.8917 73.9756H82.5863H81.281ZM85.8933 63.12L84.8055 69.0731H86.9811L85.8933 63.12ZM92.5071 73.9756V60.6688H93.856H96.0752C97.7721 60.6688 98.9905 61.019 99.7302 61.6755C100.47 62.3321 100.818 63.4702 100.818 65.0898V68.8105C100.818 70.824 100.513 72.181 99.8607 72.8813C99.208 73.6255 97.9897 73.9756 96.2492 73.9756H93.8995H92.5071ZM95.2049 71.9621H95.9011C96.7714 71.9621 97.337 71.787 97.5981 71.4368C97.9027 71.0866 98.0332 70.4301 98.0332 69.4233V65.0023C98.0332 64.083 97.8592 63.4702 97.5546 63.1638C97.2065 62.8136 96.6408 62.6385 95.7706 62.6385H95.2049V71.9621ZM103.081 73.9756V60.6688H109.695V61.6755V62.6823H105.778V66.1841H109.564V67.1909V68.1977H105.778V72.0496H109.738V73.0564V74.0632H103.081V73.9756ZM0.6961 96.7811V83.4743H2.04498H4.26411C5.96109 83.4743 7.17944 83.8245 7.91915 84.4811C8.65886 85.1376 9.00696 86.2757 9.00696 87.8953V91.616C9.00696 93.6295 8.70237 94.9865 8.04969 95.7306C7.397 96.4747 6.17866 96.8249 4.43816 96.8249H2.04498H0.6961V96.7811ZM3.39387 94.8114H4.09006C4.96031 94.8114 5.52597 94.6363 5.78704 94.2861C6.09163 93.9359 6.22217 93.2793 6.22217 92.2726V87.8515C6.22217 86.9323 6.04812 86.3195 5.74353 86.0131C5.39543 85.6629 4.82977 85.4878 3.95953 85.4878H3.39387V94.8114ZM11.2696 96.7811V83.4743H17.8835V84.4811V85.4878H13.9674V88.9896H17.7529V89.9964V91.0032H13.9674V94.8551H17.927V95.8619V96.8687H11.2696V96.7811ZM30.4585 87.5889V87.1949C30.4585 86.4946 30.3715 86.0131 30.1975 85.7067C30.0234 85.4003 29.6753 85.269 29.1967 85.269C28.7181 85.269 28.3699 85.4003 28.1524 85.6629C27.9348 85.9255 27.8043 86.3195 27.8043 86.8448C27.8043 87.2825 27.9348 87.6327 28.2394 87.8953C28.5005 88.2017 28.9791 88.5081 29.6753 88.8145C31.0242 89.4711 31.9815 90.0839 32.5036 90.6968C33.0258 91.3096 33.3304 92.0537 33.3304 92.9292C33.3304 94.2861 32.9823 95.2491 32.2861 95.9495C31.5899 96.606 30.5456 96.9562 29.1532 96.9562C27.6302 96.9562 26.5859 96.6498 25.9333 96.0808C25.3241 95.468 24.976 94.505 24.976 93.148V93.0167V92.6227H27.6302V93.0167C27.6302 93.6733 27.7173 94.1548 27.9783 94.4612C28.2394 94.7676 28.5875 94.9427 29.1097 94.9427C29.5883 94.9427 29.9799 94.8114 30.1975 94.505C30.4585 94.1986 30.5456 93.7608 30.5456 93.1918C30.5456 92.7541 30.415 92.4039 30.1104 92.0537C29.8059 91.7473 29.2837 91.3971 28.544 91.0469C27.2386 90.4341 26.3684 89.8213 25.8462 89.2523C25.3241 88.6832 25.063 87.9391 25.063 87.0636C25.063 85.7505 25.4111 84.7875 26.1073 84.1746C26.8035 83.5181 27.8478 83.2116 29.2402 83.2116C30.6761 83.2116 31.6769 83.5181 32.2425 84.0871C32.8082 84.6561 33.0693 85.5754 33.0693 86.8448V87.1512V87.5451H30.4585V87.5889ZM35.0273 96.7811L38.0297 83.4743H39.5961H41.2061L44.2084 96.7811H42.9031H41.5977L41.0756 93.8922H38.2037L37.6381 96.7811H36.3327H35.0273ZM39.6832 85.9693L38.5518 91.9224H40.7275L39.6832 85.9693ZM36.7243 82.0736C36.7243 81.2419 36.8113 80.6291 36.9854 80.2789C37.1594 79.9287 37.5075 79.7536 37.9862 79.7536C38.2473 79.7536 38.5083 79.7974 38.8129 79.8412C39.1175 79.9287 39.4656 80.0162 39.9007 80.1913C40.0313 80.2351 40.2053 80.2789 40.3794 80.3664C40.5534 80.4102 40.6839 80.454 40.7275 80.454C40.858 80.454 40.945 80.3664 41.032 80.2351C41.1191 80.1038 41.1626 79.9287 41.1626 79.7098H42.555C42.555 80.5853 42.4679 81.1981 42.2939 81.5045C42.1199 81.8109 41.8153 81.986 41.3366 81.986C41.0756 81.986 40.8145 81.9422 40.5099 81.8985C40.2053 81.8109 39.8137 81.7234 39.3786 81.5483C38.9435 81.3732 38.6824 81.3294 38.5954 81.3294C38.4648 81.3294 38.3343 81.417 38.2473 81.5483C38.1602 81.6796 38.1167 81.8547 38.1167 82.0736H36.7243ZM50.2567 97C48.7337 97 47.6894 96.6498 47.0803 95.9932C46.4711 95.2929 46.1665 94.1548 46.1665 92.4914V87.0199C46.1665 85.7942 46.5146 84.8312 47.2108 84.2184C47.907 83.6056 48.9078 83.2992 50.3002 83.2992C51.6926 83.2992 52.6934 83.6056 53.3895 84.2184C54.0857 84.8312 54.4338 85.7505 54.4338 87.0199V92.4914C54.4338 94.1548 54.1293 95.3366 53.5201 95.9932C52.8239 96.6498 51.7361 97 50.2567 97ZM50.2567 94.9865C50.7788 94.9865 51.1704 94.8114 51.3445 94.4612C51.562 94.111 51.6491 93.4982 51.6491 92.579V87.1074C51.6491 86.4946 51.5185 86.0569 51.301 85.7505C51.0399 85.444 50.6918 85.269 50.2567 85.269C49.778 85.269 49.4299 85.444 49.2124 85.7505C48.9948 86.0569 48.8643 86.4946 48.8643 87.1074V92.579C48.8643 93.4982 48.9513 94.111 49.1689 94.4612C49.3429 94.8114 49.7345 94.9865 50.2567 94.9865ZM61.8745 96.7811V83.4743H63.2233H65.8776C67.3135 83.4743 68.3578 83.7807 68.967 84.3935C69.5761 85.0063 69.8807 86.0131 69.8807 87.4138C69.8807 89.0334 69.5761 90.0839 68.967 90.653C68.3578 91.222 67.1395 91.4847 65.3554 91.4847H64.5722V96.7811H63.2233H61.8745ZM64.6157 89.4711H65.399C66.1387 89.4711 66.6173 89.3398 66.8349 89.0772C67.0959 88.8145 67.183 88.2455 67.183 87.4576C67.183 86.7135 67.0524 86.1882 66.7914 85.8818C66.5303 85.6191 66.0516 85.444 65.3554 85.444H64.5722V89.4711H64.6157ZM71.3601 96.7811L74.3625 83.4743H75.9289H77.5389L80.5413 96.7811H79.2359H77.9305L77.4084 93.8922H74.5366L74.0144 96.7811H72.709H71.3601ZM76.016 85.9693L74.9282 91.9224H77.1038L76.016 85.9693ZM90.6361 93.0605C90.6361 94.3737 90.288 95.3804 89.6353 96.037C88.9391 96.6936 87.9383 97 86.5895 97C85.2406 97 84.1963 96.6498 83.5436 96.037C82.8474 95.3804 82.5428 94.4174 82.5428 93.0605V83.4743H83.8917H85.2406V93.2356C85.2406 93.8922 85.3276 94.3736 85.5452 94.6363C85.7627 94.8989 86.1108 95.0302 86.633 95.0302C87.1551 95.0302 87.5032 94.8989 87.7208 94.6363C87.9384 94.3736 88.0254 93.9359 88.0254 93.2356V83.4743H89.3743H90.7231V93.0605H90.6361ZM93.2033 96.7811V83.4743H94.5522H95.9011V94.8114H99.3386V95.8181V96.8249H93.2033V96.7811ZM105.343 97C103.82 97 102.776 96.6498 102.167 95.9932C101.558 95.2929 101.253 94.1548 101.253 92.4914V87.0199C101.253 85.7942 101.601 84.8312 102.297 84.2184C102.994 83.6056 103.994 83.2992 105.387 83.2992C106.779 83.2992 107.78 83.6056 108.476 84.2184C109.172 84.8312 109.52 85.7505 109.52 87.0199V92.4914C109.52 94.1548 109.216 95.3366 108.607 95.9932C107.954 96.6498 106.866 97 105.343 97ZM105.343 94.9865C105.865 94.9865 106.257 94.8114 106.431 94.4612C106.649 94.111 106.736 93.4982 106.736 92.579V87.1074C106.736 86.4946 106.605 86.0569 106.388 85.7505C106.127 85.444 105.778 85.269 105.343 85.269C104.865 85.269 104.517 85.444 104.299 85.7505C104.081 86.0569 103.951 86.4946 103.951 87.1074V92.579C103.951 93.4982 104.038 94.111 104.255 94.4612C104.473 94.8114 104.821 94.9865 105.343 94.9865Z" fill="white"/>
<path fill-rule="evenodd" clip-rule="evenodd" d="M46.5147 42.2843H64.5288V45.3046H46.5147V42.2843ZM46.5147 0H64.5288V3.02031H46.5147V0ZM10.4865 42.2405H28.5006V45.2608H10.4865V42.2405ZM0 0H3.00235H35.9847V3.02031H21.0165V34.6679H18.0141V3.02031H3.00235V34.7116H0V0ZM35.9847 17.2464V10.5492H38.9871V15.977L56.5661 33.6611L54.4775 35.806L35.9847 17.2464ZM75.0153 28.0582V34.7116H72.0129V29.2838L54.4775 11.5997L56.5661 9.45487L75.0153 28.0582ZM82.4994 0H100.514V3.02031H82.4994V0ZM75.0153 42.2405H90.027V10.5492H93.0294V27.139H108.041V10.5492H111.044V30.2031H93.0294V45.3046H75.0153V42.2405ZM46.5147 0C40.9886 0 35.9847 4.77121 35.9847 10.5492H38.9871C38.9871 6.25948 42.4681 3.02031 46.4712 3.02031C46.5147 1.57581 46.5147 1.09431 46.5147 0ZM3.00235 34.7116C3.00235 38.87 6.3528 42.2405 10.4865 42.2405V45.2608C4.69933 45.2608 0 40.5334 0 34.7116H3.00235ZM107.998 10.5492C107.998 6.39079 104.647 3.02031 100.514 3.02031V0C106.301 0 111 4.72744 111 10.5492H107.998ZM72.0129 34.7116C72.0129 38.87 68.6625 42.2843 64.5288 42.2843V45.3046C70.316 45.3046 75.0153 40.5772 75.0153 34.7554H72.0129V34.7116ZM72.0129 10.5492C72.0129 6.39079 68.6625 3.02031 64.5288 3.02031V0C68.3579 0 71.7084 2.05731 73.5359 5.12139V10.5492H72.0129ZM75.0153 10.5492C75.0153 6.39079 78.3657 3.02031 82.4994 3.02031V0C78.6703 0 75.3199 2.05731 73.4924 5.12139V10.5492H75.0153ZM38.9871 34.7116C38.9871 38.87 42.3375 42.2405 46.4712 42.2405V45.2608C42.6421 45.2608 39.2916 43.2035 37.4641 40.1394V34.7116H38.9871ZM35.9847 34.7116C35.9847 38.87 32.6343 42.2405 28.5006 42.2405V45.2608C32.3297 45.2608 35.6801 43.2035 37.5076 40.1394V34.7116H35.9847Z" fill="white"/>
</svg>
