<svg width="335" height="337" viewBox="0 0 335 337" fill="none" xmlns="http://www.w3.org/2000/svg">
<path d="M10.67 226.8V245.31H26.69V226.8H36.39V274.98H26.69V254.82H10.67V274.98H0.960007V226.8H10.67Z" fill="#0C71B7"/>
<path d="M52.03 226.8V254.47C52.03 262.84 54.9 267.05 59.82 267.05C64.93 267.05 67.74 263.05 67.74 254.47V226.8H77.44V253.82C77.44 268.69 70.74 275.77 59.5 275.77C48.65 275.77 42.33 268.98 42.33 253.68V226.8H52.03Z" fill="#0C71B7"/>
<path d="M83.38 227.44C85.93 226.94 91.04 226.44 95.96 226.44C101.9 226.44 105.54 227.08 108.73 229.16C111.73 230.95 113.84 234.24 113.84 238.67C113.84 242.89 111.61 246.82 106.75 248.89V249.03C111.67 250.46 115.3 254.68 115.3 260.83C115.3 265.26 113.51 268.7 110.83 271.12C107.7 273.91 102.47 275.48 93.91 275.48C89.12 275.48 85.55 275.12 83.38 274.77V227.44V227.44ZM93.02 245.89H96.21C101.38 245.89 104.06 243.53 104.06 239.96C104.06 236.31 101.57 234.38 97.17 234.38C95 234.38 93.79 234.52 93.02 234.67V245.89ZM93.02 267.26C93.98 267.4 95.13 267.4 96.79 267.4C101.19 267.4 105.09 265.47 105.09 260.39C105.09 255.6 101.2 253.67 96.34 253.67H93.02V267.26V267.26Z" fill="#0C71B7"/>
<path d="M258.14 330.28V336.28H244.25V330.28H258.14Z" fill="#0C71B7"/>
<path d="M286.04 280.63V286.63H272.14V280.63H286.04Z" fill="#0C71B7"/>
<path d="M7.96001 288.78V311.19C7.96001 317.96 10.29 321.38 14.27 321.38C18.41 321.38 20.68 318.14 20.68 311.19V288.78H28.54V310.67C28.54 322.71 23.11 328.44 14.01 328.44C5.22001 328.44 0.100006 322.94 0.100006 310.55V288.78H7.96001Z" fill="#0C71B7"/>
<path d="M33.6 318.71C35.67 319.93 38.98 321.14 42.34 321.14C45.96 321.14 47.87 319.46 47.87 316.91C47.87 314.48 46.22 313.09 42.03 311.47C36.24 309.15 32.42 305.56 32.42 299.89C32.42 293.23 37.43 288.2 45.6 288.2C49.58 288.2 52.42 289.07 54.49 290.17L52.73 297.23C51.39 296.48 48.85 295.38 45.49 295.38C42.08 295.38 40.42 297.17 40.42 299.14C40.42 301.63 42.33 302.73 46.88 304.64C53.03 307.19 55.87 310.78 55.87 316.28C55.87 322.82 51.42 328.38 41.86 328.38C37.88 328.38 33.95 327.17 31.99 325.95L33.6 318.71Z" fill="#0C71B7"/>
<path d="M59.24 289.3C61.67 288.84 65.08 288.49 69.89 288.49C74.75 288.49 78.21 289.53 80.54 291.62C82.81 293.59 84.26 296.83 84.26 300.65C84.26 304.47 83.17 307.77 81.05 309.91C78.36 312.69 74.38 314.02 69.73 314.02C68.7 314.02 67.77 313.96 67.04 313.79V327.8H59.23V289.3H59.24ZM67.05 307.01C67.72 307.18 68.5 307.24 69.69 307.24C73.88 307.24 76.46 304.87 76.46 300.93C76.46 297.34 74.24 295.2 70.26 295.2C68.71 295.2 67.62 295.31 67.05 295.49V307.01Z" fill="#0C71B7"/>
<path d="M103.54 288.78V327.8H95.69V288.78H103.54Z" fill="#0C71B7"/>
<path d="M108.35 327.8V288.78H117.55L124.79 303.08C126.86 307.19 128.87 312.05 130.48 316.46H130.58C130.12 311.31 129.96 306.04 129.96 300.13V288.78H137.2V327.8H128.93L121.49 312.75C119.42 308.58 117.1 303.54 115.44 298.97H115.23C115.49 304.18 115.59 309.68 115.59 316.05V327.8H108.35Z" fill="#0C71B7"/>
<path d="M173.9 307.88C173.9 320.73 167.02 328.43 156.79 328.43C146.5 328.43 140.4 319.69 140.4 308.51C140.4 296.81 147.12 288.07 157.36 288.07C168.06 288.08 173.9 297.05 173.9 307.88ZM148.73 308.34C148.73 316.04 151.94 321.42 157.21 321.42C162.53 321.42 165.58 315.75 165.58 308.16C165.58 301.1 162.63 295.08 157.21 295.08C151.83 295.09 148.73 300.76 148.73 308.34Z" fill="#0C71B7"/>
<path d="M184.86 327.8L173.69 288.78H182.32L186.56 305.28C187.75 309.97 188.83 314.37 189.66 319.23H189.82C190.7 314.54 191.78 309.91 192.97 305.45L197.42 288.77H205.79L194.06 327.79H184.86V327.8Z" fill="#0C71B7"/>
<path d="M212.83 317.78L210.35 327.8H202.23L212.83 288.78H223.17L234.03 327.8H225.5L222.81 317.78H212.83ZM221.67 311.18L219.5 302.9C218.88 300.58 218.26 297.69 217.74 295.37H217.64C217.12 297.69 216.61 300.64 216.04 302.9L213.97 311.18H221.67Z" fill="#0C71B7"/>
<path d="M260.86 326.76C259.47 327.51 256.16 328.44 251.97 328.44C239.93 328.44 233.72 319.99 233.72 308.87C233.72 295.55 242.2 288.2 252.74 288.2C256.82 288.2 259.93 289.07 261.32 289.94L259.67 296.89C258.12 296.14 255.9 295.44 253.05 295.44C246.85 295.44 241.99 299.67 241.99 308.35C241.99 316.17 246.13 321.09 253.1 321.09C255.53 321.09 258.12 320.57 259.72 319.82L260.86 326.76Z" fill="#0C71B7"/>
<path d="M272.7 317.78L270.22 327.8H262.1L272.7 288.78H283.04L293.9 327.8H285.37L282.68 317.78H272.7ZM281.54 311.18L279.37 302.9C278.75 300.58 278.13 297.69 277.61 295.37H277.51C276.99 297.69 276.48 300.64 275.91 302.9L273.84 311.18H281.54Z" fill="#0C71B7"/>
<path d="M327.09 307.88C327.09 320.73 320.21 328.43 309.98 328.43C299.69 328.43 293.59 319.69 293.59 308.51C293.59 296.81 300.31 288.07 310.55 288.07C321.24 288.08 327.09 297.05 327.09 307.88ZM301.91 308.34C301.91 316.04 305.12 321.42 310.39 321.42C315.72 321.42 318.77 315.75 318.77 308.16C318.77 301.1 315.82 295.08 310.39 295.08C305.01 295.09 301.91 300.76 301.91 308.34Z" fill="#0C71B7"/>
<path d="M164.06 226.45L161.36 222.48L179.38 210.25L182.08 214.22L164.06 226.45ZM149.11 215.23L145.9 170.71L133.77 170L134.05 165.21L145.55 165.88L144.09 145.71L127.73 157.04L125 153.09L143.69 140.15L141.15 104.97L145.94 104.62L148.28 136.97L171.42 120.95L149.22 100.74L152.45 97.19L175.47 118.14L193.88 105.4L177.86 40.85L182.52 39.69L198.1 102.47L212.98 92.17L215.71 96.12L199.34 107.46L206.82 137.59L202.16 138.75L195.12 110.39L179.12 121.47L198.63 139.23L195.4 142.78L175.07 124.28L148.69 142.54L150.4 166.17L176.53 167.7L176.25 172.49L150.75 170.99L153.92 214.88L149.11 215.23ZM269.09 162.58L267.79 157.96L297.45 149.63L298.75 154.25L269.09 162.58ZM120.08 150.85L115.51 149.39L129.65 105.29L134.22 106.75L120.08 150.85ZM253.07 143.98L249.03 141.39L270.09 108.56L242.12 88.59L244.91 84.68L272.68 104.51L292.79 73.16L296.83 75.75L276.59 107.3L298.62 123.03L295.83 126.94L274 111.36L253.07 143.98ZM227.24 134.28L222.44 134.18L223.22 97.13L228.02 97.23L227.24 134.28Z" fill="#8A8C8E"/>
<path d="M175.15 43.42C174.58 43.42 174.02 43.4 173.44 43.35C161.58 42.42 152.69 32.01 153.63 20.15C154.56 8.29001 164.97 -0.589998 176.83 0.340002C188.69 1.27 197.58 11.68 196.64 23.54C195.75 34.82 186.28 43.42 175.15 43.42ZM175.12 5.55001C166.71 5.55001 159.56 12.04 158.89 20.56C158.19 29.52 164.9 37.38 173.85 38.08C182.8 38.78 190.66 32.07 191.37 23.12C192.07 14.16 185.36 6.31 176.41 5.6C175.97 5.57 175.54 5.55001 175.12 5.55001Z" fill="#93C13E"/>
<path d="M135.48 108.55C134.91 108.55 134.33 108.53 133.75 108.48C128.01 108.03 122.78 105.37 119.04 100.98C115.3 96.6 113.49 91.02 113.94 85.28C114.39 79.54 117.05 74.31 121.44 70.57C125.82 66.83 131.4 65.02 137.14 65.47C142.88 65.92 148.11 68.58 151.85 72.97C155.59 77.35 157.4 82.93 156.95 88.67C156.5 94.41 153.84 99.64 149.45 103.38C145.52 106.75 140.61 108.55 135.48 108.55ZM135.42 70.68C131.55 70.68 127.84 72.04 124.86 74.58C121.55 77.41 119.54 81.35 119.2 85.69C118.86 90.03 120.23 94.24 123.05 97.55C125.87 100.86 129.82 102.87 134.16 103.21C138.5 103.55 142.71 102.18 146.02 99.36C149.33 96.53 151.34 92.59 151.68 88.25C152.02 83.91 150.65 79.7 147.83 76.39C145 73.08 141.06 71.07 136.72 70.73C136.29 70.7 135.86 70.68 135.42 70.68Z" fill="#0C71B7"/>
<path d="M226.99 100.4C226.42 100.4 225.84 100.38 225.26 100.33C219.52 99.88 214.29 97.22 210.55 92.83C206.81 88.45 205 82.87 205.45 77.13C206.38 65.27 216.79 56.39 228.65 57.32C240.51 58.25 249.4 68.66 248.46 80.52C248.01 86.26 245.34 91.49 240.96 95.23C237.02 98.59 232.12 100.39 226.99 100.4ZM226.94 62.53C218.53 62.53 211.38 69.02 210.71 77.54C210.37 81.88 211.74 86.09 214.56 89.4C217.38 92.71 221.33 94.72 225.67 95.06C230.02 95.41 234.22 94.03 237.53 91.21C240.84 88.38 242.85 84.44 243.19 80.1C243.89 71.14 237.18 63.28 228.23 62.58C227.8 62.55 227.37 62.53 226.94 62.53Z" fill="#652B82"/>
<path d="M304.1 80.02C303.53 80.02 302.95 80 302.37 79.95C296.62 79.5 291.4 76.84 287.66 72.45C283.92 68.07 282.11 62.49 282.56 56.75C283.01 51.01 285.67 45.78 290.06 42.04C294.44 38.3 300.02 36.49 305.76 36.94C317.62 37.87 326.51 48.28 325.57 60.14C325.12 65.88 322.46 71.11 318.07 74.85C314.13 78.21 309.23 80.02 304.1 80.02ZM304.04 42.15C300.17 42.15 296.46 43.51 293.48 46.05C290.17 48.88 288.16 52.82 287.82 57.16C287.48 61.5 288.85 65.71 291.67 69.02C294.5 72.33 298.44 74.34 302.78 74.68C307.11 75.02 311.33 73.65 314.64 70.83C317.95 68 319.96 64.06 320.3 59.72C321 50.76 314.29 42.91 305.34 42.2C304.91 42.17 304.47 42.15 304.04 42.15Z" fill="#ED2125"/>
<path d="M312.68 160.46C312.12 160.46 311.55 160.44 310.97 160.39C305.22 159.94 300 157.28 296.26 152.89C292.52 148.51 290.71 142.93 291.16 137.19C291.61 131.45 294.27 126.22 298.66 122.48C303.04 118.74 308.63 116.93 314.36 117.38C326.22 118.31 335.11 128.72 334.17 140.58C333.28 151.87 323.81 160.46 312.68 160.46ZM311.38 155.13C320.33 155.83 328.19 149.12 328.9 140.17C329.6 131.21 322.89 123.36 313.94 122.65C309.61 122.31 305.39 123.68 302.08 126.5C298.77 129.33 296.76 133.27 296.42 137.61C296.08 141.95 297.45 146.16 300.27 149.47C303.09 152.78 307.05 154.79 311.38 155.13Z" fill="#312F82"/>
<path d="M115.31 191.43C114.74 191.43 114.16 191.41 113.58 191.36C107.84 190.91 102.61 188.25 98.87 183.86C95.13 179.48 93.32 173.9 93.77 168.16C94.22 162.42 96.88 157.19 101.27 153.45C105.65 149.71 111.23 147.9 116.97 148.35C128.83 149.28 137.72 159.69 136.78 171.55C136.33 177.29 133.67 182.52 129.28 186.26C125.35 189.62 120.44 191.43 115.31 191.43ZM115.25 153.56C111.38 153.56 107.67 154.92 104.7 157.46C101.39 160.29 99.38 164.23 99.04 168.57C98.7 172.91 100.07 177.12 102.89 180.43C105.72 183.74 109.66 185.75 114 186.09C118.34 186.43 122.55 185.06 125.86 182.24C129.17 179.41 131.18 175.47 131.52 171.13C132.22 162.17 125.51 154.31 116.56 153.61C116.12 153.58 115.68 153.56 115.25 153.56Z" fill="#EFBA4B"/>
<path d="M146.1 255.51C145.53 255.51 144.95 255.49 144.37 255.44C132.51 254.51 123.62 244.1 124.56 232.24C125.01 226.49 127.67 221.27 132.06 217.53C136.44 213.79 142.02 211.97 147.76 212.43C159.62 213.36 168.51 223.77 167.57 235.63C167.12 241.38 164.46 246.6 160.07 250.34C156.14 253.71 151.23 255.51 146.1 255.51ZM146.04 217.64C142.17 217.64 138.46 219 135.49 221.54C132.18 224.37 130.17 228.31 129.83 232.65C129.13 241.61 135.84 249.47 144.79 250.17C149.13 250.51 153.34 249.14 156.65 246.32C159.96 243.49 161.97 239.55 162.31 235.21C163.01 226.25 156.3 218.39 147.35 217.69C146.91 217.66 146.47 217.64 146.04 217.64Z" fill="#D75229"/>
<path d="M191.61 218.63C210.29 236.99 240.31 236.72 258.67 218.04C277.03 199.36 276.76 169.34 258.09 150.98C239.41 132.62 209.39 132.89 191.03 151.56C172.69 170.25 172.96 200.25 191.61 218.63ZM268.69 235.7L296.55 263.07C297.65 264.15 299.41 264.13 300.5 263.04L304.41 259.06C305.49 257.96 305.47 256.2 304.38 255.12L276.52 227.75C275.41 226.71 273.67 226.72 272.58 227.79L268.67 231.77C267.57 232.86 267.59 234.62 268.69 235.7ZM187.05 147.65C207.52 126.76 241.05 126.42 261.95 146.89C282.11 166.65 283.24 198.74 264.51 219.85L268.59 223.86C271.83 220.56 277.13 220.52 280.42 223.76L308.28 251.13C311.58 254.37 311.62 259.67 308.38 262.97L304.47 266.95C301.23 270.24 295.93 270.29 292.64 267.05L264.78 239.67C261.48 236.43 261.44 231.13 264.68 227.84L260.6 223.83C239.07 243.63 205.56 242.23 185.76 220.7C166.63 199.91 167.2 167.76 187.05 147.65Z" fill="#0C71B7"/>
<path d="M224.72 225.15C202.58 225.15 184.48 207.24 184.28 185.06C184.09 162.76 202.07 144.46 224.37 144.27C224.49 144.27 224.61 144.27 224.73 144.27C246.87 144.27 264.97 162.18 265.16 184.36C265.36 206.66 247.37 224.96 225.08 225.15C224.96 225.15 224.84 225.15 224.72 225.15ZM224.73 150.27C224.63 150.27 224.53 150.27 224.43 150.27C205.44 150.44 190.13 166.02 190.29 185.01C190.45 203.9 205.87 219.15 224.73 219.15C224.83 219.15 224.93 219.15 225.03 219.15C244.02 218.98 259.33 203.4 259.17 184.41C259 165.52 243.58 150.27 224.73 150.27Z" fill="#0C71B7"/>
</svg>
