<?xml version="1.0" standalone="no"?>
<!DOCTYPE svg PUBLIC "-//W3C//DTD SVG 20010904//EN"
 "http://www.w3.org/TR/2001/REC-SVG-20010904/DTD/svg10.dtd">
<svg version="1.0" xmlns="http://www.w3.org/2000/svg"
 width="1096.000000pt" height="1096.000000pt" viewBox="0 0 1096.000000 1096.000000"
 preserveAspectRatio="xMidYMid meet">
<metadata>
Created by potrace 1.11, written by Peter Selinger 2001-2013
</metadata>
<g transform="translate(0.000000,1096.000000) scale(0.100000,-0.100000)"
fill="#000000" stroke="none">
<path d="M3739 10930 c-47 -10 -97 -24 -110 -31 -13 -7 -24 -11 -24 -10 0 4
-55 -18 -104 -42 -165 -80 -339 -255 -423 -427 -89 -182 -115 -396 -74 -617
10 -52 67 -205 88 -235 11 -16 16 -28 11 -28 -4 0 -3 -4 2 -8 6 -4 23 -27 38
-50 35 -54 67 -92 131 -155 53 -52 167 -137 184 -137 6 0 12 -4 14 -8 4 -10
164 -78 203 -86 17 -4 41 -9 55 -12 60 -12 100 -16 180 -18 l85 -2 38 -145
c21 -79 39 -153 41 -164 2 -11 20 -85 41 -165 20 -80 38 -152 40 -161 2 -9 8
-33 13 -53 6 -20 8 -36 6 -36 -3 0 0 -8 5 -17 5 -10 11 -31 14 -48 3 -16 33
-138 67 -270 33 -132 63 -249 65 -259 6 -28 64 -267 71 -291 3 -11 7 -33 10
-50 3 -16 10 -32 15 -33 5 -2 7 -7 5 -11 -4 -5 26 -137 59 -263 3 -10 7 -27 9
-38 3 -11 12 -48 21 -83 9 -34 19 -73 21 -87 3 -14 8 -34 11 -45 9 -25 8 -22
18 -70 4 -22 11 -47 16 -56 5 -10 1 -20 -14 -31 -31 -23 -133 -94 -265 -184
-63 -42 -119 -82 -126 -88 -6 -6 -19 -15 -29 -21 -9 -5 -54 -35 -99 -66 -46
-31 -89 -59 -95 -63 -7 -4 -27 7 -46 26 -30 29 -149 137 -211 191 -12 10 -59
53 -105 95 -103 95 -117 108 -227 207 -196 178 -190 171 -175 208 34 81 71
198 78 248 5 30 8 113 7 184 -1 125 -15 207 -52 305 -5 14 -10 28 -11 32 -8
34 -120 218 -133 218 -5 0 -8 5 -8 10 0 11 -85 98 -146 151 -37 32 -156 102
-217 128 -61 26 -181 59 -242 66 -147 18 -325 1 -435 -42 -8 -3 -19 -7 -25 -8
-24 -6 -137 -65 -190 -100 -53 -35 -175 -140 -183 -157 -2 -3 -12 -17 -24 -30
-34 -38 -92 -130 -117 -183 -13 -27 -27 -57 -31 -65 -19 -39 -50 -166 -55
-226 -1 -17 -4 -35 -7 -40 -11 -22 1 -221 18 -276 3 -9 7 -26 9 -39 17 -85 71
-206 131 -292 19 -26 34 -50 34 -55 0 -4 9 -13 20 -20 11 -7 20 -19 20 -27 0
-8 3 -15 8 -15 4 0 33 -25 65 -55 33 -30 60 -55 62 -55 1 0 32 -20 68 -44 37
-25 82 -50 102 -57 19 -7 35 -19 35 -27 0 -8 -21 -80 -47 -161 -26 -80 -48
-149 -49 -153 -1 -5 -3 -10 -4 -13 -1 -3 -3 -8 -4 -12 -3 -16 -69 -219 -79
-248 -7 -16 -12 -32 -12 -35 -2 -17 -40 -127 -48 -137 -5 -7 -7 -13 -4 -13 3
0 -6 -33 -19 -72 -14 -40 -27 -77 -28 -83 -1 -5 -9 -30 -16 -55 -8 -25 -14
-48 -16 -52 -1 -5 -3 -10 -4 -13 -1 -3 -3 -8 -4 -12 -1 -5 -17 -53 -35 -108
-18 -55 -34 -104 -35 -110 -13 -57 -71 -215 -80 -216 -6 -1 -29 -3 -51 -5 -22
-1 -40 -3 -40 -4 0 -1 -16 -4 -35 -6 -19 -3 -42 -8 -50 -11 -8 -3 -26 -8 -40
-10 -13 -2 -30 -9 -37 -15 -7 -6 -13 -8 -13 -4 0 4 -13 0 -30 -9 -16 -9 -30
-12 -30 -8 0 5 -4 4 -8 -2 -4 -5 -29 -21 -57 -35 -116 -58 -257 -178 -323
-275 -15 -22 -30 -41 -34 -43 -5 -2 -8 -9 -8 -17 0 -7 -7 -18 -15 -25 -8 -7
-13 -16 -10 -20 3 -4 -2 -13 -10 -20 -8 -7 -15 -20 -15 -29 0 -9 -6 -23 -13
-29 -6 -7 -12 -16 -13 -20 0 -4 -10 -38 -22 -77 -33 -107 -35 -120 -38 -266
-1 -92 2 -154 12 -195 8 -32 17 -68 19 -79 6 -26 22 -69 48 -125 11 -25 26
-60 34 -77 7 -18 18 -33 23 -33 6 0 10 -5 10 -11 0 -13 90 -127 136 -173 16
-16 54 -47 84 -70 275 -206 633 -249 948 -115 23 10 45 18 49 18 3 0 9 3 12 8
3 5 29 22 56 38 55 32 52 29 134 100 54 47 148 157 177 207 28 49 74 149 74
161 0 7 4 17 9 23 6 5 12 20 15 34 7 31 34 154 35 158 1 1 1 6 1 11 0 6 27 8
63 5 34 -3 82 -5 107 -5 l45 0 1 -42 c2 -58 12 -217 19 -302 11 -135 16 -202
30 -405 3 -52 8 -115 10 -140 4 -42 12 -160 20 -275 1 -27 6 -93 10 -145 5
-52 9 -119 9 -149 l1 -54 -60 -3 c-116 -4 -200 -23 -320 -71 -49 -20 -95 -41
-102 -49 -7 -7 -23 -16 -36 -20 -12 -4 -24 -10 -27 -13 -3 -4 -16 -15 -29 -23
-51 -35 -144 -125 -184 -178 -23 -30 -45 -57 -48 -60 -11 -9 -70 -120 -64
-120 4 0 -1 -7 -9 -16 -9 -8 -14 -19 -11 -24 3 -5 1 -10 -3 -12 -10 -4 -51
-145 -60 -208 -9 -61 -9 -244 0 -300 21 -129 83 -285 144 -366 13 -17 24 -34
24 -37 0 -4 8 -15 18 -25 9 -10 31 -33 47 -52 38 -44 137 -128 190 -162 128
-81 274 -131 422 -144 31 -2 59 -7 64 -9 4 -3 10 -1 14 5 4 7 12 7 24 0 10 -5
21 -7 24 -4 3 3 26 7 52 9 26 2 59 6 73 10 15 3 37 8 50 10 199 43 413 183
537 350 17 22 36 46 43 53 7 8 10 18 7 23 -4 5 -2 9 2 9 10 0 73 121 73 139 0
7 5 22 12 34 14 25 12 17 33 122 18 84 23 252 11 320 -4 22 -9 49 -11 60 -7
39 -22 93 -30 105 -6 10 25 50 39 50 3 0 35 21 72 48 36 26 77 54 90 62 13 8
83 55 155 104 l131 89 24 -26 c13 -14 24 -28 24 -31 0 -12 215 -234 296 -306
21 -19 82 -65 134 -102 52 -37 100 -72 106 -77 7 -6 15 -7 18 -4 3 4 6 2 6 -3
0 -5 17 -18 38 -29 20 -11 39 -22 42 -25 10 -11 200 -100 286 -134 84 -33 245
-84 289 -91 11 -2 45 -8 75 -14 152 -32 257 -41 445 -40 111 0 210 5 210 9 0
1 18 3 40 5 50 5 120 13 120 15 0 1 10 3 23 6 12 2 32 6 45 8 12 3 22 5 22 6
0 1 9 3 19 5 118 22 324 94 466 164 41 20 77 38 80 41 3 3 21 13 40 23 70 37
95 52 114 70 11 9 26 17 33 17 7 0 13 4 13 9 0 5 8 12 18 15 9 4 32 20 51 36
18 17 36 30 40 30 3 0 20 14 38 30 39 36 49 37 78 6 17 -18 20 -28 12 -41 -47
-84 -66 -224 -43 -313 32 -119 24 -111 612 -688 89 -88 284 -279 433 -426 149
-146 271 -262 271 -257 0 5 25 -1 56 -12 124 -47 301 -22 391 54 39 33 213
207 207 207 -3 0 6 10 18 23 82 78 120 247 83 375 -25 87 -68 145 -205 279
-69 67 -129 127 -135 132 -22 23 -157 156 -335 331 -391 383 -540 532 -540
541 0 14 -1 16 -11 51 -6 18 -12 44 -15 57 -3 13 -21 87 -40 165 -19 77 -37
150 -39 161 -4 17 -9 38 -20 85 -1 3 -7 32 -15 65 -17 75 -17 74 -20 78 -1 1
-3 9 -5 17 -13 61 -17 79 -22 112 -3 22 1 57 10 85 9 27 18 63 22 80 3 18 9
42 14 55 4 13 6 29 4 36 -3 6 -1 12 4 12 5 0 9 10 10 23 0 12 4 42 8 67 27
160 34 359 20 530 -5 52 -9 107 -9 123 -1 15 -3 27 -6 27 -4 0 -6 10 -7 23 -1
27 -14 100 -19 108 -2 4 -6 24 -10 45 -7 50 -37 148 -76 249 -46 122 -46 118
4 133 206 59 366 103 381 105 9 1 17 5 17 10 0 4 4 6 8 3 5 -3 27 2 51 10 23
8 52 16 64 18 12 3 22 5 22 6 0 1 9 3 20 5 11 3 76 21 145 40 77 22 126 32
128 25 2 -5 10 -10 17 -10 7 0 15 -4 17 -8 7 -18 179 -122 213 -129 5 -1 35
-10 65 -21 103 -37 172 -47 305 -46 108 1 147 5 228 27 100 27 250 94 286 128
12 11 21 17 21 14 0 -6 39 26 88 73 18 17 37 32 40 32 4 1 25 25 47 55 22 30
43 55 48 55 4 0 7 6 7 14 0 7 6 19 14 25 19 16 95 171 102 210 4 17 9 31 13
31 4 0 7 8 8 18 0 9 7 51 16 92 9 47 14 115 12 185 -3 113 -7 146 -31 230 -2
6 -5 19 -7 30 -8 31 -39 108 -55 133 -8 12 -10 22 -6 22 5 0 4 4 -2 8 -6 4
-21 26 -33 50 -12 23 -26 42 -31 42 -5 0 -12 9 -15 21 -10 30 -161 179 -225
221 -53 35 -128 74 -180 96 -53 21 -94 36 -109 39 -9 1 -51 8 -94 16 -42 7
-121 13 -175 11 -100 -2 -115 -4 -219 -28 -10 -2 -36 -11 -58 -19 -22 -8 -56
-20 -75 -27 -19 -8 -38 -18 -42 -24 -4 -6 -8 -8 -8 -4 0 7 -98 -48 -110 -61
-3 -4 -13 -12 -22 -19 -18 -14 -9 -20 -327 206 -25 18 -57 41 -71 50 -14 9
-27 19 -30 22 -18 21 -108 78 -114 73 -3 -3 -6 -2 -6 4 0 9 -98 83 -168 128
-32 20 -52 40 -52 50 0 5 15 32 34 60 18 27 55 84 81 125 62 97 103 161 115
180 106 161 142 218 147 233 3 9 9 17 14 17 5 0 9 7 9 15 0 8 4 15 9 15 5 0
11 8 15 18 3 9 33 58 66 107 33 50 64 99 69 111 5 11 15 27 23 35 8 8 26 35
41 61 15 26 31 49 36 52 5 3 44 -3 88 -14 93 -23 263 -43 263 -30 0 3 19 5 43
5 137 2 291 52 436 143 69 44 93 64 170 142 53 53 171 214 171 233 0 2 8 22
17 43 9 22 17 41 18 44 0 3 3 10 6 15 6 9 18 52 20 72 1 5 5 18 9 29 21 53 30
256 16 344 -11 78 -26 141 -34 155 -4 6 -7 17 -9 25 -2 15 -6 24 -44 105 -82
174 -252 346 -419 426 -36 17 -73 35 -82 40 -10 5 -22 9 -27 9 -5 0 -22 5 -38
11 -15 7 -35 13 -43 14 -8 1 -28 5 -45 9 -139 29 -255 27 -428 -9 -29 -6 -90
-28 -144 -51 -17 -8 -34 -14 -38 -14 -4 0 -44 -24 -90 -54 -93 -61 -214 -176
-262 -251 -18 -28 -36 -55 -41 -60 -34 -41 -97 -208 -116 -310 -14 -76 -16
-288 -3 -340 3 -11 8 -33 12 -50 22 -97 115 -305 137 -305 4 0 8 -5 8 -11 0
-14 56 -84 110 -136 l39 -39 -42 -64 c-23 -36 -46 -73 -52 -82 -41 -69 -122
-194 -133 -204 -7 -7 -13 -16 -12 -19 0 -5 -45 -78 -112 -178 -21 -32 -38 -62
-38 -66 0 -5 -7 -15 -16 -22 -9 -7 -20 -22 -25 -34 -9 -21 -171 -271 -189
-292 -5 -7 -10 -16 -10 -21 0 -5 -7 -15 -15 -22 -16 -13 -42 -1 -79 35 -9 9
-16 13 -16 8 0 -4 -4 -3 -8 3 -4 6 -61 48 -127 95 -66 46 -122 86 -125 89 -3
3 -36 28 -75 55 -38 27 -73 54 -77 59 -5 7 -8 7 -8 1 0 -6 -3 -6 -8 1 -4 5
-59 47 -122 92 -63 44 -120 86 -127 91 -6 6 -40 30 -76 53 -39 27 -63 49 -61
58 29 128 35 185 30 290 -3 63 -7 124 -9 135 -60 262 -187 463 -377 595 -19
13 -37 27 -40 30 -5 5 -79 46 -110 61 -69 32 -175 66 -238 76 -95 14 -287 9
-372 -10 -83 -19 -200 -64 -212 -81 -4 -6 -8 -8 -8 -4 0 8 -90 -45 -140 -82
-63 -48 -169 -161 -215 -229 -36 -56 -95 -167 -101 -191 -5 -25 -18 -67 -22
-75 -4 -5 -7 -16 -8 -25 -1 -8 -5 -26 -8 -40 -19 -75 -24 -250 -11 -335 10
-61 12 -69 18 -85 3 -8 11 -35 17 -59 15 -58 64 -162 108 -229 19 -29 33 -54
31 -56 -9 -9 -129 -94 -184 -131 -33 -22 -68 -48 -79 -57 -11 -10 -23 -18 -27
-18 -4 0 -15 -7 -24 -16 -17 -17 -36 -9 -41 18 -1 7 -46 186 -99 398 -53 212
-98 390 -99 395 -2 6 -7 28 -11 50 -5 22 -10 42 -10 45 -1 3 -7 25 -14 50 -12
40 -18 69 -25 107 -1 7 -5 15 -8 19 -4 3 -4 12 -2 19 3 7 0 16 -5 20 -6 3 -9
11 -6 16 4 5 3 15 -2 22 -4 6 -9 21 -10 32 -1 11 -7 36 -12 55 -15 58 -29 112
-41 165 -7 28 -16 61 -20 75 -5 14 -23 86 -40 160 -17 74 -36 149 -41 165 -4
17 -16 59 -24 95 -9 36 -18 72 -20 80 -2 8 -9 38 -15 65 -25 108 -28 120 -30
120 -1 0 -3 10 -6 23 -4 23 15 52 34 52 33 0 282 211 282 238 0 5 9 17 21 28
18 17 103 158 99 166 -1 2 5 16 14 32 8 16 13 33 10 38 -3 4 -1 8 4 8 10 0 34
88 48 170 10 59 10 242 0 300 -19 117 -99 318 -147 368 -10 12 -19 24 -19 26
0 23 -164 184 -235 232 -86 57 -208 114 -278 128 -7 2 -23 6 -37 9 -61 16 -92
19 -200 22 -79 1 -142 -3 -201 -15z m311 -365 c101 -25 168 -61 260 -139 40
-34 100 -109 100 -125 0 -6 4 -11 8 -11 11 0 57 -114 68 -172 35 -180 -25
-376 -155 -508 -121 -123 -227 -166 -426 -174 -27 -1 -59 1 -71 5 -11 4 -34 9
-50 12 -70 11 -232 106 -272 159 -7 9 -19 24 -28 33 -44 44 -102 164 -120 250
-8 41 -8 171 1 225 15 92 109 257 175 306 8 7 28 23 44 37 38 33 127 76 200
97 59 16 209 19 266 5z m5117 -1459 c169 -18 342 -145 424 -311 131 -266 49
-565 -199 -731 -92 -61 -181 -87 -302 -87 -136 1 -157 5 -256 53 -61 30 -102
59 -154 110 -38 38 -70 76 -70 83 0 8 -7 17 -15 21 -8 3 -14 9 -13 13 0 4 -8
28 -20 53 -12 25 -25 62 -28 83 -4 20 -10 37 -14 37 -12 0 -4 211 9 260 17 60
66 159 96 194 13 15 25 31 27 34 3 7 58 56 106 94 26 21 117 68 143 74 11 2
29 7 42 10 12 3 42 8 67 11 25 3 46 6 48 8 1 1 15 1 30 -1 15 -1 50 -5 79 -8z
m-6694 -1151 c53 -12 155 -55 184 -78 25 -19 136 -130 156 -155 9 -12 17 -29
17 -37 0 -8 4 -15 9 -15 5 0 11 -8 14 -17 4 -10 15 -40 25 -68 10 -27 17 -56
15 -62 -3 -7 -1 -13 5 -13 5 0 8 -49 7 -112 -3 -123 -15 -171 -69 -273 -28
-54 -156 -200 -156 -179 0 5 -5 1 -11 -8 -5 -10 -15 -18 -21 -18 -6 0 -19 -7
-29 -16 -9 -8 -23 -16 -31 -18 -7 -1 -18 -5 -24 -8 -36 -23 -112 -40 -199 -43
-135 -6 -217 15 -347 91 -42 25 -148 135 -148 154 0 6 -4 10 -9 10 -9 0 -65
120 -76 165 -39 159 -13 319 72 453 37 58 135 158 164 167 11 4 19 11 19 16 0
5 9 9 20 9 11 0 20 4 20 9 0 7 96 41 155 55 38 8 187 3 238 -9z m2979 -314 c2
-5 26 -35 55 -67 28 -33 109 -126 179 -209 70 -82 134 -158 142 -168 14 -16
14 -17 -4 -14 -40 7 -133 58 -185 101 -76 62 -136 146 -177 246 -10 26 -32
102 -32 114 0 9 18 7 22 -3z m1321 -523 c18 -12 34 -25 37 -28 3 -4 20 -15 38
-25 17 -11 32 -23 32 -27 0 -4 4 -8 10 -8 9 0 71 -43 123 -86 9 -8 19 -14 22
-14 4 0 67 -44 110 -78 6 -4 73 -52 150 -107 77 -54 142 -102 143 -107 2 -4 8
-8 12 -8 5 0 39 -22 76 -50 37 -27 71 -50 75 -50 23 0 15 -13 -154 -275 -146
-226 -310 -481 -321 -499 -6 -11 -15 -25 -19 -30 -23 -31 -130 -203 -140 -223
-5 -13 -14 -23 -19 -23 -4 0 -8 -7 -8 -15 0 -21 -10 -19 -82 14 -103 46 -237
97 -334 125 -92 27 -112 32 -174 42 -19 4 -39 7 -45 8 -44 10 -141 23 -195 25
-12 1 -15 17 -15 84 0 45 4 88 8 95 5 6 4 12 0 12 -5 0 -9 25 -8 55 0 30 3 55
7 55 4 0 3 11 -2 24 -5 13 -6 26 -3 29 4 5 10 214 16 611 3 159 -9 142 117
171 76 17 300 119 300 136 0 5 7 9 15 9 8 0 15 5 15 10 0 6 6 10 13 10 6 0 46
36 87 79 41 44 77 80 78 80 2 1 18 -9 35 -21z m-1187 -237 c62 -30 90 -42 113
-47 7 -1 26 -8 40 -14 27 -11 27 -13 25 -94 0 -46 -4 -88 -8 -94 -3 -6 -2 -13
4 -17 6 -4 8 -10 5 -15 -3 -5 -8 -134 -11 -287 -4 -240 -11 -541 -13 -609 -1
-11 -7 -21 -13 -22 -85 -8 -131 -14 -173 -22 -27 -5 -62 -12 -77 -15 -70 -13
-88 -17 -158 -37 -41 -11 -79 -22 -85 -25 -10 -3 -21 29 -41 122 -1 6 -12 48
-24 95 -12 47 -24 94 -26 105 -5 28 -12 60 -14 60 -2 0 -10 34 -15 60 -2 11
-4 20 -5 20 -2 0 -6 18 -14 55 -3 14 -28 115 -56 224 -50 198 -57 236 -42 236
4 0 45 27 92 60 47 33 92 64 100 70 90 60 166 115 168 122 2 4 8 8 13 8 9 0
94 56 117 78 19 18 32 15 98 -17z m-2570 -253 c31 -29 69 -64 84 -78 15 -14
64 -59 110 -100 46 -41 95 -86 110 -100 15 -14 69 -63 121 -110 51 -47 119
-109 151 -139 l58 -54 -42 -25 c-24 -14 -45 -28 -48 -32 -3 -3 -30 -22 -60
-42 -30 -21 -100 -69 -155 -108 -55 -39 -107 -73 -115 -77 -8 -4 -17 -9 -20
-12 -3 -4 -22 -17 -42 -31 -21 -14 -38 -28 -38 -32 0 -5 -4 -8 -10 -8 -5 0
-47 -26 -92 -58 -103 -72 -109 -75 -107 -65 1 4 0 10 -1 13 -2 6 -6 60 -15
190 -3 52 -8 122 -11 155 -2 33 -6 92 -8 130 -3 39 -5 70 -6 70 -1 0 -3 27 -5
60 -4 77 -24 363 -27 394 -3 27 9 44 50 75 26 19 50 36 54 36 4 0 33 -24 64
-52z m-515 -176 c1 -9 3 -33 4 -52 2 -19 6 -75 9 -125 4 -49 8 -106 10 -125 2
-19 7 -82 11 -140 3 -58 8 -123 10 -145 3 -22 7 -80 10 -130 3 -49 7 -117 10
-150 3 -33 7 -100 10 -149 2 -49 7 -91 9 -94 12 -11 -18 -42 -79 -82 -36 -24
-65 -48 -65 -54 0 -5 -3 -7 -6 -3 -3 3 -52 -27 -107 -66 -124 -88 -155 -109
-176 -122 -9 -5 -39 -26 -66 -46 -87 -63 -85 -63 -164 -26 -58 26 -69 35 -65
51 4 10 8 26 9 35 2 9 4 18 5 21 1 3 2 8 1 13 0 4 4 7 11 7 6 0 9 3 6 6 -5 5
9 60 29 114 3 8 7 20 8 25 2 6 25 80 53 165 28 85 69 214 93 285 23 72 42 136
42 143 0 6 5 12 10 12 6 0 8 3 4 6 -3 3 1 25 10 47 8 23 16 49 18 57 2 8 9 29
15 45 6 17 13 37 15 45 5 24 5 25 74 235 l66 200 39 2 c21 1 40 4 42 5 1 2 23
4 48 5 37 2 46 -1 47 -15z m2304 -661 c-3 -2 -1 -9 4 -15 7 -10 23 -68 35
-131 2 -11 9 -33 16 -50 6 -16 11 -31 10 -33 -1 -1 4 -27 11 -56 6 -30 9 -62
5 -71 -6 -16 -8 -16 -31 -1 -24 16 -80 65 -166 146 -20 19 -70 64 -109 100
-40 36 -85 76 -100 90 -15 14 -63 57 -106 97 -44 39 -97 87 -118 107 -25 22
-36 39 -30 45 5 5 52 38 104 75 52 36 100 69 105 73 12 10 122 85 190 130 l50
33 67 -267 c37 -147 65 -269 63 -272z m3163 474 c31 -25 63 -45 70 -45 6 0 12
-4 12 -9 0 -4 26 -25 57 -46 31 -21 61 -42 67 -47 6 -5 94 -69 196 -141 102
-73 198 -142 214 -154 l28 -23 -31 -60 c-17 -33 -28 -60 -24 -60 5 0 3 -4 -2
-8 -11 -7 -35 -85 -56 -182 -21 -94 -14 -320 12 -388 6 -15 9 -27 8 -27 -4 0
33 -109 47 -136 12 -24 11 -26 -19 -37 -18 -6 -43 -13 -57 -16 -14 -2 -54 -14
-90 -25 -36 -11 -75 -22 -85 -24 -11 -2 -27 -7 -35 -10 -28 -11 -182 -53 -229
-63 -13 -3 -32 -9 -43 -15 -10 -5 -18 -8 -18 -6 0 2 -50 -11 -111 -29 l-110
-32 -68 91 c-37 51 -81 107 -97 126 -71 84 -214 227 -274 274 -107 84 -105 81
-78 125 34 57 67 106 78 119 5 7 10 17 10 23 0 5 4 10 9 10 5 0 11 6 13 13 2
7 66 111 143 230 77 119 145 224 150 234 6 10 34 53 63 96 28 43 52 83 52 88
0 5 5 9 10 9 6 0 10 5 10 10 0 15 107 178 118 180 1 0 28 -20 60 -45z m1612
-391 c66 -19 190 -82 190 -97 0 -6 2 -8 6 -5 7 8 94 -86 131 -142 36 -55 70
-139 82 -202 11 -60 7 -178 -9 -243 -14 -61 -80 -188 -123 -236 -42 -46 -135
-119 -153 -119 -8 0 -14 -3 -14 -8 0 -9 -102 -49 -150 -58 -19 -4 -73 -8 -120
-8 -230 -3 -446 148 -529 369 -41 108 -45 212 -16 355 13 68 81 177 153 248
147 147 358 202 552 146z m-5610 -116 c73 -66 140 -127 240 -218 52 -47 111
-101 132 -121 33 -32 144 -132 199 -180 18 -16 17 -18 -28 -55 -86 -69 -333
-323 -333 -342 0 -4 -14 -23 -30 -42 -43 -50 -50 -58 -50 -65 0 -3 -15 -27
-33 -53 -63 -90 -118 -192 -178 -331 l-37 -86 -68 1 c-72 2 -279 12 -279 14 0
1 -36 3 -80 5 -240 13 -407 24 -411 27 -3 4 -13 109 -19 221 -6 97 -13 192
-15 192 -1 0 -8 111 -15 218 -2 43 -7 82 -10 87 -4 6 0 10 7 10 8 0 9 3 3 8
-5 4 -11 25 -13 48 -2 30 2 45 18 59 11 10 20 15 20 11 0 -4 7 0 16 8 8 9 41
33 72 53 31 21 59 41 60 45 2 5 10 8 18 8 8 0 14 4 14 8 0 4 15 16 33 27 17
10 72 47 120 82 48 35 92 63 96 63 5 0 14 6 20 13 6 8 50 40 98 73 49 32 93
62 98 67 33 27 272 187 280 187 6 0 30 -19 55 -42z m2106 -462 c44 -3 91 -8
104 -11 24 -5 43 -9 105 -19 17 -3 45 -10 63 -15 17 -5 32 -7 32 -5 0 3 6 2
13 -3 6 -4 21 -9 32 -10 11 -2 29 -7 40 -12 11 -5 36 -14 55 -21 100 -34 268
-113 322 -151 14 -11 29 -19 32 -19 4 0 31 -18 61 -40 30 -22 59 -40 65 -40 6
0 8 -4 5 -10 -3 -5 0 -10 7 -10 33 0 254 -220 350 -348 72 -95 168 -251 168
-272 0 -5 5 -10 10 -10 6 0 10 -7 10 -15 0 -8 9 -30 20 -50 11 -19 17 -35 14
-35 -3 0 -2 -6 3 -12 4 -7 8 -17 8 -23 1 -12 7 -40 56 -239 22 -88 41 -169 44
-180 2 -12 12 -50 20 -86 14 -52 16 -96 11 -220 -7 -184 -10 -213 -42 -350
-31 -132 -26 -113 -54 -195 -13 -38 -23 -72 -24 -75 0 -3 -16 -36 -35 -75 -19
-38 -35 -72 -36 -75 0 -3 -3 -9 -7 -15 -3 -5 -18 -32 -34 -60 -45 -82 -107
-175 -116 -175 -4 0 -8 -7 -8 -15 0 -7 -6 -18 -13 -22 -7 -4 -21 -21 -31 -37
-28 -44 -222 -236 -291 -287 -81 -62 -201 -140 -250 -164 -22 -11 -43 -24 -46
-28 -3 -5 -8 -8 -10 -7 -2 0 -26 -9 -54 -22 -27 -12 -53 -21 -57 -20 -5 1 -8
-3 -8 -8 0 -5 -3 -9 -7 -8 -5 1 -33 -8 -64 -19 -56 -22 -218 -67 -275 -77 -16
-3 -40 -8 -54 -11 -103 -21 -377 -28 -495 -12 -110 14 -116 15 -205 33 -28 5
-195 54 -215 63 -11 5 -56 24 -100 42 -85 36 -229 112 -256 135 -8 8 -20 14
-26 14 -6 0 -13 3 -15 8 -1 4 -32 28 -68 54 -135 97 -244 206 -361 359 -35 46
-67 86 -71 87 -5 2 -8 8 -8 14 0 6 -17 38 -37 72 -72 118 -156 309 -183 417
-6 22 -15 58 -21 82 -6 23 -13 52 -15 65 -2 12 -6 34 -9 50 -29 155 -34 447
-10 552 3 14 7 41 9 60 4 45 30 156 58 245 12 39 21 73 20 78 -1 4 2 7 8 7 5
0 10 8 10 18 0 10 5 23 12 30 7 7 9 12 5 12 -8 0 87 192 114 231 10 14 16 29
12 33 -3 3 -2 6 4 6 5 0 18 16 29 35 10 19 22 35 27 35 4 0 5 5 2 10 -3 6 -2
10 3 10 5 0 21 17 35 38 103 153 362 384 537 480 50 28 219 112 224 112 2 0
17 5 33 12 15 6 30 12 33 13 11 2 86 27 100 32 24 10 57 18 107 27 13 3 26 7
30 9 5 3 28 8 53 11 25 3 56 8 70 11 14 3 63 8 110 11 47 3 86 7 87 8 4 3 149
-2 229 -8z m-3460 -423 c3 -19 14 -168 18 -251 2 -28 5 -55 9 -58 3 -3 2 -16
-3 -29 -5 -13 -6 -26 -2 -29 3 -4 7 -28 8 -55 2 -26 5 -65 7 -85 l4 -36 -66 4
c-36 2 -68 5 -71 6 -3 1 -22 2 -43 3 -37 2 -39 4 -57 55 -25 69 -91 202 -102
202 -4 0 -8 7 -8 15 0 8 -3 15 -7 15 -5 0 -13 11 -19 24 -10 21 -7 25 24 42
20 10 40 24 46 29 6 6 36 27 66 47 126 85 146 99 164 113 21 16 29 13 32 -12z
m-968 -227 c124 -24 274 -120 341 -220 83 -123 114 -223 112 -351 -2 -54 -7
-110 -11 -110 -1 0 -3 -10 -6 -23 -7 -40 -46 -125 -82 -177 -34 -50 -116 -136
-143 -148 -8 -4 -29 -17 -48 -28 -79 -47 -178 -72 -286 -72 -80 0 -127 10
-205 40 -201 80 -332 255 -357 478 -7 67 0 147 21 215 10 33 39 104 46 110 3
3 12 18 20 35 19 37 147 165 166 165 8 0 14 5 14 10 0 6 7 10 15 10 8 0 15 3
15 8 0 9 118 52 162 59 18 3 34 6 36 8 5 4 155 -2 190 -9z m1567 -701 c55 -3
136 -8 180 -10 157 -9 328 -20 348 -24 7 -1 0 -88 -9 -102 -17 -30 -25 -456
-10 -569 4 -30 9 -66 11 -80 1 -14 5 -36 8 -50 3 -14 15 -70 27 -125 12 -55
25 -109 30 -120 5 -11 14 -38 20 -60 6 -22 17 -56 25 -75 20 -53 28 -74 29
-80 1 -3 6 -12 11 -20 5 -8 10 -19 11 -25 1 -5 15 -37 31 -70 l29 -61 -70 -49
c-39 -28 -74 -49 -78 -47 -5 1 -8 -2 -8 -7 0 -6 -11 -16 -25 -23 -13 -7 -85
-55 -159 -105 -74 -51 -138 -93 -141 -93 -3 0 -30 23 -58 51 -55 53 -193 150
-240 168 -18 7 -27 18 -28 33 -3 58 -7 103 -9 103 -1 0 -3 34 -5 75 -2 41 -4
75 -5 75 -1 0 -3 27 -5 60 -4 85 -18 282 -30 440 -13 163 -15 192 -19 265 -5
80 -14 193 -21 275 -2 28 -7 95 -10 149 -3 55 -8 103 -10 106 -2 4 15 6 38 4
23 -2 87 -6 142 -9z m-356 -1860 c24 -3 52 -10 63 -16 10 -5 18 -8 18 -5 0 9
74 -26 129 -61 70 -45 143 -120 185 -193 38 -65 80 -185 73 -212 -3 -10 -2
-20 2 -22 3 -3 5 -31 4 -63 -2 -56 -5 -78 -18 -136 -9 -42 -50 -132 -83 -179
-31 -45 -102 -122 -102 -111 0 4 -9 -3 -20 -15 -33 -35 -179 -100 -250 -111
-122 -20 -110 -30 -160 127 -24 75 -45 142 -47 147 -1 6 -12 37 -23 70 -12 33
-23 65 -24 70 -16 59 -20 71 -25 80 -3 6 -6 15 -7 20 -1 6 -30 96 -65 200 -34
105 -62 196 -62 203 0 6 -5 12 -10 12 -6 0 -8 3 -4 6 3 4 0 18 -7 33 -13 27
-11 61 4 61 4 0 27 12 50 28 23 15 45 27 49 28 3 0 18 6 34 12 29 12 60 20
117 29 19 3 36 6 37 7 4 4 91 -2 142 -9z m5234 -538 c172 -169 179 -178 192
-252 3 -18 55 -231 72 -295 3 -14 6 -28 5 -31 0 -3 6 -28 14 -54 8 -27 13 -50
11 -51 -2 -2 -119 111 -262 251 -142 140 -260 255 -261 255 -5 0 -140 143
-147 155 -9 16 162 195 186 195 8 0 93 -78 190 -173z m-5813 -187 c14 -15 41
-46 60 -70 19 -24 40 -48 46 -54 5 -6 37 -42 69 -81 33 -38 68 -79 78 -90 32
-34 70 -85 66 -89 -7 -7 -134 58 -175 88 -102 77 -180 191 -213 311 -19 71
-15 83 17 45 15 -18 38 -45 52 -60z"/>
<path d="M5750 5183 c-94 -13 -230 -36 -255 -43 -16 -5 -55 -17 -85 -26 -30
-8 -68 -22 -85 -29 -16 -7 -42 -17 -57 -20 -16 -4 -28 -11 -28 -16 0 -5 -3 -8
-7 -7 -5 1 -21 -4 -36 -10 -16 -7 -32 -12 -37 -12 -5 0 -10 -3 -12 -7 -1 -5
-33 -24 -70 -43 -38 -19 -68 -38 -68 -41 0 -4 -8 -9 -17 -13 -70 -23 -283
-212 -403 -356 -37 -45 -44 -55 -104 -146 -56 -85 -70 -108 -72 -114 -13 -42
-18 -50 -25 -50 -5 0 -9 -5 -9 -11 0 -5 -11 -34 -23 -62 -13 -29 -32 -74 -42
-102 -9 -27 -21 -59 -25 -70 -9 -21 -39 -143 -46 -185 -2 -14 -6 -35 -9 -47
-21 -91 -27 -359 -12 -482 15 -118 63 -320 92 -386 24 -52 48 -110 49 -115 1
-3 5 -11 9 -17 5 -7 5 -13 0 -13 -4 0 -3 -4 2 -8 6 -4 26 -37 45 -74 19 -38
38 -68 42 -68 5 0 8 -5 8 -11 0 -26 144 -210 237 -304 78 -78 188 -171 210
-178 4 -1 18 -12 32 -24 13 -13 30 -23 37 -23 8 0 14 -4 14 -10 0 -5 7 -10 15
-10 8 0 15 -4 15 -10 0 -5 4 -10 9 -10 4 0 39 -17 77 -38 101 -55 238 -109
347 -138 4 -1 10 -3 15 -4 4 -1 11 -2 15 -1 4 1 17 -4 28 -9 11 -6 37 -13 57
-15 20 -2 48 -6 62 -9 76 -16 391 -30 415 -17 5 3 25 6 45 8 48 4 105 11 105
13 0 1 9 3 20 5 59 12 188 42 193 45 1 2 5 3 10 5 4 1 14 5 22 8 8 3 47 18 85
32 120 44 368 188 431 249 6 6 30 27 54 46 52 42 80 71 80 82 0 5 5 6 10 3 6
-3 10 -2 10 2 0 5 17 26 38 48 54 57 115 133 145 181 14 22 33 48 42 57 9 10
14 17 10 17 -3 0 2 12 12 28 89 129 193 413 218 592 20 143 27 350 13 388 -6
17 -5 21 4 16 6 -4 8 -3 4 4 -3 6 -9 32 -12 59 -4 42 -21 148 -29 178 -35 149
-75 256 -150 405 -63 125 -75 146 -75 135 0 -5 -7 4 -16 20 -38 74 -184 241
-306 351 -59 54 -230 174 -247 174 -5 0 -11 4 -13 8 -4 11 -213 112 -231 112
-7 0 -16 3 -20 6 -9 9 -129 50 -174 59 -21 5 -42 10 -48 12 -15 4 -115 23
-155 29 -44 6 -346 12 -380 7z"/>
</g>
</svg>
